<!-- Generator: Adobe Illustrator 18.1.1, SVG Export Plug-In  -->
<svg version="1.1"
	 xmlns="http://www.w3.org/2000/svg" xmlns:xlink="http://www.w3.org/1999/xlink" xmlns:a="http://ns.adobe.com/AdobeSVGViewerExtensions/3.0/"
	 x="0px" y="0px" width="26px" height="22px" viewBox="0 0 26 22" enable-background="new 0 0 26 22" xml:space="preserve">
<defs>
</defs>
<path id="Arrow_Forward_1_" fill="#0E90B2" d="M26,11c0-0.3-0.1-0.5-0.3-0.7l-9.9-10c-0.4-0.4-1-0.4-1.4,0c-0.4,0.4-0.4,1,0,1.4
	l8.2,8.3H1c-0.6,0-1,0.5-1,1s0.4,1,1,1h21.6l-8.2,8.3c-0.4,0.4-0.4,1,0,1.4c0.4,0.4,1,0.4,1.4,0l9.9-10C25.9,11.5,26,11.3,26,11z"/>
</svg>
