<!-- Generator: Adobe Illustrator 18.1.1, SVG Export Plug-In  -->
<svg version="1.1"
	 xmlns="http://www.w3.org/2000/svg" xmlns:xlink="http://www.w3.org/1999/xlink" xmlns:a="http://ns.adobe.com/AdobeSVGViewerExtensions/3.0/"
	 x="0px" y="0px" width="47.9px" height="47.9px" viewBox="0 0 47.9 47.9" enable-background="new 0 0 47.9 47.9"
	 xml:space="preserve">
<defs>
</defs>
<path fill="#231F20" d="M31.7,23.9L46.3,9.4c2.1-2.1,2.1-5.6,0-7.8c-2.1-2.1-5.6-2.1-7.8,0L23.9,16.2L9.4,1.6
	c-2.1-2.1-5.6-2.1-7.8,0c-2.1,2.1-2.1,5.6,0,7.8l14.6,14.6L1.6,38.5c-2.1,2.1-2.1,5.6,0,7.8c1.1,1.1,2.5,1.6,3.9,1.6
	s2.8-0.5,3.9-1.6l14.6-14.6l14.6,14.6c1.1,1.1,2.5,1.6,3.9,1.6s2.8-0.5,3.9-1.6c2.1-2.1,2.1-5.6,0-7.8L31.7,23.9z"/>
</svg>