<!-- Generator: Adobe Illustrator 18.1.1, SVG Export Plug-In  -->
<svg version="1.1"
	 xmlns="http://www.w3.org/2000/svg" xmlns:xlink="http://www.w3.org/1999/xlink" xmlns:a="http://ns.adobe.com/AdobeSVGViewerExtensions/3.0/"
	 x="0px" y="0px" width="2347.6px" height="1609.7px" viewBox="0 0 2347.6 1609.7" enable-background="new 0 0 2347.6 1609.7"
	 xml:space="preserve">
<defs>
</defs>
<g>
	<path fill="#03202B" stroke="#03202B" stroke-width="1.51" d="M62.5,33.2l177,24l71,5L62.5,33.2z"/>
	<path fill="#02222D" stroke="#02222D" stroke-width="1.51" d="M62.5,33.2l248,29l291,2L62.5,33.2z"/>
	<path fill="#022430" stroke="#022430" stroke-width="1.51" d="M62.5,33.2l539,31l174-9L62.5,33.2z"/>
	<path fill="#053747" stroke="#053747" stroke-width="1.51" d="M775.5,55.2l327,1l166-25L775.5,55.2z"/>
	<path fill="#124050" stroke="#124050" stroke-width="1.51" d="M1134.5,1579.2l-440,15l591-7L1134.5,1579.2z"/>
	<path fill="#134151" stroke="#134151" stroke-width="1.51" d="M1285.5,1587.2l-591,7l800,13L1285.5,1587.2z"/>
	<path fill="#073748" stroke="#073748" stroke-width="1.51" d="M775.5,55.2l493-24l271-29L775.5,55.2z"/>
	<path fill="#032F3F" stroke="#032F3F" stroke-width="1.51" d="M62.5,33.2l713,22l764-53L62.5,33.2z"/>
	<path fill="#0E333F" stroke="#0E333F" stroke-width="1.51" d="M1745.5,1542.2l-251,65l498-30L1745.5,1542.2z"/>
	<path fill="#03232F" stroke="#03232F" stroke-width="1.51" d="M1744.5,40.2l278,11l99-21L1744.5,40.2z"/>
	<path fill="#032733" stroke="#032733" stroke-width="1.51" d="M1539.5,2.2l205,38l377-10L1539.5,2.2z"/>
	<path fill="#0D3644" stroke="#0D3644" stroke-width="1.51" d="M2268.5,383.2l-24,86l35,145L2268.5,383.2z"/>
	<path fill="#0C2C37" stroke="#0C2C37" stroke-width="1.51" d="M1992.5,1577.2l-498,30l793-32L1992.5,1577.2z"/>
	<path fill="#112E38" stroke="#112E38" stroke-width="1.51" d="M2186.5,1553.2l-194,24l295-2L2186.5,1553.2z"/>
	<path fill="#113D4B" stroke="#113D4B" stroke-width="1.51" d="M2248.5,964.2l-59,87l116,83L2248.5,964.2z"/>
	<path fill="#144252" stroke="#144252" stroke-width="1.51" d="M2301.5,768.2l-53,196l57,170L2301.5,768.2z"/>
	<path fill="#112E38" stroke="#112E38" stroke-width="1.51" d="M2186.5,1553.2l101,22l32-208L2186.5,1553.2z"/>
	<path fill="#0E2D38" stroke="#0E2D38" stroke-width="1.51" d="M2152.5,1393.2l34,160l133-186L2152.5,1393.2z"/>
	<path fill="#0C2E3A" stroke="#0C2E3A" stroke-width="1.51" d="M2305.5,1134.2l-28,143l42,90L2305.5,1134.2z"/>
	<path fill="#092C38" stroke="#092C38" stroke-width="1.51" d="M2132.5,346.2l136,37l77-131L2132.5,346.2z"/>
	<path fill="#082A35" stroke="#082A35" stroke-width="1.51" d="M2096.5,173.2l36,173l213-94L2096.5,173.2z"/>
	<path fill="#0A2933" stroke="#0A2933" stroke-width="1.51" d="M2304.5,52.2l-208,121l249,79L2304.5,52.2z"/>
	<path fill="#0F3948" stroke="#0F3948" stroke-width="1.51" d="M2279.5,614.2l22,154l44-516L2279.5,614.2z"/>
	<path fill="#0D323E" stroke="#0D323E" stroke-width="1.51" d="M2268.5,383.2l11,231l66-362L2268.5,383.2z"/>
	<path fill="#154352" stroke="#154352" stroke-width="1.51" d="M2305.5,1134.2l14,233l26-1115L2305.5,1134.2z"/>
	<path fill="#134050" stroke="#134050" stroke-width="1.51" d="M2301.5,768.2l4,366l40-882L2301.5,768.2z"/>
	<path fill="#0D3848" stroke="#0D3848" stroke-width="1.51" d="M2244.5,469.2l-58,68l93,77L2244.5,469.2z"/>
	<path fill="#114051" stroke="#114051" stroke-width="1.51" d="M2102.5,769.2l146,195l53-196L2102.5,769.2z"/>
	<path fill="#0F3F4F" stroke="#0F3F4F" stroke-width="1.51" d="M2279.5,614.2l-94-13l116,167L2279.5,614.2z"/>
	<path fill="#072630" stroke="#072630" stroke-width="1.51" d="M2121.5,30.2l-25,143l208-121L2121.5,30.2z"/>
	<path fill="#0B303D" stroke="#0B303D" stroke-width="1.51" d="M2121.5,1246.2l156,31l28-143L2121.5,1246.2z"/>
	<path fill="#0B2C37" stroke="#0B2C37" stroke-width="1.51" d="M2277.5,1277.2l-125,116l167-26L2277.5,1277.2z"/>
	<path fill="#104051" stroke="#104051" stroke-width="1.51" d="M2102.5,769.2l39,203l107-8L2102.5,769.2z"/>
	<path fill="#0F3F50" stroke="#0F3F50" stroke-width="1.51" d="M2185.5,601.2l-83,168l199-1L2185.5,601.2z"/>
	<path fill="#0D3543" stroke="#0D3543" stroke-width="1.51" d="M2189.5,1051.2l-68,195l184-112L2189.5,1051.2z"/>
	<path fill="#0A2D38" stroke="#0A2D38" stroke-width="1.51" d="M1857.5,1542.2h-112l247,35L1857.5,1542.2z"/>
	<path fill="#0D3B4B" stroke="#0D3B4B" stroke-width="1.51" d="M2186.5,537.2l-1,64l94,13L2186.5,537.2z"/>
	<path fill="#082A36" stroke="#082A36" stroke-width="1.51" d="M2121.5,1246.2l31,147l125-116L2121.5,1246.2z"/>
	<path fill="#09303D" stroke="#09303D" stroke-width="1.51" d="M2132.5,346.2l112,123l24-86L2132.5,346.2z"/>
	<path fill="#11404F" stroke="#11404F" stroke-width="1.51" d="M2141.5,972.2l48,79l59-87L2141.5,972.2z"/>
	<path fill="#0A3240" stroke="#0A3240" stroke-width="1.51" d="M2132.5,346.2l54,191l58-68L2132.5,346.2z"/>
	<path fill="#052935" stroke="#052935" stroke-width="1.51" d="M2096.5,173.2l-48,135l84,38L2096.5,173.2z"/>
	<path fill="#0E4051" stroke="#0E4051" stroke-width="1.51" d="M2102.5,769.2l-84,206l123-3L2102.5,769.2z"/>
	<path fill="#0A2C37" stroke="#0A2C37" stroke-width="1.51" d="M1952.5,1446.2l40,131l160-184L1952.5,1446.2z"/>
	<path fill="#0A3D4F" stroke="#0A3D4F" stroke-width="1.51" d="M1970.5,665.2l132,104l83-168L1970.5,665.2z"/>
	<path fill="#0A3747" stroke="#0A3747" stroke-width="1.51" d="M2044.5,473.2l141,128l1-64L2044.5,473.2z"/>
	<path fill="#083240" stroke="#083240" stroke-width="1.51" d="M2132.5,346.2l-88,127l142,64L2132.5,346.2z"/>
	<path fill="#0E2D38" stroke="#0E2D38" stroke-width="1.51" d="M2152.5,1393.2l-160,184l194-24L2152.5,1393.2z"/>
	<path fill="#093644" stroke="#093644" stroke-width="1.51" d="M1948.5,1074.2l173,172l68-195L1948.5,1074.2z"/>
	<path fill="#0F3F4F" stroke="#0F3F4F" stroke-width="1.51" d="M2141.5,972.2l-123,3l171,76L2141.5,972.2z"/>
	<path fill="#0B3C4B" stroke="#0B3C4B" stroke-width="1.51" d="M2018.5,975.2l-70,99l241-23L2018.5,975.2z"/>
	<path fill="#07394A" stroke="#07394A" stroke-width="1.51" d="M2044.5,473.2l-74,192l215-64L2044.5,473.2z"/>
	<path fill="#042833" stroke="#042833" stroke-width="1.51" d="M2035.5,204.2l13,104l48-135L2035.5,204.2z"/>
	<path fill="#0B3E50" stroke="#0B3E50" stroke-width="1.51" d="M1961.5,833.2l57,142l84-206L1961.5,833.2z"/>
	<path fill="#05303D" stroke="#05303D" stroke-width="1.51" d="M1948.5,1074.2l78,195l95-23L1948.5,1074.2z"/>
	<path fill="#052530" stroke="#052530" stroke-width="1.51" d="M2022.5,51.2l74,122l25-143L2022.5,51.2z"/>
	<path fill="#052A36" stroke="#052A36" stroke-width="1.51" d="M2121.5,1246.2l-95,23l126,124L2121.5,1246.2z"/>
	<path fill="#062A36" stroke="#062A36" stroke-width="1.51" d="M2026.5,1269.2l-74,177l200-53L2026.5,1269.2z"/>
	<path fill="#052D3B" stroke="#052D3B" stroke-width="1.51" d="M2048.5,308.2l-4,165l88-127L2048.5,308.2z"/>
	<path fill="#022531" stroke="#022531" stroke-width="1.51" d="M1744.5,40.2l69,41l209-30L1744.5,40.2z"/>
	<path fill="#052631" stroke="#052631" stroke-width="1.51" d="M2022.5,51.2l13,153l61-31L2022.5,51.2z"/>
	<path fill="#083D4F" stroke="#083D4F" stroke-width="1.51" d="M1970.5,665.2l-9,168l141-64L1970.5,665.2z"/>
	<path fill="#043748" stroke="#043748" stroke-width="1.51" d="M1892.5,542.2l78,123l74-192L1892.5,542.2z"/>
	<path fill="#03303E" stroke="#03303E" stroke-width="1.51" d="M1948.5,1074.2l-104,139l182,56L1948.5,1074.2z"/>
	<path fill="#042936" stroke="#042936" stroke-width="1.51" d="M1898.5,1389.2l54,57l74-177L1898.5,1389.2z"/>
	<path fill="#002734" stroke="#002734" stroke-width="1.51" d="M1795.5,227.2l80,159l160-182L1795.5,227.2z"/>
	<path fill="#022530" stroke="#022530" stroke-width="1.51" d="M2022.5,51.2l-209,30l222,123L2022.5,51.2z"/>
	<path fill="#032D3B" stroke="#032D3B" stroke-width="1.51" d="M1875.5,386.2l169,87l4-165L1875.5,386.2z"/>
	<path fill="#022936" stroke="#022936" stroke-width="1.51" d="M2035.5,204.2l-160,182l173-78L2035.5,204.2z"/>
	<path fill="#053C4F" stroke="#053C4F" stroke-width="1.51" d="M1886.5,785.2l75,48l9-168L1886.5,785.2z"/>
	<path fill="#023141" stroke="#023141" stroke-width="1.51" d="M1875.5,386.2l17,156l152-69L1875.5,386.2z"/>
	<path fill="#083F51" stroke="#083F51" stroke-width="1.51" d="M1961.5,833.2l-60,140l117,2L1961.5,833.2z"/>
	<path fill="#012632" stroke="#012632" stroke-width="1.51" d="M1813.5,81.2l-18,146l240-23L1813.5,81.2z"/>
	<path fill="#083C4D" stroke="#083C4D" stroke-width="1.51" d="M1901.5,973.2l47,101l70-99L1901.5,973.2z"/>
	<path fill="#012935" stroke="#012935" stroke-width="1.51" d="M1844.5,1213.2l54,176l128-120L1844.5,1213.2z"/>
	<path fill="#0A2B36" stroke="#0A2B36" stroke-width="1.51" d="M1952.5,1446.2l-95,96l135,35L1952.5,1446.2z"/>
	<path fill="#043647" stroke="#043647" stroke-width="1.51" d="M775.5,55.2l198,13l129-12L775.5,55.2z"/>
	<path fill="#033444" stroke="#033444" stroke-width="1.51" d="M1813.5,1095.2l31,118l104-139L1813.5,1095.2z"/>
	<path fill="#063D50" stroke="#063D50" stroke-width="1.51" d="M1886.5,785.2l15,188l60-140L1886.5,785.2z"/>
	<path fill="#013A4D" stroke="#013A4D" stroke-width="1.51" d="M1892.5,542.2l-92,112l170,11L1892.5,542.2z"/>
	<path fill="#023C4E" stroke="#023C4E" stroke-width="1.51" d="M1800.5,654.2l86,131l84-120L1800.5,654.2z"/>
	<path fill="#043A4A" stroke="#043A4A" stroke-width="1.51" d="M1901.5,973.2l-88,122l135-21L1901.5,973.2z"/>
	<path fill="#062A36" stroke="#062A36" stroke-width="1.51" d="M1898.5,1389.2l-41,153l95-96L1898.5,1389.2z"/>
	<path fill="#023647" stroke="#023647" stroke-width="1.51" d="M1875.5,386.2l-225,149l242,7L1875.5,386.2z"/>
	<path fill="#092D39" stroke="#092D39" stroke-width="1.51" d="M1745.5,1542.2h112l41-153L1745.5,1542.2z"/>
	<path fill="#07303D" stroke="#07303D" stroke-width="1.51" d="M1662.5,1405.2l83,137l153-153L1662.5,1405.2z"/>
	<path fill="#002B39" stroke="#002B39" stroke-width="1.51" d="M1844.5,1213.2l-110,70l164,106L1844.5,1213.2z"/>
	<path fill="#064154" stroke="#064154" stroke-width="1.51" d="M1886.5,785.2l-191,163l206,25L1886.5,785.2z"/>
	<path fill="#074053" stroke="#074053" stroke-width="1.51" d="M1695.5,948.2l118,147l88-122L1695.5,948.2z"/>
	<path fill="#074154" stroke="#074154" stroke-width="1.51" d="M1695.5,948.2l16,111l102,36L1695.5,948.2z"/>
	<path fill="#042F3D" stroke="#042F3D" stroke-width="1.51" d="M1734.5,1283.2l-72,122l236-16L1734.5,1283.2z"/>
	<path fill="#074458" stroke="#074458" stroke-width="1.51" d="M1647.5,744.2l48,204l191-163L1647.5,744.2z"/>
	<path fill="#033E51" stroke="#033E51" stroke-width="1.51" d="M1745.5,654.2h55l92-112L1745.5,654.2z"/>
	<path fill="#033D51" stroke="#033D51" stroke-width="1.51" d="M1650.5,535.2l95,119l147-112L1650.5,535.2z"/>
	<path fill="#044053" stroke="#044053" stroke-width="1.51" d="M1800.5,654.2h-55l141,131L1800.5,654.2z"/>
	<path fill="#054256" stroke="#054256" stroke-width="1.51" d="M1745.5,654.2l-98,90l239,41L1745.5,654.2z"/>
	<path fill="#012D3C" stroke="#012D3C" stroke-width="1.51" d="M1795.5,227.2l-142,73l222,86L1795.5,227.2z"/>
	<path fill="#023546" stroke="#023546" stroke-width="1.51" d="M1653.5,300.2l-3,235l225-149L1653.5,300.2z"/>
	<path fill="#022B38" stroke="#022B38" stroke-width="1.51" d="M1703.5,176.2l92,51l18-146L1703.5,176.2z"/>
	<path fill="#023342" stroke="#023342" stroke-width="1.51" d="M1813.5,1095.2l-79,188l110-70L1813.5,1095.2z"/>
	<path fill="#032A38" stroke="#032A38" stroke-width="1.51" d="M1744.5,40.2l-41,136l110-95L1744.5,40.2z"/>
	<path fill="#043949" stroke="#043949" stroke-width="1.51" d="M1711.5,1059.2l23,224l79-188L1711.5,1059.2z"/>
	<path fill="#022F3D" stroke="#022F3D" stroke-width="1.51" d="M1703.5,176.2l-50,124l142-73L1703.5,176.2z"/>
	<path fill="#033A4B" stroke="#033A4B" stroke-width="1.51" d="M1538.5,340.2l112,195l3-235L1538.5,340.2z"/>
	<path fill="#063D4F" stroke="#063D4F" stroke-width="1.51" d="M1711.5,1059.2l-136,10l159,214L1711.5,1059.2z"/>
	<path fill="#053B4C" stroke="#053B4C" stroke-width="1.51" d="M1575.5,1069.2l-60,204l219,10L1575.5,1069.2z"/>
	<path fill="#042E3D" stroke="#042E3D" stroke-width="1.51" d="M1539.5,2.2l164,174l41-136L1539.5,2.2z"/>
	<path fill="#05455A" stroke="#05455A" stroke-width="1.51" d="M1650.5,535.2l-60,140l155-21L1650.5,535.2z"/>
	<path fill="#06465C" stroke="#06465C" stroke-width="1.51" d="M1590.5,675.2l57,69l98-90L1590.5,675.2z"/>
	<path fill="#0D3745" stroke="#0D3745" stroke-width="1.51" d="M1662.5,1405.2l-168,202l251-65L1662.5,1405.2z"/>
	<path fill="#054052" stroke="#054052" stroke-width="1.51" d="M1538.5,340.2l-10,151l122,44L1538.5,340.2z"/>
	<path fill="#09495E" stroke="#09495E" stroke-width="1.51" d="M1647.5,744.2h-63l111,204L1647.5,744.2z"/>
	<path fill="#043444" stroke="#043444" stroke-width="1.51" d="M1515.5,1273.2l147,132l72-122L1515.5,1273.2z"/>
	<path fill="#0D3A49" stroke="#0D3A49" stroke-width="1.51" d="M1523.5,1402.2l-29,205l168-202L1523.5,1402.2z"/>
	<path fill="#0C4C61" stroke="#0C4C61" stroke-width="1.51" d="M1584.5,744.2l-58,207l169-3L1584.5,744.2z"/>
	<path fill="#033242" stroke="#033242" stroke-width="1.51" d="M1568.5,230.2l85,70l50-124L1568.5,230.2z"/>
	<path fill="#053341" stroke="#053341" stroke-width="1.51" d="M1539.5,2.2l29,228l135-54L1539.5,2.2z"/>
	<path fill="#0A4659" stroke="#0A4659" stroke-width="1.51" d="M1695.5,948.2l-120,121l136-10L1695.5,948.2z"/>
	<path fill="#0C4B60" stroke="#0C4B60" stroke-width="1.51" d="M1526.5,951.2l49,118l120-121L1526.5,951.2z"/>
	<path fill="#063645" stroke="#063645" stroke-width="1.51" d="M1539.5,2.2l-90,98l119,130L1539.5,2.2z"/>
	<path fill="#073848" stroke="#073848" stroke-width="1.51" d="M1515.5,1273.2l8,129l139,3L1515.5,1273.2z"/>
	<path fill="#08495F" stroke="#08495F" stroke-width="1.51" d="M1590.5,675.2l-6,69h63L1590.5,675.2z"/>
	<path fill="#06455A" stroke="#06455A" stroke-width="1.51" d="M1528.5,491.2l62,184l60-140L1528.5,491.2z"/>
	<path fill="#033646" stroke="#033646" stroke-width="1.51" d="M1568.5,230.2l-30,110l115-40L1568.5,230.2z"/>
	<path fill="#0A2B36" stroke="#0A2B36" stroke-width="1.51" d="M502.5,1552.2l-452,17l644,25L502.5,1552.2z"/>
	<path fill="#164353" stroke="#164353" stroke-width="1.51" d="M1368.5,1571.2l-83,16l209,20L1368.5,1571.2z"/>
	<path fill="#073949" stroke="#073949" stroke-width="1.51" d="M1449.5,100.2l-16,90l135,40L1449.5,100.2z"/>
	<path fill="#0A4659" stroke="#0A4659" stroke-width="1.51" d="M1393.5,1093.2l122,180l60-204L1393.5,1093.2z"/>
	<path fill="#0D5167" stroke="#0D5167" stroke-width="1.51" d="M1367.5,761.2l159,190l58-207L1367.5,761.2z"/>
	<path fill="#0A4E64" stroke="#0A4E64" stroke-width="1.51" d="M1378.5,670.2l206,74l6-69L1378.5,670.2z"/>
	<path fill="#094C63" stroke="#094C63" stroke-width="1.51" d="M1528.5,491.2l-150,179l212,5L1528.5,491.2z"/>
	<path fill="#094C62" stroke="#094C62" stroke-width="1.51" d="M1402.5,494.2l-24,176l150-179L1402.5,494.2z"/>
	<path fill="#0C526A" stroke="#0C526A" stroke-width="1.51" d="M1378.5,670.2l-11,91l217-17L1378.5,670.2z"/>
	<path fill="#0F3F4E" stroke="#0F3F4E" stroke-width="1.51" d="M1398.5,1414.2l96,193l29-205L1398.5,1414.2z"/>
	<path fill="#053A4A" stroke="#053A4A" stroke-width="1.51" d="M1444.5,324.2l94,16l30-110L1444.5,324.2z"/>
	<path fill="#0E4D62" stroke="#0E4D62" stroke-width="1.51" d="M1526.5,951.2l-133,142l182-24L1526.5,951.2z"/>
	<path fill="#053F51" stroke="#053F51" stroke-width="1.51" d="M1444.5,324.2l84,167l10-151L1444.5,324.2z"/>
	<path fill="#063A4B" stroke="#063A4B" stroke-width="1.51" d="M1433.5,190.2l11,134l124-94L1433.5,190.2z"/>
	<path fill="#134152" stroke="#134152" stroke-width="1.51" d="M1398.5,1414.2l-30,157l126,36L1398.5,1414.2z"/>
	<path fill="#0A465A" stroke="#0A465A" stroke-width="1.51" d="M1393.5,1093.2l-50,116l172,64L1393.5,1093.2z"/>
	<path fill="#093D4D" stroke="#093D4D" stroke-width="1.51" d="M1515.5,1273.2l-117,141l125-12L1515.5,1273.2z"/>
	<path fill="#10556C" stroke="#10556C" stroke-width="1.51" d="M1367.5,761.2l22,213l137-23L1367.5,761.2z"/>
	<path fill="#105369" stroke="#105369" stroke-width="1.51" d="M1389.5,974.2l4,119l133-142L1389.5,974.2z"/>
	<path fill="#074458" stroke="#074458" stroke-width="1.51" d="M1444.5,324.2l-42,170l126-3L1444.5,324.2z"/>
	<path fill="#093949" stroke="#093949" stroke-width="1.51" d="M1268.5,31.2l181,69l90-98L1268.5,31.2z"/>
	<path fill="#063F50" stroke="#063F50" stroke-width="1.51" d="M1343.5,1209.2l55,205l117-141L1343.5,1209.2z"/>
	<path fill="#0F556D" stroke="#0F556D" stroke-width="1.51" d="M1367.5,761.2l-77,96l99,117L1367.5,761.2z"/>
	<path fill="#08465A" stroke="#08465A" stroke-width="1.51" d="M1259.5,475.2l143,19l42-170L1259.5,475.2z"/>
	<path fill="#064254" stroke="#064254" stroke-width="1.51" d="M1215.5,308.2l44,167l185-151L1215.5,308.2z"/>
	<path fill="#073D4F" stroke="#073D4F" stroke-width="1.51" d="M1433.5,190.2l-211,43l222,91L1433.5,190.2z"/>
	<path fill="#053D4F" stroke="#053D4F" stroke-width="1.51" d="M1222.5,233.2l-7,75l229,16L1222.5,233.2z"/>
	<path fill="#083B4B" stroke="#083B4B" stroke-width="1.51" d="M1268.5,31.2l165,159l16-90L1268.5,31.2z"/>
	<path fill="#063F51" stroke="#063F51" stroke-width="1.51" d="M1343.5,1209.2l-94,20l149,185L1343.5,1209.2z"/>
	<path fill="#094C63" stroke="#094C63" stroke-width="1.51" d="M1259.5,475.2l119,195l24-176L1259.5,475.2z"/>
	<path fill="#073B4B" stroke="#073B4B" stroke-width="1.51" d="M1268.5,31.2l-46,202l211-43L1268.5,31.2z"/>
	<path fill="#084F66" stroke="#084F66" stroke-width="1.51" d="M1259.5,475.2l-31,170l150,25L1259.5,475.2z"/>
	<path fill="#10556C" stroke="#10556C" stroke-width="1.51" d="M1290.5,857.2l-41,45l140,72L1290.5,857.2z"/>
	<path fill="#0F5166" stroke="#0F5166" stroke-width="1.51" d="M1389.5,974.2l-86,87l90,32L1389.5,974.2z"/>
	<path fill="#0B4B5F" stroke="#0B4B5F" stroke-width="1.51" d="M1303.5,1061.2l40,148l50-116L1303.5,1061.2z"/>
	<path fill="#083F50" stroke="#083F50" stroke-width="1.51" d="M1249.5,1229.2l-45,195l194-10L1249.5,1229.2z"/>
	<path fill="#124152" stroke="#124152" stroke-width="1.51" d="M1285.5,1587.2l83-16l30-157L1285.5,1587.2z"/>
	<path fill="#104051" stroke="#104051" stroke-width="1.51" d="M1204.5,1424.2l81,163l113-173L1204.5,1424.2z"/>
	<path fill="#10556C" stroke="#10556C" stroke-width="1.51" d="M1249.5,902.2l54,159l86-87L1249.5,902.2z"/>
	<path fill="#0B526A" stroke="#0B526A" stroke-width="1.51" d="M1228.5,645.2l139,116l11-91L1228.5,645.2z"/>
	<path fill="#09475B" stroke="#09475B" stroke-width="1.51" d="M1303.5,1061.2l-54,168l94-20L1303.5,1061.2z"/>
	<path fill="#0C536B" stroke="#0C536B" stroke-width="1.51" d="M1228.5,645.2l62,212l77-96L1228.5,645.2z"/>
	<path fill="#074D64" stroke="#074D64" stroke-width="1.51" d="M1149.5,601.2l79,44l31-170L1149.5,601.2z"/>
	<path fill="#06394A" stroke="#06394A" stroke-width="1.51" d="M1102.5,56.2l120,177l46-202L1102.5,56.2z"/>
	<path fill="#114051" stroke="#114051" stroke-width="1.51" d="M1204.5,1424.2l-70,155l151,8L1204.5,1424.2z"/>
	<path fill="#0A526A" stroke="#0A526A" stroke-width="1.51" d="M1228.5,645.2l-118,100l180,112L1228.5,645.2z"/>
	<path fill="#09485D" stroke="#09485D" stroke-width="1.51" d="M1121.5,1119.2l128,110l54-168L1121.5,1119.2z"/>
	<path fill="#0B4E64" stroke="#0B4E64" stroke-width="1.51" d="M1138.5,1001.2l-17,118l182-58L1138.5,1001.2z"/>
	<path fill="#0F546A" stroke="#0F546A" stroke-width="1.51" d="M1249.5,902.2l-111,99l165,60L1249.5,902.2z"/>
	<path fill="#053D4F" stroke="#053D4F" stroke-width="1.51" d="M1094.5,1294.2l110,130l45-195L1094.5,1294.2z"/>
	<path fill="#0D536B" stroke="#0D536B" stroke-width="1.51" d="M1110.5,745.2l139,157l41-45L1110.5,745.2z"/>
	<path fill="#054458" stroke="#054458" stroke-width="1.51" d="M1215.5,308.2l-95,165l139,2L1215.5,308.2z"/>
	<path fill="#053A4B" stroke="#053A4B" stroke-width="1.51" d="M1102.5,56.2l-30,147l150,30L1102.5,56.2z"/>
	<path fill="#05495F" stroke="#05495F" stroke-width="1.51" d="M1120.5,473.2l29,128l110-126L1120.5,473.2z"/>
	<path fill="#044054" stroke="#044054" stroke-width="1.51" d="M1096.5,317.2l24,156l95-165L1096.5,317.2z"/>
	<path fill="#054256" stroke="#054256" stroke-width="1.51" d="M1121.5,1119.2l-27,175l155-65L1121.5,1119.2z"/>
	<path fill="#0D536B" stroke="#0D536B" stroke-width="1.51" d="M1110.5,745.2l28,256l111-99L1110.5,745.2z"/>
	<path fill="#043C4F" stroke="#043C4F" stroke-width="1.51" d="M1096.5,317.2l119-9l7-75L1096.5,317.2z"/>
	<path fill="#075069" stroke="#075069" stroke-width="1.51" d="M1149.5,601.2l-39,144l118-100L1149.5,601.2z"/>
	<path fill="#103E4F" stroke="#103E4F" stroke-width="1.51" d="M1000.5,1502.2l-306,92l440-15L1000.5,1502.2z"/>
	<path fill="#073D4F" stroke="#073D4F" stroke-width="1.51" d="M1094.5,1294.2l-43,81l153,49L1094.5,1294.2z"/>
	<path fill="#043B4D" stroke="#043B4D" stroke-width="1.51" d="M1072.5,203.2l24,114l126-84L1072.5,203.2z"/>
	<path fill="#0F3F50" stroke="#0F3F50" stroke-width="1.51" d="M1000.5,1502.2l134,77l70-155L1000.5,1502.2z"/>
	<path fill="#0A526A" stroke="#0A526A" stroke-width="1.51" d="M1110.5,745.2l-152,54l180,202L1110.5,745.2z"/>
	<path fill="#0B3E4F" stroke="#0B3E4F" stroke-width="1.51" d="M1051.5,1375.2l-51,127l204-78L1051.5,1375.2z"/>
	<path fill="#0E3949" stroke="#0E3949" stroke-width="1.51" d="M757.5,1535.2l-63,59l306-92L757.5,1535.2z"/>
	<path fill="#0C536A" stroke="#0C536A" stroke-width="1.51" d="M958.5,799.2l22,193l158,9L958.5,799.2z"/>
	<path fill="#0A4D63" stroke="#0A4D63" stroke-width="1.51" d="M990.5,1045.2l131,74l17-118L990.5,1045.2z"/>
	<path fill="#065069" stroke="#065069" stroke-width="1.51" d="M999.5,694.2l111,51l39-144L999.5,694.2z"/>
	<path fill="#054960" stroke="#054960" stroke-width="1.51" d="M1120.5,473.2l-149,66l178,62L1120.5,473.2z"/>
	<path fill="#044D66" stroke="#044D66" stroke-width="1.51" d="M971.5,539.2l28,155l150-93L971.5,539.2z"/>
	<path fill="#04384A" stroke="#04384A" stroke-width="1.51" d="M998.5,178.2l74,25l30-147L998.5,178.2z"/>
	<path fill="#034155" stroke="#034155" stroke-width="1.51" d="M1096.5,317.2l-154,81l178,75L1096.5,317.2z"/>
	<path fill="#044053" stroke="#044053" stroke-width="1.51" d="M913.5,1303.2l181-9l27-175L913.5,1303.2z"/>
	<path fill="#05455A" stroke="#05455A" stroke-width="1.51" d="M990.5,1045.2l-77,258l208-184L990.5,1045.2z"/>
	<path fill="#0B5067" stroke="#0B5067" stroke-width="1.51" d="M980.5,992.2l10,53l148-44L980.5,992.2z"/>
	<path fill="#043748" stroke="#043748" stroke-width="1.51" d="M973.5,68.2l25,110l104-122L973.5,68.2z"/>
	<path fill="#03445A" stroke="#03445A" stroke-width="1.51" d="M942.5,398.2l29,141l149-66L942.5,398.2z"/>
	<path fill="#075068" stroke="#075068" stroke-width="1.51" d="M999.5,694.2l-41,105l152-54L999.5,694.2z"/>
	<path fill="#033A4C" stroke="#033A4C" stroke-width="1.51" d="M1072.5,203.2l-74-25l98,139L1072.5,203.2z"/>
	<path fill="#022430" stroke="#022430" stroke-width="1.51" d="M310.5,62.2l236,12l55-10L310.5,62.2z"/>
	<path fill="#023B4E" stroke="#023B4E" stroke-width="1.51" d="M998.5,178.2l-56,220l154-81L998.5,178.2z"/>
	<path fill="#053C4F" stroke="#053C4F" stroke-width="1.51" d="M971.5,1368.2l80,7l43-81L971.5,1368.2z"/>
	<path fill="#033C4E" stroke="#033C4E" stroke-width="1.51" d="M913.5,1303.2l58,65l123-74L913.5,1303.2z"/>
	<path fill="#05445A" stroke="#05445A" stroke-width="1.51" d="M842.5,1079.2l71,224l77-258L842.5,1079.2z"/>
	<path fill="#093D4E" stroke="#093D4E" stroke-width="1.51" d="M971.5,1368.2l29,134l51-127L971.5,1368.2z"/>
	<path fill="#0A2933" stroke="#0A2933" stroke-width="1.51" d="M209.5,1530.2l-159,39l452-17L209.5,1530.2z"/>
	<path fill="#033E51" stroke="#033E51" stroke-width="1.51" d="M842.5,1079.2l-41,131l112,93L842.5,1079.2z"/>
	<path fill="#0A5269" stroke="#0A5269" stroke-width="1.51" d="M958.5,799.2l-109,187l131,6L958.5,799.2z"/>
	<path fill="#013A4C" stroke="#013A4C" stroke-width="1.51" d="M798.5,343.2l144,55l56-220L798.5,343.2z"/>
	<path fill="#033647" stroke="#033647" stroke-width="1.51" d="M973.5,68.2l-229,81l254,29L973.5,68.2z"/>
	<path fill="#013647" stroke="#013647" stroke-width="1.51" d="M744.5,149.2l54,194l200-165L744.5,149.2z"/>
	<path fill="#064F68" stroke="#064F68" stroke-width="1.51" d="M831.5,774.2l127,25l41-105L831.5,774.2z"/>
	<path fill="#044D65" stroke="#044D65" stroke-width="1.51" d="M846.5,630.2l-15,144l168-80L846.5,630.2z"/>
	<path fill="#034D66" stroke="#034D66" stroke-width="1.51" d="M971.5,539.2l-125,91l153,64L971.5,539.2z"/>
	<path fill="#083C4E" stroke="#083C4E" stroke-width="1.51" d="M971.5,1368.2l-140,9l169,125L971.5,1368.2z"/>
	<path fill="#0A3A4B" stroke="#0A3A4B" stroke-width="1.51" d="M831.5,1377.2l-74,158l243-33L831.5,1377.2z"/>
	<path fill="#02455A" stroke="#02455A" stroke-width="1.51" d="M942.5,398.2l-100,131l129,10L942.5,398.2z"/>
	<path fill="#023242" stroke="#023242" stroke-width="1.51" d="M775.5,55.2l-31,94l229-81L775.5,55.2z"/>
	<path fill="#094F67" stroke="#094F67" stroke-width="1.51" d="M980.5,992.2l-131-6l141,59L980.5,992.2z"/>
	<path fill="#084B62" stroke="#084B62" stroke-width="1.51" d="M849.5,986.2l-7,93l148-34L849.5,986.2z"/>
	<path fill="#074E66" stroke="#074E66" stroke-width="1.51" d="M831.5,774.2l18,212l109-187L831.5,774.2z"/>
	<path fill="#02485F" stroke="#02485F" stroke-width="1.51" d="M842.5,529.2l4,101l125-91L842.5,529.2z"/>
	<path fill="#043A4C" stroke="#043A4C" stroke-width="1.51" d="M913.5,1303.2l-82,74l140-9L913.5,1303.2z"/>
	<path fill="#013E52" stroke="#013E52" stroke-width="1.51" d="M798.5,343.2l44,186l100-131L798.5,343.2z"/>
	<path fill="#013749" stroke="#013749" stroke-width="1.51" d="M801.5,1210.2l30,167l82-74L801.5,1210.2z"/>
	<path fill="#013141" stroke="#013141" stroke-width="1.51" d="M744.5,149.2l-84,50l138,144L744.5,149.2z"/>
	<path fill="#06475C" stroke="#06475C" stroke-width="1.51" d="M599.5,826.2l23,158l209-210L599.5,826.2z"/>
	<path fill="#003545" stroke="#003545" stroke-width="1.51" d="M801.5,1210.2l-153,52l183,115L801.5,1210.2z"/>
	<path fill="#013A4D" stroke="#013A4D" stroke-width="1.51" d="M798.5,343.2l-116,40l160,146L798.5,343.2z"/>
	<path fill="#013B4D" stroke="#013B4D" stroke-width="1.51" d="M682.5,383.2l-33,66l193,80L682.5,383.2z"/>
	<path fill="#054055" stroke="#054055" stroke-width="1.51" d="M663.5,1053.2l138,157l41-131L663.5,1053.2z"/>
	<path fill="#02455C" stroke="#02455C" stroke-width="1.51" d="M842.5,529.2l-190,122l194-21L842.5,529.2z"/>
	<path fill="#03485F" stroke="#03485F" stroke-width="1.51" d="M652.5,651.2l179,123l15-144L652.5,651.2z"/>
	<path fill="#084B61" stroke="#084B61" stroke-width="1.51" d="M831.5,774.2l-209,210l227,2L831.5,774.2z"/>
	<path fill="#07475C" stroke="#07475C" stroke-width="1.51" d="M663.5,1053.2l179,26l7-93L663.5,1053.2z"/>
	<path fill="#07465A" stroke="#07465A" stroke-width="1.51" d="M622.5,984.2l41,69l186-67L622.5,984.2z"/>
	<path fill="#083544" stroke="#083544" stroke-width="1.51" d="M640.5,1432.2l117,103l74-158L640.5,1432.2z"/>
	<path fill="#013F53" stroke="#013F53" stroke-width="1.51" d="M649.5,449.2l3,202l190-122L649.5,449.2z"/>
	<path fill="#04455B" stroke="#04455B" stroke-width="1.51" d="M652.5,651.2l-53,175l232-52L652.5,651.2z"/>
	<path fill="#033242" stroke="#033242" stroke-width="1.51" d="M648.5,1262.2l-8,170l191-55L648.5,1262.2z"/>
	<path fill="#003242" stroke="#003242" stroke-width="1.51" d="M660.5,199.2l22,184l116-40L660.5,199.2z"/>
	<path fill="#033A4B" stroke="#033A4B" stroke-width="1.51" d="M663.5,1053.2l-15,209l153-52L663.5,1053.2z"/>
	<path fill="#022E3C" stroke="#022E3C" stroke-width="1.51" d="M601.5,64.2l143,85l31-94L601.5,64.2z"/>
	<path fill="#0B3443" stroke="#0B3443" stroke-width="1.51" d="M640.5,1432.2l54,162l63-59L640.5,1432.2z"/>
	<path fill="#022D3C" stroke="#022D3C" stroke-width="1.51" d="M601.5,64.2l59,135l84-50L601.5,64.2z"/>
	<path fill="#032F3D" stroke="#032F3D" stroke-width="1.51" d="M539.5,1413.2l101,19l8-170L539.5,1413.2z"/>
	<path fill="#013A4D" stroke="#013A4D" stroke-width="1.51" d="M649.5,449.2l-98,26l101,176L649.5,449.2z"/>
	<path fill="#012A38" stroke="#012A38" stroke-width="1.51" d="M512.5,188.2l-28,169l176-158L512.5,188.2z"/>
	<path fill="#023546" stroke="#023546" stroke-width="1.51" d="M489.5,1219.2l159,43l15-209L489.5,1219.2z"/>
	<path fill="#033849" stroke="#033849" stroke-width="1.51" d="M498.5,1071.2l-9,148l174-166L498.5,1071.2z"/>
	<path fill="#002E3D" stroke="#002E3D" stroke-width="1.51" d="M660.5,199.2l-176,158l198,26L660.5,199.2z"/>
	<path fill="#0B313E" stroke="#0B313E" stroke-width="1.51" d="M640.5,1432.2l-138,120l192,42L640.5,1432.2z"/>
	<path fill="#064457" stroke="#064457" stroke-width="1.51" d="M599.5,826.2l-62,117l85,41L599.5,826.2z"/>
	<path fill="#003343" stroke="#003343" stroke-width="1.51" d="M484.5,357.2l165,92l33-66L484.5,357.2z"/>
	<path fill="#012835" stroke="#012835" stroke-width="1.51" d="M546.5,74.2l-34,114l89-124L546.5,74.2z"/>
	<path fill="#072E3B" stroke="#072E3B" stroke-width="1.51" d="M539.5,1413.2l-37,139l138-120L539.5,1413.2z"/>
	<path fill="#003243" stroke="#003243" stroke-width="1.51" d="M484.5,357.2l67,118l98-26L484.5,357.2z"/>
	<path fill="#013B4E" stroke="#013B4E" stroke-width="1.51" d="M551.5,475.2l-109,127l210,49L551.5,475.2z"/>
	<path fill="#034155" stroke="#034155" stroke-width="1.51" d="M463.5,823.2l136,3l53-175L463.5,823.2z"/>
	<path fill="#023E51" stroke="#023E51" stroke-width="1.51" d="M442.5,602.2l21,221l189-172L442.5,602.2z"/>
	<path fill="#012A38" stroke="#012A38" stroke-width="1.51" d="M601.5,64.2l-89,124l148,11L601.5,64.2z"/>
	<path fill="#064052" stroke="#064052" stroke-width="1.51" d="M622.5,984.2l-124,87l165-18L622.5,984.2z"/>
	<path fill="#002C3A" stroke="#002C3A" stroke-width="1.51" d="M489.5,1219.2l50,194l109-151L489.5,1219.2z"/>
	<path fill="#064053" stroke="#064053" stroke-width="1.51" d="M537.5,943.2l-39,128l124-87L537.5,943.2z"/>
	<path fill="#054154" stroke="#054154" stroke-width="1.51" d="M463.5,823.2l74,120l62-117L463.5,823.2z"/>
	<path fill="#023B4D" stroke="#023B4D" stroke-width="1.51" d="M442.5,602.2l-93,93l114,128L442.5,602.2z"/>
	<path fill="#002734" stroke="#002734" stroke-width="1.51" d="M364.5,1211.2l-15,236l140-228L364.5,1211.2z"/>
	<path fill="#092A35" stroke="#092A35" stroke-width="1.51" d="M402.5,1502.2l-193,28l293,22L402.5,1502.2z"/>
	<path fill="#022936" stroke="#022936" stroke-width="1.51" d="M489.5,1219.2l-140,228l190-34L489.5,1219.2z"/>
	<path fill="#082B38" stroke="#082B38" stroke-width="1.51" d="M402.5,1502.2l100,50l37-139L402.5,1502.2z"/>
	<path fill="#00303F" stroke="#00303F" stroke-width="1.51" d="M484.5,357.2l-120,144l187-26L484.5,357.2z"/>
	<path fill="#013445" stroke="#013445" stroke-width="1.51" d="M364.5,501.2l78,101l109-127L364.5,501.2z"/>
	<path fill="#002834" stroke="#002834" stroke-width="1.51" d="M372.5,334.2l112,23l28-169L372.5,334.2z"/>
	<path fill="#063D4E" stroke="#063D4E" stroke-width="1.51" d="M357.5,979.2l141,92l39-128L357.5,979.2z"/>
	<path fill="#012430" stroke="#012430" stroke-width="1.51" d="M310.5,62.2l202,126l34-114L310.5,62.2z"/>
	<path fill="#023241" stroke="#023241" stroke-width="1.51" d="M375.5,1152.2l114,67l9-148L375.5,1152.2z"/>
	<path fill="#02242F" stroke="#02242F" stroke-width="1.51" d="M310.5,62.2v85l202,41L310.5,62.2z"/>
	<path fill="#063E50" stroke="#063E50" stroke-width="1.51" d="M463.5,823.2l-106,156l180-36L463.5,823.2z"/>
	<path fill="#062935" stroke="#062935" stroke-width="1.51" d="M349.5,1447.2l53,55l137-89L349.5,1447.2z"/>
	<path fill="#012632" stroke="#012632" stroke-width="1.51" d="M310.5,147.2l62,187l140-146L310.5,147.2z"/>
	<path fill="#063D4F" stroke="#063D4F" stroke-width="1.51" d="M353.5,828.2l4,151l106-156L353.5,828.2z"/>
	<path fill="#002C3A" stroke="#002C3A" stroke-width="1.51" d="M372.5,334.2l-8,167l120-144L372.5,334.2z"/>
	<path fill="#043747" stroke="#043747" stroke-width="1.51" d="M357.5,979.2l18,173l123-81L357.5,979.2z"/>
	<path fill="#043B4E" stroke="#043B4E" stroke-width="1.51" d="M349.5,695.2l4,133l110-5L349.5,695.2z"/>
	<path fill="#012E3C" stroke="#012E3C" stroke-width="1.51" d="M375.5,1152.2l-11,59l125,8L375.5,1152.2z"/>
	<path fill="#013849" stroke="#013849" stroke-width="1.51" d="M364.5,501.2l-15,194l93-93L364.5,501.2z"/>
	<path fill="#023849" stroke="#023849" stroke-width="1.51" d="M241.5,651.2l108,44l15-194L241.5,651.2z"/>
	<path fill="#012632" stroke="#012632" stroke-width="1.51" d="M189.5,1303.2l160,144l15-236L189.5,1303.2z"/>
	<path fill="#012531" stroke="#012531" stroke-width="1.51" d="M310.5,147.2l-107,148l169,39L310.5,147.2z"/>
	<path fill="#012E3D" stroke="#012E3D" stroke-width="1.51" d="M219.5,512.2l145-11l8-167L219.5,512.2z"/>
	<path fill="#053645" stroke="#053645" stroke-width="1.51" d="M357.5,979.2l-141,81l159,92L357.5,979.2z"/>
	<path fill="#082933" stroke="#082933" stroke-width="1.51" d="M349.5,1447.2l-140,83l193-28L349.5,1447.2z"/>
	<path fill="#02232F" stroke="#02232F" stroke-width="1.51" d="M246.5,149.2l-43,146l107-148L246.5,149.2z"/>
	<path fill="#042632" stroke="#042632" stroke-width="1.51" d="M189.5,1303.2l-4,91l164,53L189.5,1303.2z"/>
	<path fill="#063C4D" stroke="#063C4D" stroke-width="1.51" d="M353.5,828.2l-116,109l120,42L353.5,828.2z"/>
	<path fill="#023344" stroke="#023344" stroke-width="1.51" d="M219.5,512.2l22,139l123-150L219.5,512.2z"/>
	<path fill="#012937" stroke="#012937" stroke-width="1.51" d="M203.5,295.2l16,217l153-178L203.5,295.2z"/>
	<path fill="#03313F" stroke="#03313F" stroke-width="1.51" d="M216.5,1060.2l148,151l11-59L216.5,1060.2z"/>
	<path fill="#03394C" stroke="#03394C" stroke-width="1.51" d="M349.5,695.2l-108-44l112,177L349.5,695.2z"/>
	<path fill="#053A4B" stroke="#053A4B" stroke-width="1.51" d="M241.5,651.2l-80,205l192-28L241.5,651.2z"/>
	<path fill="#022C3A" stroke="#022C3A" stroke-width="1.51" d="M216.5,1060.2l-27,243l175-92L216.5,1060.2z"/>
	<path fill="#073A4B" stroke="#073A4B" stroke-width="1.51" d="M237.5,937.2l-21,123l141-81L237.5,937.2z"/>
	<path fill="#063B4C" stroke="#063B4C" stroke-width="1.51" d="M161.5,856.2l76,81l116-109L161.5,856.2z"/>
	<path fill="#062732" stroke="#062732" stroke-width="1.51" d="M185.5,1394.2l24,136l140-83L185.5,1394.2z"/>
	<path fill="#032C39" stroke="#032C39" stroke-width="1.51" d="M80.5,1205.2l109,98l27-243L80.5,1205.2z"/>
	<path fill="#02212C" stroke="#02212C" stroke-width="1.51" d="M239.5,57.2l7,92l64-87L239.5,57.2z"/>
	<path fill="#02222D" stroke="#02222D" stroke-width="1.51" d="M310.5,62.2l-64,87l64-2V62.2z"/>
	<path fill="#04303E" stroke="#04303E" stroke-width="1.51" d="M76.5,1081.2l4,124l136-145L76.5,1081.2z"/>
	<path fill="#012835" stroke="#012835" stroke-width="1.51" d="M203.5,295.2l-99,31l115,186L203.5,295.2z"/>
	<path fill="#022B38" stroke="#022B38" stroke-width="1.51" d="M104.5,326.2l-39,122l154,64L104.5,326.2z"/>
	<path fill="#063747" stroke="#063747" stroke-width="1.51" d="M76.5,1081.2l140-21l21-123L76.5,1081.2z"/>
	<path fill="#053949" stroke="#053949" stroke-width="1.51" d="M84.5,802.2l77,54l80-205L84.5,802.2z"/>
	<path fill="#043748" stroke="#043748" stroke-width="1.51" d="M64.5,697.2l20,105l157-151L64.5,697.2z"/>
	<path fill="#033647" stroke="#033647" stroke-width="1.51" d="M219.5,512.2l-155,185l177-46L219.5,512.2z"/>
	<path fill="#02232E" stroke="#02232E" stroke-width="1.51" d="M65.5,221.2l138,74l43-146L65.5,221.2z"/>
	<path fill="#02202B" stroke="#02202B" stroke-width="1.51" d="M239.5,57.2l-177-24l184,116L239.5,57.2z"/>
	<path fill="#02212B" stroke="#02212B" stroke-width="1.51" d="M62.5,33.2l3,188l181-72L62.5,33.2z"/>
	<path fill="#083847" stroke="#083847" stroke-width="1.51" d="M11.5,978.2l65,103l161-144L11.5,978.2z"/>
	<path fill="#073A4A" stroke="#073A4A" stroke-width="1.51" d="M161.5,856.2l-150,122l226-41L161.5,856.2z"/>
	<path fill="#082631" stroke="#082631" stroke-width="1.51" d="M185.5,1394.2l-135,175l159-39L185.5,1394.2z"/>
	<path fill="#033141" stroke="#033141" stroke-width="1.51" d="M65.5,448.2l-1,249l155-185L65.5,448.2z"/>
	<path fill="#07262F" stroke="#07262F" stroke-width="1.51" d="M1.5,1438.2l49,131l135-175L1.5,1438.2z"/>
	<path fill="#01232F" stroke="#01232F" stroke-width="1.51" d="M65.5,221.2l39,105l99-31L65.5,221.2z"/>
	<path fill="#042530" stroke="#042530" stroke-width="1.51" d="M1.5,1438.2l184-44l4-91L1.5,1438.2z"/>
	<path fill="#02242F" stroke="#02242F" stroke-width="1.51" d="M80.5,1205.2l-79,233l188-135L80.5,1205.2z"/>
	<path fill="#073949" stroke="#073949" stroke-width="1.51" d="M84.5,802.2l-73,176l150-122L84.5,802.2z"/>
	<path fill="#022530" stroke="#022530" stroke-width="1.51" d="M65.5,221.2v227l39-122L65.5,221.2z"/>
	<path fill="#06313F" stroke="#06313F" stroke-width="1.51" d="M76.5,1081.2l-65-103l69,227L76.5,1081.2z"/>
	<path fill="#073748" stroke="#073748" stroke-width="1.51" d="M64.5,697.2l-53,281l73-176L64.5,697.2z"/>
	<path fill="#032835" stroke="#032835" stroke-width="1.51" d="M11.5,978.2l-10,460l79-233L11.5,978.2z"/>
	<path fill="#053647" stroke="#053647" stroke-width="1.51" d="M11.5,978.2l53-281l1-249L11.5,978.2z"/>
	<path fill="#03303F" stroke="#03303F" stroke-width="1.51" d="M11.5,978.2l54-530v-227L11.5,978.2z"/>
	<path fill="#032935" stroke="#032935" stroke-width="1.51" d="M62.5,33.2l-51,945l54-757L62.5,33.2z"/>
</g>
</svg>
