<!-- Generator: Adobe Illustrator 18.1.1, SVG Export Plug-In  -->
<svg version="1.1"
	 xmlns="http://www.w3.org/2000/svg" xmlns:xlink="http://www.w3.org/1999/xlink" xmlns:a="http://ns.adobe.com/AdobeSVGViewerExtensions/3.0/"
	 x="0px" y="0px" width="25px" height="20px" viewBox="0 0 25 20" enable-background="new 0 0 25 20" xml:space="preserve">
<defs>
</defs>
<g id="TabBar-Icons_1_">
	<g id="Hamburger-Round_1_">
		<path id="Hamburger_1_" d="M0,2c0-1.1,0.9-2,2-2h21c1.1,0,2,0.9,2,2c0,1.1-0.9,2-2,2H2C0.9,4,0,3.1,0,2L0,2z M0,10
			c0-1.1,0.9-2,2-2h21c1.1,0,2,0.9,2,2c0,1.1-0.9,2-2,2H2C0.9,12,0,11.1,0,10L0,10z M0,18c0-1.1,0.9-2,2-2h21c1.1,0,2,0.9,2,2
			c0,1.1-0.9,2-2,2H2C0.9,20,0,19.1,0,18L0,18z"/>
	</g>
</g>
</svg>
