<?xml version="1.0" encoding="utf-8"?>
<!DOCTYPE svg PUBLIC "-//W3C//DTD SVG 1.1//EN" "http://www.w3.org/Graphics/SVG/1.1/DTD/svg11.dtd">
<svg xmlns="http://www.w3.org/2000/svg" xmlns:xlink="http://www.w3.org/1999/xlink" style="display: none">
    <symbol id="svg-cursor" viewBox="0 0 112 158">
  <path d="M0 0h20v20H0zM23 0h20v20H23zM46 0h20v20H46zM69 0h20v20H69zM92 0h20v20H92zM0 23h20v20H0zM23 23h20v20H23zM46 23h20v20H46zM69 23h20v20H69zM92 23h20v20H92zM0 46h20v20H0zM23 46h20v20H23zM46 46h20v20H46zM69 46h20v20H69zM92 46h20v20H92zM0 69h20v20H0zM23 69h20v20H23zM46 69h20v20H46zM69 69h20v20H69zM92 69h20v20H92zM0 92h20v20H0zM23 92h20v20H23zM46 92h20v20H46zM69 92h20v20H69zM92 92h20v20H92zM0 115h20v20H0zM23 115h20v20H23zM46 115h20v20H46zM69 115h20v20H69zM92 115h20v20H92zM0 138h20v20H0zM23 138h20v20H23zM46 138h20v20H46zM69 138h20v20H69zM92 138h20v20H92z"/>
</symbol>
<symbol id="svg-github" viewBox="0 0 32 31.2">
  <path d="M16 0C7.2 0 0 7.2 0 16c0 7.1 4.6 13.1 10.9 15.2.8.1 1.1-.3 1.1-.8v-2.8c-4.4 1-5.4-2.1-5.4-2.1-.7-1.8-1.8-2.3-1.8-2.3-1.5-1 .1-1 .1-1 1.6.1 2.5 1.6 2.5 1.6 1.4 2.4 3.7 1.7 4.7 1.3.1-1 .6-1.7 1-2.1-3.6-.4-7.3-1.8-7.3-7.9 0-1.7.6-3.2 1.6-4.3-.2-.4-.7-2 .2-4.2 0 0 1.3-.4 4.4 1.6 1.3-.4 2.6-.5 4-.5s2.7.2 4 .5c3.1-2.1 4.4-1.6 4.4-1.6.9 2.2.3 3.8.2 4.2 1 1.1 1.6 2.5 1.6 4.3 0 6.1-3.7 7.5-7.3 7.9.6.5 1.1 1.5 1.1 2.9v4.4c0 .4.3.9 1.1.7C27.4 29.1 32 23.1 32 16c0-8.8-7.2-16-16-16z"/>
</symbol>
<symbol id="svg-logo" viewBox="0 0 171.3 167.4">
  <path d="M120.7 97.8c4.9 0 8.9-4.1 8.9-9.4 0-5.2-4-9.1-8.9-9.1s-8.9 3.9-8.9 9.1c0 5.3 3.9 9.4 8.9 9.4zM40.8 49.9c2 0 3.5-.3 4.9-.9 2.8-1.2 4.4-4 4.4-7.8 0-3.5-1.4-6.2-3.9-7.5-1.4-.7-3.2-1.1-5.3-1.1h-8.2v17.2h8.1v.1zM134.2 49.9c2 0 3.5-.3 4.9-.9 2.8-1.2 4.4-4 4.4-7.8 0-3.5-1.4-6.2-3.9-7.5-1.4-.7-3.2-1.1-5.3-1.1H126v17.2h8.2v.1z"/>
  <path d="M0 0v125.7l85.7 41.7 85.6-41.7V0H0zm167.5 122l-81.8 39.8-.4-.2L3.8 122V4.7h163.7V122z"/>
  <path d="M165.6 120.7V6.7H5.8v114l79.9 38.8 79.9-38.8zM92 127.1c-2.1 0-2.8-1.8-2.8-4s.7-4 2.8-4 2.7 1.8 2.7 4-.7 4-2.7 4zm8.4-.2h-4.5v-.9h1.7v-5-.5s-.1.2-.4.5l-.7.7-.7-.7 1.9-1.8h1v6.8h1.7v.9zm3.1.3c-1.6 0-2.4-1.1-2.4-1.1l.7-.9s.6.9 1.8.9c1 0 1.7-.7 1.7-1.6 0-1-.8-1.6-1.8-1.6-.9 0-1.5.4-1.5.4l-.5-.2.3-3.2c0-.5.2-.7.7-.7h2.7c.5 0 .7.2.7.7v1h-1v-.5c0-.2-.1-.2-.2-.2H103c-.2 0-.2.1-.2.2l-.2 1.4c0 .2-.1.4-.1.4s.4-.2 1-.2c1.7 0 2.8 1.1 2.8 2.6 0 1.4-1.1 2.6-2.8 2.6zm10.8-60.6h5.5V32.3h-5.5v-4.8h20.5c2.7 0 5.3.2 7.5 1.2 4.5 1.9 7.5 6.6 7.5 12.4 0 6.2-3.2 11.1-8.3 12.9-2.1.7-4.2.9-6.6.9H126v11.6h5.5v4.8h-17.2v-4.7zm34.5 30.9v1.9h-12.2V77.6h2.1v19.9h10.1zm-28.1-20.3c6.2 0 11.1 4.9 11.1 11.1 0 6.4-4.9 11.4-11.1 11.4s-11.1-5-11.1-11.4c0-6.2 4.9-11.1 11.1-11.1zM61.6 66.6h5.5V32.3h-5.5v-4.8h17.2v4.8h-5.5V47H96V32.3h-5.5v-4.8h17.2v4.8h-5.5v34.3h5.5v4.8H90.5v-4.8H96V52.1H73.3v14.5h5.5v4.8H61.6v-4.8zm44.6 21.7c0 6.4-4.9 11.4-11.1 11.4-6.2 0-11.1-5-11.1-11.4 0-6.2 5-11.1 11.1-11.1 6.2 0 11.1 4.9 11.1 11.1zm-41.8 1.1v10h-2.1V77.6h2.1v9.9H77v-9.9h2.1v21.8H77v-10H64.4zM57 80l-1.1 1.6s-2.5-2.4-6.6-2.4c-5.1 0-8.8 4-8.8 9.1 0 5.2 3.7 9.5 8.8 9.5 4.4 0 7.1-2.9 7.1-2.9l1.2 1.5s-3 3.4-8.3 3.4c-6.4 0-11-5.1-11-11.4-.1-6.4 4.6-11.2 10.9-11.2 5.2 0 7.8 2.8 7.8 2.8zM21 66.6h5.5V32.3H21v-4.8h20.5c2.7 0 5.3.2 7.5 1.2 4.5 1.9 7.5 6.6 7.5 12.4 0 6.2-3.2 11.1-8.3 12.9-2.1.8-4.2 1-6.6 1h-8.9v11.6h5.5v4.8H21v-4.8zm.8 16.4c0-3.1 2.8-5.9 6.8-5.9 3.8 0 5.8 2.1 5.8 2.1L33.3 81s-1.9-1.9-4.8-1.9c-2.8 0-4.6 1.8-4.6 3.8 0 5.2 10.9 3.7 10.9 10.9 0 3.3-2.5 5.9-6.6 5.9-4.5 0-6.9-2.8-6.9-2.8l1.4-1.6s2.3 2.4 5.7 2.4c2.4 0 4.3-1.4 4.3-3.8 0-5.5-10.9-4.1-10.9-10.9zm-2.1 25.7h131v1h-131v-1zm65.7 11.4c-.7 0-1.2.4-1.2.7v.3h-1v-.7c0-1 1.4-1.4 2.3-1.4 1.4 0 2.4.9 2.4 2.2 0 2.7-3.9 2.7-3.9 4.5 0 .2.1.2.3.2H87c.2 0 .2-.1.2-.2v-.5h1v1c0 .5-.2.7-.7.7h-4c-.6 0-.7-.3-.7-.9 0-2.8 4-2.6 4-4.7 0-.7-.5-1.2-1.4-1.2zm-15.1 6.2c0 .5-.2.7-.7.7h-3.5c-.5 0-.7-.2-.7-.7v-6.2h-.7v-.9h4.6c.5 0 .7.2.7.7v1h-1v-.5c0-.2-.1-.2-.2-.2h-2.2v2.4h2.7v.9h-2.7v2.3c0 .2.1.2.2.2h2.3c.2 0 .2-.1.2-.2v-.5h1v1zm2.9.7c-1.5 0-2.2-1-2.2-1l.4-.6s.7.8 1.7.8c.5 0 1-.2 1-.7 0-1-3-.9-3-2.7 0-1.1.9-1.6 2.1-1.6.7 0 1.8.2 1.8 1.1v.5h-1v-.3c0-.3-.5-.5-.8-.5-.6 0-1 .2-1 .7 0 1.1 3 .8 3 2.7 0 1-.9 1.6-2 1.6zm5.8 0h-.4c-.7 0-2.1-.2-2.1-2.1v-2.7h-.7v-.9h.7v-1.5h1v1.5h1.3v.9h-1.3v2.6c0 1.1.8 1.3 1.2 1.3h.3v.9zm2.7 11.1l2.7-.4 1.3-2.5 1.2 2.5 2.8.4-2 1.9.4 2.8-2.4-1.3-2.5 1.3.5-2.8-2-1.9z"/>
  <path d="M86.2 88.4c.1 5.3 4 9.4 8.9 9.4s8.9-4.1 8.9-9.4c0-5.2-4-9.1-8.9-9.1s-8.9 3.9-8.9 9.1zM92 120.1c-1.3 0-1.6 1.3-1.6 3s.4 3 1.6 3 1.6-1.4 1.6-3c0-1.7-.4-3-1.6-3z"/>
</symbol>
<symbol id="svg-node-school" viewBox="0 0 490.7 162.5">
  <path d="M488.9 48.7h-6.1v-12c0-.9-.8-1.7-1.7-1.7h-52.4c-.9 0-1.7.8-1.7 1.7v5.1h-12.3v-5.1c0-.9-.8-1.7-1.7-1.7h-52.4c-.9 0-1.7.8-1.7 1.7v5.2H339V1.7c0-.9-.8-1.7-1.7-1.7h-184c-.9 0-1.7.8-1.7 1.7v40.1H132v-5.1c0-.9-.8-1.7-1.7-1.7H77.8c-.9 0-1.7.8-1.7 1.7v5.1H63.8v-5.1c0-.9-.8-1.7-1.7-1.7H9.6c-.9 0-1.7.8-1.7 1.7v12H1.7c-.9 0-1.7.8-1.7 1.7v105.4c0 .9.8 1.7 1.7 1.7h149.9v3.2c0 .9.8 1.7 1.7 1.7h183.9c.9 0 1.7-.8 1.8-1.7v-3.2h149.9c.9 0 1.7-.7 1.7-1.7V50.4c.1-.9-.7-1.7-1.7-1.7zm-9.6-10.3v10.3h-49V38.4h49zm-52.4 6.9v3.4h-12.3v-3.4h12.3zm-64.8-6.9h49v10.3h-49V38.4zm-3.4 6.9v3.4h-6.1c-.9 0-1.7.8-1.7 1.7v103.8H339V45.3h19.7zM335.5 3.5v144.9h-2.3v-8.9c0-.9-.8-1.7-1.7-1.7h-4v-8.9c0-.9-.8-1.7-1.7-1.7h-4v-8.9c0-.9-.8-1.7-1.7-1.7h-3.4V52.2h3.4c.9 0 1.7-.8 1.7-1.7v-5.2h4c.9 0 1.7-.8 1.7-1.7V24.7c0-.9-.8-1.7-1.7-1.7H167.7c-.9 0-1.7.8-1.7 1.7v18.9c0 .9.8 1.7 1.7 1.7h4v5.2c0 .9.8 1.7 1.7 1.7h3.4v64.4h-3.4c-.9 0-1.7.8-1.7 1.7v8.9h-4c-.9 0-1.7.8-1.7 1.7v8.9h-6.7c-.9 0-1.7.8-1.7 1.7v8.9h-2.4V3.5h180.3zM161 148.4v-7.1H329.9v7.1H161zm17.6-99.7h-3.4v-3.4h23.5v3.4h-3.4c-.9 0-1.7.8-1.7 1.7v66.1h-13.2V50.4c-.1-.9-.9-1.7-1.8-1.7zm134.6 1.7v66.1h-12.6V50.4c0-.9-.8-1.7-1.7-1.7h-3.4v-3.4h22.9v3.4H315c-1 0-1.8.8-1.8 1.7zm-116.3 1.8h3.4c.9 0 1.7-.8 1.7-1.7v-5.2h90v5.2c0 .9.8 1.7 1.7 1.7h3.4v64.4h-28.7L286 86.4c.3-.5.3-1.2 0-1.7l-18.7-32.4c-.3-.5-.9-.8-1.5-.8h-37.3c-.6 0-1.2.3-1.5.8l-18.7 32.4v.1c0 .1-.1.2-.1.3v.1c0 .1-.1.3-.1.4 0 .4.1.7.3 1l17.3 30H197V52.2zm62.6 2.7v61.3h-25.2V54.9h25.2zm5.3 0L273 69h-10V54.9h1.8zm-1.8 45.9h10.6l-8.8 15.3H263v-15.3zm12.6-3.4H263V87.3h18.5l-5.9 10.1zM263 83.8V72.5h12l6.5 11.3H263zm-32.1-14.7h-9.7l8.2-14.1h1.5v14.1zm-11.6 3.4H231v11.3h-18.2l6.5-11.3zm11.6 14.8v10.1h-12.3l-5.8-10.1h18.1zm0 13.5v15.3h-1.5l-8.8-15.3h10.3zm89.5-58.9H169.5V26.4h154.7v15.5h-3.8zm-141.8 78.2h139.8v7.1H175.1v-7.1h3.5zm-5.2 10.6h150.7v7.1H169.4v-7.1h4zm-21.8-85.4v108.9h-11.8V50.4c0-.9-.8-1.7-1.7-1.7H132v-3.5h19.6zm-23.1-6.9v10.3h-49V38.4h49zm-52.4 6.9v3.4H63.9v-3.4h12.2zm-64.8-6.9h49v10.3h-49V38.4zM3.4 52.2h64.8v102H3.4v-102zm68.2 0h64.8v102H71.6v-102zM155.1 159v-7.1h180.5v7.1H155.1zM354.3 52.2H419v102h-64.8v-102zm132.9 102h-64.7v-102h64.7v102z"/>
  <path d="M434 74.4c.1.2.1.3.1.3v.1l9.2 15.9c.3.5.9.8 1.5.8h18.4c.6 0 1.2-.3 1.5-.8l9.2-15.9v-.1c0-.1.1-.2.1-.3v-.1c0-.1.1-.3.1-.4 0-.4-.1-.7-.3-1l-4-6.9c-.1-.2-.2-.3-.3-.5l-4.9-8.4c-.3-.5-.9-.8-1.5-.8h-8.7c-.1 0-.3-.1-.5-.1s-.3 0-.5.1h-8.7c-.6 0-1.2.3-1.5.8l-9 15.9c-.2.3-.3.6-.3 1 0 .1 0 .2.1.4zm6.8-6h11.5v3.8h-13.7l2.2-3.8zm26.8 10.5h-11.8v-3.2h13.7l-1.9 3.2zm1.9-6.7h-13.7v-3.8h11.5l2.2 3.8zm-17.2 3.5v3.2h-11.8l-1.9-3.2h13.7zm-9.8 6.7h9.8v5.8h-6.4l-3.4-5.8zm19.7 5.8h-6.5v-5.8h9.8l-3.3 5.8zm3.1-23.2h-9.5v-5.2h6.5l3 5.2zm-19.4-5.3h6.4V65h-9.5l3.1-5.3zM429.4 109.8c-.9 0-1.7.8-1.7 1.7v24.1c0 .9.8 1.7 1.7 1.7h51.8c.9 0 1.7-.7 1.7-1.7v-24.1c0-.9-.8-1.7-1.7-1.7h-51.8zm24.1 15.5v8.6h-9.1v-8.6h9.1zm-9-3.4v-8.6h9.1v8.6h-9.1zm12.5 3.4h9v8.6h-9v-8.6zm0-3.4v-8.6h9v8.6h-9zm-16-8.6v8.6h-9.9v-8.6h9.9zm-9.9 12h9.9v8.6h-9.9v-8.6zm38.4 8.6v-8.6h9.9v8.6h-9.9zm9.9-12h-9.9v-8.6h9.9v8.6zM365.8 74.4c.1.2.1.3.1.3v.1l9.2 15.9c.3.5.9.8 1.5.8H395c.6 0 1.2-.3 1.5-.8l9.2-15.9v-.1c0-.1.1-.2.1-.3v-.1c0-.1.1-.3.1-.4 0-.4-.1-.7-.3-1l-4-6.9c-.1-.2-.2-.3-.3-.5l-4.9-8.4c-.3-.5-.9-.8-1.5-.8h-8.7c-.1 0-.3-.1-.5-.1s-.3 0-.5.1h-8.7c-.6 0-1.2.3-1.5.8L366.1 73c-.2.3-.3.6-.3 1-.1.1 0 .2 0 .4zm6.8-6h11.5v3.8h-13.7l2.2-3.8zm26.8 10.5h-11.8v-3.2h13.7l-1.9 3.2zm1.8-6.7h-13.7v-3.8H399l2.2 3.8zm-17.1 3.5v3.2h-11.8l-1.9-3.2h13.7zm-9.8 6.7h9.8v5.8h-6.5l-3.3-5.8zm19.7 5.8h-6.4v-5.8h9.8l-3.4 5.8zm3-23.2h-9.5v-5.2h6.4L397 65zm-19.4-5.3h6.5V65h-9.5l3-5.3zM412.9 109.8h-51.8c-.9 0-1.7.8-1.7 1.7v24.1c0 .9.8 1.7 1.7 1.7h51.8c.9 0 1.7-.7 1.7-1.7v-24.1c.1-.9-.7-1.7-1.7-1.7zm-1.7 12.1h-9.9v-8.6h9.9v8.6zm-25.9 3.4v8.6h-9v-8.6h9zm-9-3.4v-8.6h9v8.6h-9zm12.5 3.4h9.1v8.6h-9.1v-8.6zm0-3.4v-8.6h9.1v8.6h-9.1zm-16-8.6v8.6h-9.9v-8.6h9.9zm-9.9 12h9.9v8.6h-9.9v-8.6zm38.4 8.6v-8.6h9.9v8.6h-9.9zM16.5 74.4c.1 0 .1 0 0 0 .1.2.1.3.1.3v.1l9.2 15.9c.3.5.9.8 1.5.8h18.4c.6 0 1.2-.3 1.5-.8l9.2-15.9v-.1c0-.1.1-.2.1-.3v-.1c0-.1.1-.3.1-.4 0-.4-.1-.7-.3-1l-4-6.9c-.1-.2-.2-.3-.3-.5l-4.9-8.4c-.3-.5-.9-.8-1.5-.8h-8.7c-.1 0-.3-.1-.5-.1s-.3 0-.5.1h-8.7c-.6 0-1.2.3-1.5.8L16.8 73c-.2.3-.3.6-.3 1v.4zm6.9-6h11.5v3.8H21.2l2.2-3.8zm26.7 10.5H38.3v-3.2H52l-1.9 3.2zm1.9-6.7H38.3v-3.8h11.5l2.2 3.8zm-17.1 3.5v3.2H23l-1.9-3.2h13.8zM25 82.4h9.8v5.8h-6.5L25 82.4zm19.8 5.8h-6.4v-5.8h9.8l-3.4 5.8zm3-23.2h-9.5v-5.2h6.4l3.1 5.2zm-19.4-5.3h6.5V65h-9.5l3-5.3zM61.3 109.8H9.5c-.9 0-1.7.8-1.7 1.7v24.1c0 .9.8 1.7 1.7 1.7h51.8c.9 0 1.7-.7 1.7-1.7v-24.1c0-.9-.8-1.7-1.7-1.7zm-1.7 12.1h-9.9v-8.6h9.9v8.6zm-25.9 3.4v8.6h-9.1v-8.6h9.1zm-9.1-3.4v-8.6h9.1v8.6h-9.1zm12.5 3.4h9.1v8.6h-9.1v-8.6zm0-3.4v-8.6h9.1v8.6h-9.1zm-15.9-8.6v8.6h-9.9v-8.6h9.9zm-10 12h9.9v8.6h-9.9v-8.6zm38.5 8.6v-8.6h9.9v8.6h-9.9zM84.7 74.4c.1.2.1.3.1.3v.1L94 90.7c.3.5.9.8 1.5.8H114c.6 0 1.2-.3 1.5-.8l9.2-15.9v-.1c0-.1.1-.2.1-.3v-.1c0-.1.1-.3.1-.4 0-.4-.1-.7-.3-1l-4-6.9c-.1-.2-.2-.3-.3-.5l-4.9-8.4c-.3-.5-.9-.8-1.5-.8h-8.7c-.1 0-.3-.1-.5-.1s-.3 0-.5.1h-8.7c-.6 0-1.2.3-1.5.8L85 73c-.2.3-.3.6-.3 1v.4zm6.9-6h11.5v3.8H89.4l2.2-3.8zm26.7 10.5h-11.8v-3.2h13.7l-1.9 3.2zm1.9-6.7h-13.7v-3.8H118l2.2 3.8zm-17.1 3.5v3.2H91.3l-1.9-3.2h13.7zm-9.8 6.7h9.8v5.8h-6.4l-3.4-5.8zm19.7 5.8h-6.5v-5.8h9.8l-3.3 5.8zm3-23.2h-9.5v-5.2h6.5l3 5.2zm-19.4-5.3h6.4V65h-9.5l3.1-5.3zM129.5 109.8H77.7c-.9 0-1.7.8-1.7 1.7v24.1c0 .9.8 1.7 1.7 1.7h51.8c.9 0 1.7-.7 1.7-1.7v-24.1c0-.9-.8-1.7-1.7-1.7zm-1.7 12.1h-9.9v-8.6h9.9v8.6zm-25.9 3.4v8.6h-9.1v-8.6h9.1zm-9.1-3.4v-8.6h9.1v8.6h-9.1zm12.5 3.4h9.1v8.6h-9.1v-8.6zm0-3.4v-8.6h9.1v8.6h-9.1zm-16-8.6v8.6h-9.9v-8.6h9.9zm-9.9 12h9.9v8.6h-9.9v-8.6zm38.4 8.6v-8.6h9.9v8.6h-9.9zM247.4 92.5c2.1 0 3.8-1.7 3.8-3.8 0-2.1-1.7-3.8-3.8-3.8-2.1 0-3.8 1.7-3.8 3.8 0 2 1.7 3.8 3.8 3.8zm0-4.2c.2 0 .4.2.4.4s-.2.4-.4.4-.4-.2-.4-.4c0-.3.2-.4.4-.4zM292.9 18.1h5c.5 0 .9-.4.9-.9s-.4-.9-.9-.9H294V9.5c0-.6-.5-1.1-1.1-1.1-.6 0-1.1.5-1.1 1.1v7.6c.1.6.6 1 1.1 1zM284.9 18.4c3 0 5.1-2.2 5.1-5 0-2.7-2.1-5-5.1-5-3 0-5.1 2.2-5.1 5 0 2.7 2.2 4.9 5.1 5zm-2.9-5.1c0-1.6 1.2-3 2.9-3s2.9 1.4 2.9 3.1c0 1.6-1.2 3-2.9 3S282 15 282 13.3zM197.7 18.2c.6 0 1.1-.5 1.1-1.1V12l4.2 5.6c.3.4.6.6 1.1.6h.1c.6 0 1.1-.5 1.1-1.1V9.5c0-.6-.5-1.1-1.1-1.1s-1.1.5-1.1 1.1v5L199 9.1c-.3-.4-.6-.6-1.1-.6h-.2c-.6 0-1.1.5-1.1 1.1v7.6c0 .6.5 1 1.1 1zM231 18.2h5.4c.5 0 .9-.4.9-.9s-.4-.9-.9-.9h-4.3v-2h3.7c.5 0 .9-.4.9-.9s-.4-.9-.9-.9H232v-2h4.3c.5 0 .9-.4.9-.9s-.4-.9-.9-.9H231c-.6 0-1.1.5-1.1 1.1v7.5c0 .3.5.8 1.1.8zM220.2 18.2h2.7c3 0 5.1-2.1 5.1-4.8 0-2.7-2.1-4.8-5.1-4.8h-2.7c-.6 0-1.1.5-1.1 1.1v7.5c.1.5.5 1 1.1 1zm1.1-7.8h1.6c1.7 0 2.9 1.2 2.9 2.9s-1.2 2.9-2.9 2.9h-1.6v-5.8zM273.2 18.4c3 0 5.1-2.2 5.1-5 0-2.7-2.1-5-5.1-5-3 0-5.1 2.2-5.1 5 0 2.7 2.2 4.9 5.1 5zm-2.8-5.1c0-1.6 1.2-3 2.9-3s2.9 1.4 2.9 3.1c0 1.6-1.2 3-2.9 3s-2.9-1.4-2.9-3.1zM212.1 18.4c3 0 5.1-2.2 5.1-5 0-2.7-2.1-5-5.1-5-3 0-5.1 2.2-5.1 5 .1 2.7 2.2 4.9 5.1 5zm-2.8-5.1c0-1.6 1.2-3 2.9-3s2.9 1.4 2.9 3.1c0 1.6-1.2 3-2.9 3s-2.9-1.4-2.9-3.1zM259.2 18.2c.6 0 1.1-.5 1.1-1.1v-2.9h3.9v2.9c0 .6.5 1.1 1.1 1.1s1.1-.5 1.1-1.1V9.5c0-.6-.5-1.1-1.1-1.1s-1.1.5-1.1 1.1v2.8h-3.9V9.5c0-.6-.5-1.1-1.1-1.1-.6 0-1.1.5-1.1 1.1v7.7c0 .6.5 1 1.1 1zM252.4 18.4c1.5 0 2.5-.5 3.4-1.2.2-.2.4-.4.4-.7 0-.5-.4-1-1-1-.3 0-.5.1-.6.2-.6.5-1.2.7-2.1.7-1.6 0-2.8-1.4-2.8-3s1.2-3 2.8-3c.7 0 1.4.2 2 .7.2.1.3.2.6.2.6 0 1.1-.4 1.1-1 0-.4-.2-.7-.4-.8-.8-.6-1.8-1-3.2-1-3 0-5 2.2-5 5-.1 2.6 2 4.8 4.8 4.9zM238.9 17.2c1.1.7 2.4 1.2 3.6 1.2 2.1 0 3.5-1.1 3.5-3 0-1.7-1.1-2.4-3.1-2.9-1.7-.4-2.1-.6-2.1-1.3 0-.5.4-.8 1.2-.8.7 0 1.3.2 2 .6.2.1.3.1.5.1.5 0 1-.4 1-1 0-.4-.2-.7-.5-.8-.9-.5-1.9-.8-3.1-.8-2 0-3.4 1.2-3.4 2.9 0 1.9 1.3 2.4 3.2 3 1.6.4 1.9.7 1.9 1.2 0 .6-.5.9-1.4.9-.9 0-1.8-.3-2.5-.9-.1-.1-.3-.2-.6-.2-.5 0-1 .4-1 1 .4.3.6.6.8.8zM314.8 32.4H177.6c-.9 0-1.7.8-1.7 1.7 0 .9.8 1.7 1.7 1.7h137.1c.9 0 1.7-.8 1.7-1.7.1-1-.7-1.7-1.6-1.7z"/>
</symbol>
<symbol id="svg-slack" viewBox="0 0 125.1 125.1">
  <path d="M68.213 51.79l5.4 16.12-16.69 5.59-5.4-16.12z"/>
  <path d="M68.213 51.79l5.4 16.12-16.69 5.59-5.4-16.12z"/>
  <path d="M119.8 45.3c-12.9-43-31.5-53-74.5-40.1s-53 31.5-40.1 74.5 31.5 53 74.5 40.1 53-31.5 40.1-74.5zM98.1 73.2L90 75.9l2.8 8.4c1.1 3.4-.7 7.1-4.1 8.2-.7.2-1.5.4-2.2.3-2.6-.1-5.1-1.8-6-4.4L77.7 80 61 85.7l2.8 8.4c1.1 3.4-.7 7.1-4.1 8.2-.7.2-1.5.4-2.2.3-2.6-.1-5.1-1.8-6-4.4l-2.8-8.4-8.1 2.7c-.7.2-1.5.4-2.2.3-2.6-.1-5.1-1.8-6-4.4-1.1-3.4.7-7.1 4.1-8.2l8.1-2.7-5.4-16.1-8.1 2.7c-.7.2-1.5.4-2.2.3-2.6-.1-5.1-1.8-6-4.4-1.1-3.4.7-7.1 4.1-8.2l8.1-2.7-2.8-8.4c-1.1-3.4.7-7.1 4.1-8.2 3.4-1.1 7.1.7 8.2 4.1l2.8 8.4 16.7-5.6-2.8-8.4c-1.1-3.4.7-7.1 4.1-8.2s7.1.7 8.2 4.1l2.8 8.4 8.1-2.7c3.4-1.1 7.1.7 8.2 4.1 1.1 3.4-.7 7.1-4.1 8.2l-8.1 2.7 5.4 16.1L94 61c3.4-1.1 7.1.7 8.2 4.1 1.1 3.3-.7 7-4.1 8.1z"/>
</symbol>
<symbol id="svg-twitter" viewBox="0 0 273.5 222.3">
  <path d="M273.5 26.3c-10.1 4.5-20.9 7.5-32.2 8.8 11.6-6.9 20.5-17.9 24.7-31-10.9 6.4-22.9 11.1-35.7 13.6C220.1 6.8 205.5 0 189.4 0c-31 0-56.1 25.1-56.1 56.1 0 4.4.5 8.7 1.5 12.8-46.7-2.4-88-24.7-115.7-58.6-4.8 8.3-7.6 17.9-7.6 28.2 0 19.5 9.9 36.6 25 46.7-9.2-.3-17.8-2.8-25.4-7v.7c0 27.2 19.3 49.8 45 55-4.7 1.3-9.7 2-14.8 2-3.6 0-7.1-.4-10.6-1 7.1 22.3 27.9 38.5 52.4 39-19.2 15-43.4 24-69.7 24-4.5 0-9-.3-13.4-.8 24.8 15.9 54.3 25.2 86 25.2 103.2 0 159.6-85.5 159.6-159.6 0-2.4-.1-4.9-.2-7.3 11.1-8 20.6-17.9 28.1-29.1z"/>
</symbol>

</svg>