<?xml version="1.0" encoding="utf-8"?>
<!DOCTYPE svg PUBLIC "-//W3C//DTD SVG 1.1//EN" "http://www.w3.org/Graphics/SVG/1.1/DTD/svg11.dtd">
<svg xmlns="http://www.w3.org/2000/svg" xmlns:xlink="http://www.w3.org/1999/xlink" style="display: none">
    <symbol id="svg-github" viewBox="0 0 32 32">
  <path clip-rule="evenodd" d="M16.003 0C7.17 0 .008 7.162.008 15.997c0 7.067 4.582 13.063 10.94 15.18.8.145 1.052-.33 1.052-.753 0-.38.008-1.442 0-2.777-4.45.967-5.37-2.107-5.37-2.107-.728-1.848-1.776-2.34-1.776-2.34-1.452-.992.11-.973.11-.973 1.604.113 2.45 1.65 2.45 1.65 1.427 2.442 3.743 1.736 4.654 1.328.146-1.034.56-1.74 1.017-2.14C9.533 22.663 5.8 21.29 5.8 15.16c0-1.747.622-3.174 1.645-4.292-.165-.404-.715-2.03.157-4.234 0 0 1.343-.43 4.398 1.64 1.276-.354 2.645-.53 4.005-.537 1.36.006 2.727.183 4.005.538 3.055-2.07 4.396-1.64 4.396-1.64.872 2.202.323 3.83.16 4.233 1.022 1.118 1.643 2.545 1.643 4.292 0 6.146-3.74 7.498-7.305 7.893C19.48 23.548 20 24.508 20 26v4.428c0 .428.258.9 1.07.746C27.422 29.054 32 23.062 32 15.997 32 7.162 24.838 0 16.003 0z" fill-rule="evenodd"/>
</symbol>
<symbol id="svg-slack" viewBox="0 0 125 125">
  <style>.st0{fill:#FFFFFF;}</style>
  <path class="st0" d="M56.863 73.412l-5.4-16.12 16.69-5.59 5.398 16.12z"/>
  <path class="st0" d="M56.863 73.412l-5.4-16.12 16.69-5.59 5.398 16.12z"/>
  <path class="st0" d="M119.8 45.3c-12.9-43-31.5-53-74.5-40.1-43 12.9-53 31.5-40.1 74.5 12.9 43 31.5 53 74.5 40.1 43-12.9 53-31.5 40.1-74.5zM98.1 73.2L90 75.9l2.8 8.4c1.1 3.4-.7 7.1-4.1 8.2-.7.2-1.5.4-2.2.3-2.6-.1-5.1-1.8-6-4.4L77.7 80 61 85.7l2.8 8.4c1.1 3.4-.7 7.1-4.1 8.2-.7.2-1.5.4-2.2.3-2.6-.1-5.1-1.8-6-4.4l-2.8-8.4-8.1 2.7c-.7.2-1.5.4-2.2.3-2.6-.1-5.1-1.8-6-4.4-1.1-3.4.7-7.1 4.1-8.2l8.1-2.7-5.4-16.1-8.1 2.7c-.7.2-1.5.4-2.2.3-2.6-.1-5.1-1.8-6-4.4-1.1-3.4.7-7.1 4.1-8.2l8.1-2.7-2.8-8.4c-1.1-3.4.7-7.1 4.1-8.2 3.4-1.1 7.1.7 8.2 4.1l2.8 8.4 16.7-5.6-2.8-8.4c-1.1-3.4.7-7.1 4.1-8.2 3.4-1.1 7.1.7 8.2 4.1l2.8 8.4 8.1-2.7c3.4-1.1 7.1.7 8.2 4.1 1.1 3.4-.7 7.1-4.1 8.2l-8.1 2.7 5.4 16.1L94 61c3.4-1.1 7.1.7 8.2 4.1 1.1 3.3-.7 7-4.1 8.1z"/>
</symbol>
<symbol id="svg-twitter" viewBox="0 0 273.4 222.2">
  <path d="M273.4 26.3c-10.1 4.5-20.9 7.5-32.2 8.8 11.6-6.9 20.5-17.9 24.7-31-10.9 6.4-22.9 11.1-35.7 13.6C220 6.8 205.4 0 189.3 0c-31 0-56.1 25.1-56.1 56.1 0 4.4.5 8.7 1.5 12.8C88 66.5 46.7 44.2 19 10.3c-4.8 8.3-7.6 17.9-7.6 28.2 0 19.5 9.9 36.6 25 46.7-9.2-.3-17.8-2.8-25.4-7v.7c0 27.2 19.3 49.8 45 55-4.7 1.3-9.7 2-14.8 2-3.6 0-7.1-.4-10.6-1 7.1 22.3 27.9 38.5 52.4 39-19.2 15-43.4 24-69.7 24-4.5 0-9-.3-13.4-.8 24.8 15.9 54.3 25.2 86 25.2 103.2 0 159.6-85.5 159.6-159.6 0-2.4-.1-4.9-.2-7.3 11.1-8 20.6-17.9 28.1-29.1z"/>
</symbol>

</svg>