<?xml version="1.0" encoding="utf-8"?>
<!DOCTYPE svg PUBLIC "-//W3C//DTD SVG 1.1//EN" "http://www.w3.org/Graphics/SVG/1.1/DTD/svg11.dtd">
<svg xmlns="http://www.w3.org/2000/svg" xmlns:xlink="http://www.w3.org/1999/xlink" style="display: none">
    <symbol id="svg-copy" viewBox="0 0 214.1 128.7">
  <path d="M52.9 0L0 64.4l52.9 64.3 12.5-20.5-35.6-43.8 35.6-43.8M86 127.2h23.2l36.9-126h-23.2M161.2 0l-12.5 20.6 35.6 43.8-35.6 43.8 12.5 20.5 52.9-64.3"/>
</symbol>
<symbol id="svg-cursor" viewBox="0 0 112 158">
  <path d="M0 0h20v20H0zM23 0h20v20H23zM46 0h20v20H46zM69 0h20v20H69zM92 0h20v20H92zM0 23h20v20H0zM23 23h20v20H23zM46 23h20v20H46zM69 23h20v20H69zM92 23h20v20H92zM0 46h20v20H0zM23 46h20v20H23zM46 46h20v20H46zM69 46h20v20H69zM92 46h20v20H92zM0 69h20v20H0zM23 69h20v20H23zM46 69h20v20H46zM69 69h20v20H69zM92 69h20v20H92zM0 92h20v20H0zM23 92h20v20H23zM46 92h20v20H46zM69 92h20v20H69zM92 92h20v20H92zM0 115h20v20H0zM23 115h20v20H23zM46 115h20v20H46zM69 115h20v20H69zM92 115h20v20H92zM0 138h20v20H0zM23 138h20v20H23zM46 138h20v20H46zM69 138h20v20H69zM92 138h20v20H92z"/>
</symbol>
<symbol id="svg-github" viewBox="0 0 32 31.2">
  <path d="M16 0C7.2 0 0 7.2 0 16c0 7.1 4.6 13.1 10.9 15.2.8.1 1.1-.3 1.1-.8v-2.8c-4.4 1-5.4-2.1-5.4-2.1-.7-1.8-1.8-2.3-1.8-2.3-1.5-1 .1-1 .1-1 1.6.1 2.5 1.6 2.5 1.6 1.4 2.4 3.7 1.7 4.7 1.3.1-1 .6-1.7 1-2.1-3.6-.4-7.3-1.8-7.3-7.9 0-1.7.6-3.2 1.6-4.3-.2-.4-.7-2 .2-4.2 0 0 1.3-.4 4.4 1.6 1.3-.4 2.6-.5 4-.5s2.7.2 4 .5c3.1-2.1 4.4-1.6 4.4-1.6.9 2.2.3 3.8.2 4.2 1 1.1 1.6 2.5 1.6 4.3 0 6.1-3.7 7.5-7.3 7.9.6.5 1.1 1.5 1.1 2.9v4.4c0 .4.3.9 1.1.7C27.4 29.1 32 23.1 32 16c0-8.8-7.2-16-16-16z"/>
</symbol>
<symbol id="svg-logo" viewBox="0 0 171.3 167.4">
  <path d="M120.7 97.8c4.9 0 8.9-4.1 8.9-9.4 0-5.2-4-9.1-8.9-9.1s-8.9 3.9-8.9 9.1c0 5.3 3.9 9.4 8.9 9.4zM40.8 49.9c2 0 3.5-.3 4.9-.9 2.8-1.2 4.4-4 4.4-7.8 0-3.5-1.4-6.2-3.9-7.5-1.4-.7-3.2-1.1-5.3-1.1h-8.2v17.2h8.1v.1zM134.2 49.9c2 0 3.5-.3 4.9-.9 2.8-1.2 4.4-4 4.4-7.8 0-3.5-1.4-6.2-3.9-7.5-1.4-.7-3.2-1.1-5.3-1.1H126v17.2h8.2v.1z"/>
  <path d="M0 0v125.7l85.7 41.7 85.6-41.7V0H0zm167.5 122l-81.8 39.8-.4-.2L3.8 122V4.7h163.7V122z"/>
  <path d="M165.6 120.7V6.7H5.8v114l79.9 38.8 79.9-38.8zM92 127.1c-2.1 0-2.8-1.8-2.8-4s.7-4 2.8-4 2.7 1.8 2.7 4-.7 4-2.7 4zm8.4-.2h-4.5v-.9h1.7v-5-.5s-.1.2-.4.5l-.7.7-.7-.7 1.9-1.8h1v6.8h1.7v.9zm3.1.3c-1.6 0-2.4-1.1-2.4-1.1l.7-.9s.6.9 1.8.9c1 0 1.7-.7 1.7-1.6 0-1-.8-1.6-1.8-1.6-.9 0-1.5.4-1.5.4l-.5-.2.3-3.2c0-.5.2-.7.7-.7h2.7c.5 0 .7.2.7.7v1h-1v-.5c0-.2-.1-.2-.2-.2H103c-.2 0-.2.1-.2.2l-.2 1.4c0 .2-.1.4-.1.4s.4-.2 1-.2c1.7 0 2.8 1.1 2.8 2.6 0 1.4-1.1 2.6-2.8 2.6zm10.8-60.6h5.5V32.3h-5.5v-4.8h20.5c2.7 0 5.3.2 7.5 1.2 4.5 1.9 7.5 6.6 7.5 12.4 0 6.2-3.2 11.1-8.3 12.9-2.1.7-4.2.9-6.6.9H126v11.6h5.5v4.8h-17.2v-4.7zm34.5 30.9v1.9h-12.2V77.6h2.1v19.9h10.1zm-28.1-20.3c6.2 0 11.1 4.9 11.1 11.1 0 6.4-4.9 11.4-11.1 11.4s-11.1-5-11.1-11.4c0-6.2 4.9-11.1 11.1-11.1zM61.6 66.6h5.5V32.3h-5.5v-4.8h17.2v4.8h-5.5V47H96V32.3h-5.5v-4.8h17.2v4.8h-5.5v34.3h5.5v4.8H90.5v-4.8H96V52.1H73.3v14.5h5.5v4.8H61.6v-4.8zm44.6 21.7c0 6.4-4.9 11.4-11.1 11.4-6.2 0-11.1-5-11.1-11.4 0-6.2 5-11.1 11.1-11.1 6.2 0 11.1 4.9 11.1 11.1zm-41.8 1.1v10h-2.1V77.6h2.1v9.9H77v-9.9h2.1v21.8H77v-10H64.4zM57 80l-1.1 1.6s-2.5-2.4-6.6-2.4c-5.1 0-8.8 4-8.8 9.1 0 5.2 3.7 9.5 8.8 9.5 4.4 0 7.1-2.9 7.1-2.9l1.2 1.5s-3 3.4-8.3 3.4c-6.4 0-11-5.1-11-11.4-.1-6.4 4.6-11.2 10.9-11.2 5.2 0 7.8 2.8 7.8 2.8zM21 66.6h5.5V32.3H21v-4.8h20.5c2.7 0 5.3.2 7.5 1.2 4.5 1.9 7.5 6.6 7.5 12.4 0 6.2-3.2 11.1-8.3 12.9-2.1.8-4.2 1-6.6 1h-8.9v11.6h5.5v4.8H21v-4.8zm.8 16.4c0-3.1 2.8-5.9 6.8-5.9 3.8 0 5.8 2.1 5.8 2.1L33.3 81s-1.9-1.9-4.8-1.9c-2.8 0-4.6 1.8-4.6 3.8 0 5.2 10.9 3.7 10.9 10.9 0 3.3-2.5 5.9-6.6 5.9-4.5 0-6.9-2.8-6.9-2.8l1.4-1.6s2.3 2.4 5.7 2.4c2.4 0 4.3-1.4 4.3-3.8 0-5.5-10.9-4.1-10.9-10.9zm-2.1 25.7h131v1h-131v-1zm65.7 11.4c-.7 0-1.2.4-1.2.7v.3h-1v-.7c0-1 1.4-1.4 2.3-1.4 1.4 0 2.4.9 2.4 2.2 0 2.7-3.9 2.7-3.9 4.5 0 .2.1.2.3.2H87c.2 0 .2-.1.2-.2v-.5h1v1c0 .5-.2.7-.7.7h-4c-.6 0-.7-.3-.7-.9 0-2.8 4-2.6 4-4.7 0-.7-.5-1.2-1.4-1.2zm-15.1 6.2c0 .5-.2.7-.7.7h-3.5c-.5 0-.7-.2-.7-.7v-6.2h-.7v-.9h4.6c.5 0 .7.2.7.7v1h-1v-.5c0-.2-.1-.2-.2-.2h-2.2v2.4h2.7v.9h-2.7v2.3c0 .2.1.2.2.2h2.3c.2 0 .2-.1.2-.2v-.5h1v1zm2.9.7c-1.5 0-2.2-1-2.2-1l.4-.6s.7.8 1.7.8c.5 0 1-.2 1-.7 0-1-3-.9-3-2.7 0-1.1.9-1.6 2.1-1.6.7 0 1.8.2 1.8 1.1v.5h-1v-.3c0-.3-.5-.5-.8-.5-.6 0-1 .2-1 .7 0 1.1 3 .8 3 2.7 0 1-.9 1.6-2 1.6zm5.8 0h-.4c-.7 0-2.1-.2-2.1-2.1v-2.7h-.7v-.9h.7v-1.5h1v1.5h1.3v.9h-1.3v2.6c0 1.1.8 1.3 1.2 1.3h.3v.9zm2.7 11.1l2.7-.4 1.3-2.5 1.2 2.5 2.8.4-2 1.9.4 2.8-2.4-1.3-2.5 1.3.5-2.8-2-1.9z"/>
  <path d="M86.2 88.4c.1 5.3 4 9.4 8.9 9.4s8.9-4.1 8.9-9.4c0-5.2-4-9.1-8.9-9.1s-8.9 3.9-8.9 9.1zM92 120.1c-1.3 0-1.6 1.3-1.6 3s.4 3 1.6 3 1.6-1.4 1.6-3c0-1.7-.4-3-1.6-3z"/>
</symbol>
<symbol id="svg-node-school-logo" viewBox="0 0 241.7 279.1">
  <path stroke="#000" stroke-width="20" stroke-miterlimit="10" d="M231.7 203.5l-110.8 64-110.9-64v-128l110.9-64 110.8 64z"/>
</symbol>
<symbol id="svg-node-school" viewBox="0 0 270.4 312.3">
  <path d="M261.9 229.3l-126.7 73.1L8.5 229.3V83L135.2 9.8 261.9 83"/>
  <path d="M135.2 312.3L0 234.2V78.1L135.2 0l135.2 78.1v156.1l-135.2 78.1zM17 224.4l118.2 68.2 118.2-68.2V87.9L135.2 19.6 17 87.9v136.5z"/>
</symbol>
<symbol id="svg-slack" viewBox="0 0 125.1 125.1">
  <path d="M68.213 51.79l5.4 16.12-16.69 5.59-5.4-16.12z"/>
  <path d="M68.213 51.79l5.4 16.12-16.69 5.59-5.4-16.12z"/>
  <path d="M119.8 45.3c-12.9-43-31.5-53-74.5-40.1s-53 31.5-40.1 74.5 31.5 53 74.5 40.1 53-31.5 40.1-74.5zM98.1 73.2L90 75.9l2.8 8.4c1.1 3.4-.7 7.1-4.1 8.2-.7.2-1.5.4-2.2.3-2.6-.1-5.1-1.8-6-4.4L77.7 80 61 85.7l2.8 8.4c1.1 3.4-.7 7.1-4.1 8.2-.7.2-1.5.4-2.2.3-2.6-.1-5.1-1.8-6-4.4l-2.8-8.4-8.1 2.7c-.7.2-1.5.4-2.2.3-2.6-.1-5.1-1.8-6-4.4-1.1-3.4.7-7.1 4.1-8.2l8.1-2.7-5.4-16.1-8.1 2.7c-.7.2-1.5.4-2.2.3-2.6-.1-5.1-1.8-6-4.4-1.1-3.4.7-7.1 4.1-8.2l8.1-2.7-2.8-8.4c-1.1-3.4.7-7.1 4.1-8.2 3.4-1.1 7.1.7 8.2 4.1l2.8 8.4 16.7-5.6-2.8-8.4c-1.1-3.4.7-7.1 4.1-8.2s7.1.7 8.2 4.1l2.8 8.4 8.1-2.7c3.4-1.1 7.1.7 8.2 4.1 1.1 3.4-.7 7.1-4.1 8.2l-8.1 2.7 5.4 16.1L94 61c3.4-1.1 7.1.7 8.2 4.1 1.1 3.3-.7 7-4.1 8.1z"/>
</symbol>
<symbol id="svg-twitter" viewBox="0 0 273.5 222.3">
  <path d="M273.5 26.3c-10.1 4.5-20.9 7.5-32.2 8.8 11.6-6.9 20.5-17.9 24.7-31-10.9 6.4-22.9 11.1-35.7 13.6C220.1 6.8 205.5 0 189.4 0c-31 0-56.1 25.1-56.1 56.1 0 4.4.5 8.7 1.5 12.8-46.7-2.4-88-24.7-115.7-58.6-4.8 8.3-7.6 17.9-7.6 28.2 0 19.5 9.9 36.6 25 46.7-9.2-.3-17.8-2.8-25.4-7v.7c0 27.2 19.3 49.8 45 55-4.7 1.3-9.7 2-14.8 2-3.6 0-7.1-.4-10.6-1 7.1 22.3 27.9 38.5 52.4 39-19.2 15-43.4 24-69.7 24-4.5 0-9-.3-13.4-.8 24.8 15.9 54.3 25.2 86 25.2 103.2 0 159.6-85.5 159.6-159.6 0-2.4-.1-4.9-.2-7.3 11.1-8 20.6-17.9 28.1-29.1z"/>
</symbol>

</svg>