<!-- Generator: Adobe Illustrator 18.1.1, SVG Export Plug-In  -->
<svg version="1.1"
	 xmlns="http://www.w3.org/2000/svg" xmlns:xlink="http://www.w3.org/1999/xlink" xmlns:a="http://ns.adobe.com/AdobeSVGViewerExtensions/3.0/"
	 x="0px" y="0px" width="173.3px" height="169.5px" viewBox="0 0 173.3 169.5" enable-background="new 0 0 173.3 169.5"
	 xml:space="preserve">
<defs>
</defs>
<g>
	<g>
		<polygon points="172.3,126.7 86.7,168.4 1,126.7 1,1 172.3,1 		"/>
		<path d="M86.7,169.5l-0.4-0.2L0,127.3V0h173.3v127.3L86.7,169.5z M2,126.1l84.7,41.2l84.7-41.2V2H2V126.1z"/>
	</g>
	<g>
		<polygon points="167.5,122.4 86.7,161.7 5.8,122.4 5.8,6.7 167.5,6.7 		"/>
		<path fill="#F2F2F2" d="M86.7,162.8l-0.4-0.2L4.8,123V5.7h163.7V123L86.7,162.8z M6.8,121.7l79.9,38.8l79.9-38.8V7.7H6.8V121.7z"
			/>
	</g>
	<g>
		<path fill="#FFFFFF" d="M22,67.6h5.5V33.3H22v-4.8h20.5c2.7,0,5.3,0.2,7.5,1.2c4.5,1.9,7.5,6.6,7.5,12.4c0,6.2-3.2,11.1-8.3,12.9
			C47.1,55.8,45,56,42.6,56h-8.9v11.6h5.5v4.8H22V67.6z M41.8,50.9c2,0,3.5-0.3,4.9-0.9c2.8-1.2,4.4-4,4.4-7.8
			c0-3.5-1.4-6.2-3.9-7.5c-1.4-0.7-3.2-1.1-5.3-1.1h-8.2v17.2H41.8z"/>
		<path fill="#FFFFFF" d="M62.6,67.6h5.5V33.3h-5.5v-4.8h17.2v4.8h-5.5V48H97V33.3h-5.5v-4.8h17.2v4.8h-5.5v34.3h5.5v4.8H91.5v-4.8
			H97V53.1H74.3v14.5h5.5v4.8H62.6V67.6z"/>
		<path fill="#FFFFFF" d="M115.3,67.6h5.5V33.3h-5.5v-4.8h20.5c2.7,0,5.3,0.2,7.5,1.2c4.5,1.9,7.5,6.6,7.5,12.4
			c0,6.2-3.2,11.1-8.3,12.9c-2.1,0.7-4.2,0.9-6.6,0.9H127v11.6h5.5v4.8h-17.2V67.6z M135.2,50.9c2,0,3.5-0.3,4.9-0.9
			c2.8-1.2,4.4-4,4.4-7.8c0-3.5-1.4-6.2-3.9-7.5c-1.4-0.7-3.2-1.1-5.3-1.1H127v17.2H135.2z"/>
	</g>
	<g>
		<path fill="#FFFFFF" d="M23.7,96.3c0,0,2.3,2.4,5.7,2.4c2.4,0,4.3-1.4,4.3-3.8c0-5.5-10.9-4.1-10.9-10.9c0-3.1,2.8-5.9,6.8-5.9
			c3.8,0,5.8,2.1,5.8,2.1l-1.1,1.8c0,0-1.9-1.9-4.8-1.9c-2.8,0-4.6,1.8-4.6,3.8c0,5.2,10.9,3.7,10.9,10.9c0,3.3-2.5,5.9-6.6,5.9
			c-4.5,0-6.9-2.8-6.9-2.8L23.7,96.3z"/>
		<path fill="#FFFFFF" d="M50.2,78.2c5.2,0,7.8,2.8,7.8,2.8l-1.1,1.6c0,0-2.5-2.4-6.6-2.4c-5.1,0-8.8,4-8.8,9.1
			c0,5.2,3.7,9.5,8.8,9.5c4.4,0,7.1-2.9,7.1-2.9l1.2,1.5c0,0-3,3.4-8.3,3.4c-6.4,0-11-5.1-11-11.4C39.2,83,43.9,78.2,50.2,78.2z"/>
		<path fill="#FFFFFF" d="M63.3,78.6h2.1v9.9H78v-9.9h2.1v21.8H78v-10H65.4v10h-2.1V78.6z"/>
		<path fill="#FFFFFF" d="M96.1,78.2c6.2,0,11.1,4.9,11.1,11.1c0,6.4-4.9,11.4-11.1,11.4c-6.2,0-11.1-5-11.1-11.4
			C85,83.1,90,78.2,96.1,78.2z M96.1,98.8c4.9,0,8.9-4.1,8.9-9.4c0-5.2-4-9.1-8.9-9.1c-4.9,0-8.9,3.9-8.9,9.1
			C87.3,94.7,91.2,98.8,96.1,98.8z"/>
		<path fill="#FFFFFF" d="M121.7,78.2c6.2,0,11.1,4.9,11.1,11.1c0,6.4-4.9,11.4-11.1,11.4c-6.2,0-11.1-5-11.1-11.4
			C110.6,83.1,115.5,78.2,121.7,78.2z M121.7,98.8c4.9,0,8.9-4.1,8.9-9.4c0-5.2-4-9.1-8.9-9.1c-4.9,0-8.9,3.9-8.9,9.1
			C112.8,94.7,116.7,98.8,121.7,98.8z"/>
		<path fill="#FFFFFF" d="M137.6,78.6h2.1v19.9h10.1v1.9h-12.2V78.6z"/>
	</g>
	<g>
		<path fill="#FFFFFF" d="M66.4,121.1h-0.7v-0.9h4.6c0.5,0,0.7,0.2,0.7,0.7v1h-1v-0.5c0-0.2-0.1-0.2-0.2-0.2h-2.2v2.4h2.7v0.9h-2.7
			v2.3c0,0.2,0.1,0.2,0.2,0.2h2.3c0.2,0,0.2-0.1,0.2-0.2v-0.5h1v1c0,0.5-0.2,0.7-0.7,0.7h-3.5c-0.5,0-0.7-0.2-0.7-0.7V121.1z"/>
		<path fill="#FFFFFF" d="M72.4,126.4c0,0,0.7,0.8,1.7,0.8c0.5,0,1-0.2,1-0.7c0-1-3-0.9-3-2.7c0-1.1,0.9-1.6,2.1-1.6
			c0.7,0,1.8,0.2,1.8,1.1v0.5h-1v-0.3c0-0.3-0.5-0.5-0.8-0.5c-0.6,0-1,0.2-1,0.7c0,1.1,3,0.8,3,2.7c0,1-0.9,1.6-2,1.6
			c-1.5,0-2.2-1-2.2-1L72.4,126.4z"/>
		<path fill="#FFFFFF" d="M77.5,123.2h-0.7v-0.9h0.7v-1.5h1v1.5h1.3v0.9h-1.3v2.6c0,1.1,0.8,1.3,1.2,1.3c0.2,0,0.3,0,0.3,0v0.9
			c0,0-0.1,0-0.4,0c-0.7,0-2.1-0.2-2.1-2.1V123.2z"/>
		<path fill="#FFFFFF" d="M87.8,122.3c0-0.7-0.5-1.2-1.4-1.2c-0.7,0-1.2,0.4-1.2,0.7v0.3h-1v-0.7c0-1,1.4-1.4,2.3-1.4
			c1.4,0,2.4,0.9,2.4,2.2c0,2.7-3.9,2.7-3.9,4.5c0,0.2,0.1,0.2,0.3,0.2H88c0.2,0,0.2-0.1,0.2-0.2v-0.5h1v1c0,0.5-0.2,0.7-0.7,0.7h-4
			c-0.6,0-0.7-0.3-0.7-0.9C83.8,124.2,87.8,124.4,87.8,122.3z"/>
		<path fill="#FFFFFF" d="M90.2,124.1c0-2.2,0.7-4,2.8-4c2.1,0,2.7,1.8,2.7,4c0,2.2-0.7,4-2.7,4C90.9,128.1,90.2,126.3,90.2,124.1z
			 M94.6,124.1c0-1.7-0.4-3-1.6-3c-1.3,0-1.6,1.3-1.6,3c0,1.7,0.4,3,1.6,3C94.2,127.1,94.6,125.7,94.6,124.1z"/>
		<path fill="#FFFFFF" d="M96.9,127h1.7v-5c0-0.2,0-0.5,0-0.5h0c0,0-0.1,0.2-0.4,0.5l-0.7,0.7l-0.7-0.7l1.9-1.8h1v6.8h1.7v0.9h-4.5
			V127z"/>
		<path fill="#FFFFFF" d="M102.8,126.2c0,0,0.6,0.9,1.8,0.9c1,0,1.7-0.7,1.7-1.6c0-1-0.8-1.6-1.8-1.6c-0.9,0-1.5,0.4-1.5,0.4
			l-0.5-0.2l0.3-3.2c0-0.5,0.2-0.7,0.7-0.7h2.7c0.5,0,0.7,0.2,0.7,0.7v1h-1v-0.5c0-0.2-0.1-0.2-0.2-0.2H104c-0.2,0-0.2,0.1-0.2,0.2
			l-0.2,1.4c0,0.2-0.1,0.4-0.1,0.4h0c0,0,0.4-0.2,1-0.2c1.7,0,2.8,1.1,2.8,2.6c0,1.4-1.1,2.6-2.8,2.6c-1.6,0-2.4-1.1-2.4-1.1
			L102.8,126.2z"/>
	</g>
	<g>
		<polygon fill="#FFFFFF" points="86.7,136.2 87.9,138.7 90.7,139.1 88.7,141 89.1,143.8 86.7,142.5 84.2,143.8 84.7,141
			82.7,139.1 85.4,138.7 		"/>
	</g>
	<g>
		<rect x="20.7" y="109.7" fill="#F2F2F2" width="131" height="1"/>
	</g>
</g>
</svg>
