<!-- Generator: Adobe Illustrator 18.1.1, SVG Export Plug-In  -->
<svg version="1.1"
	 xmlns="http://www.w3.org/2000/svg" xmlns:xlink="http://www.w3.org/1999/xlink" xmlns:a="http://ns.adobe.com/AdobeSVGViewerExtensions/3.0/"
	 x="0px" y="0px" width="490.7px" height="162.5px" viewBox="0 0 490.7 162.5" enable-background="new 0 0 490.7 162.5"
	 xml:space="preserve">
<defs>
</defs>
<g>
	<path fill="#0E1131" d="M488.9,48.7h-6.1v-12c0-0.9-0.8-1.7-1.7-1.7h-52.4c-0.9,0-1.7,0.8-1.7,1.7v5.1h-12.3v-5.1
		c0-0.9-0.8-1.7-1.7-1.7h-52.4c-0.9,0-1.7,0.8-1.7,1.7v5.2H339V1.7c0-0.9-0.8-1.7-1.7-1.7h-184c-0.9,0-1.7,0.8-1.7,1.7v40.1H132
		v-5.1c0-0.9-0.8-1.7-1.7-1.7H77.8c-0.9,0-1.7,0.8-1.7,1.7v5.1H63.8v-5.1c0-0.9-0.8-1.7-1.7-1.7H9.6c-0.9,0-1.7,0.8-1.7,1.7v12H1.7
		c-0.9,0-1.7,0.8-1.7,1.7v105.4c0,0.9,0.8,1.7,1.7,1.7h68.2h68.2h13.5v3.2c0,0.9,0.8,1.7,1.7,1.7h183.9c0.9,0,1.7-0.8,1.8-1.7v-3.2
		h13.5c0,0,0,0,0,0c0,0,0,0,0,0h68.2h68.2c0.9,0,1.7-0.7,1.7-1.7V50.4C490.7,49.5,489.9,48.7,488.9,48.7z M479.3,38.4v10.3h-49V38.4
		H479.3z M426.9,45.3v3.4h-6.1h-6.2v-3.4H426.9z M362.1,38.4h49v10.3h-49v-5.1V38.4z M358.7,45.3v3.4h-6.1c-0.9,0-1.7,0.8-1.7,1.7
		v103.8H339v-4.1V45.3H358.7z M335.5,3.5v40.1v104.8h-2.3v-8.9c0-0.9-0.8-1.7-1.7-1.7h-4v-8.9c0-0.9-0.8-1.7-1.7-1.7c0,0,0,0,0,0
		c0,0,0,0,0,0h-4v-8.9c0-0.9-0.8-1.7-1.7-1.7h-3.4V52.2h3.4c0.9,0,1.7-0.8,1.7-1.7v-5.2h4c0.9,0,1.7-0.8,1.7-1.7V24.7
		c0-0.9-0.8-1.7-1.7-1.7H167.7c-0.9,0-1.7,0.8-1.7,1.7v18.9c0,0.9,0.8,1.7,1.7,1.7h4v5.2c0,0.9,0.8,1.7,1.7,1.7h3.4v64.4h-3.4
		c-0.9,0-1.7,0.8-1.7,1.7v8.9h-4c-0.9,0-1.7,0.8-1.7,1.7v8.9h-6.7c-0.9,0-1.7,0.8-1.7,1.7v8.9h-2.4V3.5H335.5z M161,148.4v-7.1h6.7
		h158.2h4v7.1H161z M178.6,48.7h-3.4v-3.4h23.5v3.4h-3.4c-0.9,0-1.7,0.8-1.7,1.7v66.1h-13.2V50.4C180.3,49.5,179.5,48.7,178.6,48.7z
		 M313.2,50.4v66.1h-12.6V50.4c0-0.9-0.8-1.7-1.7-1.7h-3.4v-3.4h22.9v3.4H315C314,48.7,313.2,49.5,313.2,50.4z M196.9,52.2h3.4
		c0.9,0,1.7-0.8,1.7-1.7v-5.2h90v5.2c0,0.9,0.8,1.7,1.7,1.7h3.4v64.4h-28.7L286,86.4c0.3-0.5,0.3-1.2,0-1.7l-18.7-32.4
		c-0.3-0.5-0.9-0.8-1.5-0.8h-37.3c-0.6,0-1.2,0.3-1.5,0.8l-18.7,32.4c0,0,0,0.1,0,0.1c0,0.1-0.1,0.2-0.1,0.3c0,0,0,0.1,0,0.1
		c0,0.1-0.1,0.3-0.1,0.4c0,0.4,0.1,0.7,0.3,1l17.3,30h-28.7V52.2z M259.5,54.9v61.3h-25.2V54.9H259.5z M264.8,54.9l8.2,14.1h-10
		V54.9H264.8z M263,100.8h10.6l-8.8,15.3H263V100.8z M275.6,97.4H263V87.3h18.5L275.6,97.4z M263,83.8V72.5h12l6.5,11.3H263z
		 M230.9,69.1h-9.7l8.2-14.1h1.5V69.1z M219.3,72.5h11.7v11.3h-18.2L219.3,72.5z M230.9,87.3v10.1h-12.3l-5.8-10.1H230.9z
		 M230.9,100.8v15.3h-1.5l-8.8-15.3H230.9z M320.4,41.9c-0.1,0-0.2,0-0.3,0s-0.2,0-0.3,0h-25.7c-0.1,0-0.2,0-0.3,0s-0.2,0-0.3,0
		h-92.8c-0.1,0-0.2,0-0.3,0s-0.2,0-0.3,0h-26.3c-0.1,0-0.2,0-0.3,0s-0.2,0-0.3,0h-3.7V26.4h154.7v15.5H320.4z M178.6,120.1H315h3.4
		v7.1H175.1v-7.1H178.6z M173.4,130.7h146.7h4v7.1H169.4v-7.1H173.4z M151.6,45.3v104.9v4h-11.8V50.4c0-0.9-0.8-1.7-1.7-1.7H132
		v-3.5H151.6z M128.5,38.4v4.8c0,0.1,0,0.2,0,0.3v5.2H79.5V38.4H128.5z M76.1,45.3v3.4h-6.1h-6.1v-3.4H76.1z M11.3,38.4h49v10.3h-49
		V38.4z M3.4,52.2h64.8v102H3.4V52.2z M71.6,52.2h64.8v102H71.6V52.2z M155.1,159v-3.1v-4h4.2h172.3h4v4c0,0.1,0,0.2,0,0.3v2.8
		H155.1z M354.3,52.2h5.8c0.1,0,0.2,0,0.3,0s0.2,0,0.3,0H419v102h-64.8V52.2z M487.2,154.2h-64.7v-102h64.7V154.2z"/>
	<path fill="#0E1131" d="M434,74.4C434,74.4,434,74.4,434,74.4c0.1,0.2,0.1,0.3,0.1,0.3c0,0,0,0.1,0,0.1l9.2,15.9
		c0.3,0.5,0.9,0.8,1.5,0.8h18.4c0.6,0,1.2-0.3,1.5-0.8l9.2-15.9c0,0,0-0.1,0-0.1c0-0.1,0.1-0.2,0.1-0.3c0,0,0-0.1,0-0.1
		c0-0.1,0.1-0.3,0.1-0.4c0-0.4-0.1-0.7-0.3-1l-4-6.9c-0.1-0.2-0.2-0.3-0.3-0.5l-4.9-8.4c-0.3-0.5-0.9-0.8-1.5-0.8h-8.7
		c-0.1,0-0.3-0.1-0.5-0.1s-0.3,0-0.5,0.1h-8.7c-0.6,0-1.2,0.3-1.5,0.8L434.2,73c-0.2,0.3-0.3,0.6-0.3,1
		C433.9,74.1,433.9,74.2,434,74.4z M440.8,68.4h11.5v3.8h-13.7L440.8,68.4z M467.6,78.9h-11.8v-3.2h13.7L467.6,78.9z M469.5,72.2
		h-13.7v-3.8h11.5L469.5,72.2z M452.3,75.7v3.2h-11.8l-1.9-3.2H452.3z M442.5,82.4h9.8v5.8h-6.4L442.5,82.4z M462.2,88.2h-6.5v-5.8
		h9.8L462.2,88.2z M465.3,65h-9.5v-5.2h6.5L465.3,65z M445.9,59.7h6.4V65h-9.5L445.9,59.7z"/>
	<path fill="#0E1131" d="M429.4,109.8c-0.9,0-1.7,0.8-1.7,1.7v24.1c0,0.9,0.8,1.7,1.7,1.7h51.8c0.9,0,1.7-0.7,1.7-1.7v-24.1
		c0-0.9-0.8-1.7-1.7-1.7H429.4z M453.5,125.3v8.6h-9.1v-8.6H453.5z M444.5,121.9v-8.6h9.1v8.6H444.5z M457,125.3h9v8.6h-9V125.3z
		 M457,121.9v-8.6h9v8.6H457z M441,113.3v8.6h-9.9v-8.6H441z M431.1,125.3h9.9v8.6h-9.9V125.3z M469.5,133.9v-8.6h9.9v8.6H469.5z
		 M479.4,121.9h-9.9v-8.6h9.9V121.9z"/>
	<path fill="#0E1131" d="M365.8,74.4C365.8,74.4,365.8,74.4,365.8,74.4c0.1,0.2,0.1,0.3,0.1,0.3c0,0,0,0.1,0,0.1l9.2,15.9
		c0.3,0.5,0.9,0.8,1.5,0.8H395c0.6,0,1.2-0.3,1.5-0.8l9.2-15.9c0,0,0-0.1,0-0.1c0-0.1,0.1-0.2,0.1-0.3c0,0,0-0.1,0-0.1
		c0-0.1,0.1-0.3,0.1-0.4c0-0.4-0.1-0.7-0.3-1l-4-6.9c-0.1-0.2-0.2-0.3-0.3-0.5l-4.9-8.4c-0.3-0.5-0.9-0.8-1.5-0.8h-8.7
		c-0.1,0-0.3-0.1-0.5-0.1s-0.3,0-0.5,0.1h-8.7c-0.6,0-1.2,0.3-1.5,0.8L366.1,73c-0.2,0.3-0.3,0.6-0.3,1
		C365.7,74.1,365.8,74.2,365.8,74.4z M372.6,68.4h11.5v3.8h-13.7L372.6,68.4z M399.4,78.9h-11.8v-3.2h13.7L399.4,78.9z M401.2,72.2
		h-13.7v-3.8H399L401.2,72.2z M384.1,75.7v3.2h-11.8l-1.9-3.2H384.1z M374.3,82.4h9.8v5.8h-6.5L374.3,82.4z M394,88.2h-6.4v-5.8h9.8
		L394,88.2z M397,65h-9.5v-5.2h6.4L397,65z M377.6,59.7h6.5V65h-9.5L377.6,59.7z"/>
	<path fill="#0E1131" d="M412.9,109.8h-51.8c-0.9,0-1.7,0.8-1.7,1.7v24.1c0,0.9,0.8,1.7,1.7,1.7h51.8c0.9,0,1.7-0.7,1.7-1.7v-24.1
		C414.7,110.6,413.9,109.8,412.9,109.8z M411.2,121.9h-9.9v-8.6h9.9V121.9z M385.3,125.3v8.6h-9v-8.6H385.3z M376.3,121.9v-8.6h9
		v8.6H376.3z M388.8,125.3h9.1v8.6h-9.1V125.3z M388.8,121.9v-8.6h9.1v8.6H388.8z M372.8,113.3v8.6h-9.9v-8.6H372.8z M362.9,125.3
		h9.9v8.6h-9.9V125.3z M401.3,133.9v-8.6h9.9v8.6H401.3z"/>
	<path fill="#0E1131" d="M16.5,74.4C16.6,74.4,16.6,74.4,16.5,74.4c0.1,0.2,0.1,0.3,0.1,0.3c0,0,0,0.1,0,0.1l9.2,15.9
		c0.3,0.5,0.9,0.8,1.5,0.8h18.4c0.6,0,1.2-0.3,1.5-0.8l9.2-15.9c0,0,0-0.1,0-0.1c0-0.1,0.1-0.2,0.1-0.3c0,0,0-0.1,0-0.1
		c0-0.1,0.1-0.3,0.1-0.4c0-0.4-0.1-0.7-0.3-1l-4-6.9c-0.1-0.2-0.2-0.3-0.3-0.5l-4.9-8.4c-0.3-0.5-0.9-0.8-1.5-0.8h-8.7
		c-0.1,0-0.3-0.1-0.5-0.1s-0.3,0-0.5,0.1h-8.7c-0.6,0-1.2,0.3-1.5,0.8L16.8,73c-0.2,0.3-0.3,0.6-0.3,1
		C16.5,74.1,16.5,74.2,16.5,74.4z M23.4,68.4h11.5v3.8H21.2L23.4,68.4z M50.1,78.9H38.3v-3.2H52L50.1,78.9z M52,72.2H38.3v-3.8h11.5
		L52,72.2z M34.9,75.7v3.2H23l-1.9-3.2H34.9z M25,82.4h9.8v5.8h-6.5L25,82.4z M44.8,88.2h-6.4v-5.8h9.8L44.8,88.2z M47.8,65h-9.5
		v-5.2h6.4L47.8,65z M28.4,59.7h6.5V65h-9.5L28.4,59.7z"/>
	<path fill="#0E1131" d="M61.3,109.8H9.5c-0.9,0-1.7,0.8-1.7,1.7v24.1c0,0.9,0.8,1.7,1.7,1.7h51.8c0.9,0,1.7-0.7,1.7-1.7v-24.1
		C63,110.6,62.2,109.8,61.3,109.8z M59.6,121.9h-9.9v-8.6h9.9V121.9z M33.7,125.3v8.6h-9.1v-8.6H33.7z M24.6,121.9v-8.6h9.1v8.6
		H24.6z M37.1,125.3h9.1v8.6h-9.1V125.3z M37.1,121.9v-8.6h9.1v8.6H37.1z M21.2,113.3v8.6h-9.9v-8.6H21.2z M11.2,125.3h9.9v8.6h-9.9
		V125.3z M49.7,133.9v-8.6h9.9v8.6H49.7z"/>
	<path fill="#0E1131" d="M84.7,74.4C84.7,74.4,84.7,74.4,84.7,74.4c0.1,0.2,0.1,0.3,0.1,0.3c0,0,0,0.1,0,0.1l9.2,15.9
		c0.3,0.5,0.9,0.8,1.5,0.8H114c0.6,0,1.2-0.3,1.5-0.8l9.2-15.9c0,0,0-0.1,0-0.1c0-0.1,0.1-0.2,0.1-0.3c0,0,0-0.1,0-0.1
		c0-0.1,0.1-0.3,0.1-0.4c0-0.4-0.1-0.7-0.3-1l-4-6.9c-0.1-0.2-0.2-0.3-0.3-0.5l-4.9-8.4c-0.3-0.5-0.9-0.8-1.5-0.8h-8.7
		c-0.1,0-0.3-0.1-0.5-0.1s-0.3,0-0.5,0.1h-8.7c-0.6,0-1.2,0.3-1.5,0.8L85,73c-0.2,0.3-0.3,0.6-0.3,1C84.7,74.1,84.7,74.2,84.7,74.4z
		 M91.6,68.4h11.5v3.8H89.4L91.6,68.4z M118.3,78.9h-11.8v-3.2h13.7L118.3,78.9z M120.2,72.2h-13.7v-3.8H118L120.2,72.2z
		 M103.1,75.7v3.2H91.3l-1.9-3.2H103.1z M93.3,82.4h9.8v5.8h-6.4L93.3,82.4z M113,88.2h-6.5v-5.8h9.8L113,88.2z M116,65h-9.5v-5.2
		h6.5L116,65z M96.6,59.7h6.4V65h-9.5L96.6,59.7z"/>
	<path fill="#0E1131" d="M129.5,109.8H77.7c-0.9,0-1.7,0.8-1.7,1.7v24.1c0,0.9,0.8,1.7,1.7,1.7h51.8c0.9,0,1.7-0.7,1.7-1.7v-24.1
		C131.2,110.6,130.4,109.8,129.5,109.8z M127.8,121.9h-9.9v-8.6h9.9V121.9z M101.9,125.3v8.6h-9.1v-8.6H101.9z M92.8,121.9v-8.6h9.1
		v8.6H92.8z M105.3,125.3h9.1v8.6h-9.1V125.3z M105.3,121.9v-8.6h9.1v8.6H105.3z M89.3,113.3v8.6h-9.9v-8.6H89.3z M79.4,125.3h9.9
		v8.6h-9.9V125.3z M117.8,133.9v-8.6h9.9v8.6H117.8z"/>
	<path fill="#0E1131" d="M247.4,92.5c2.1,0,3.8-1.7,3.8-3.8c0-2.1-1.7-3.8-3.8-3.8c-2.1,0-3.8,1.7-3.8,3.8
		C243.6,90.7,245.3,92.5,247.4,92.5z M247.4,88.3c0.2,0,0.4,0.2,0.4,0.4c0,0.2-0.2,0.4-0.4,0.4c-0.2,0-0.4-0.2-0.4-0.4
		C247,88.4,247.2,88.3,247.4,88.3z"/>
	<path fill="#0E1131" d="M292.9,18.1h5c0.5,0,0.9-0.4,0.9-0.9c0-0.5-0.4-0.9-0.9-0.9H294V9.5c0-0.6-0.5-1.1-1.1-1.1
		c-0.6,0-1.1,0.5-1.1,1.1h0v7.6C291.9,17.7,292.4,18.1,292.9,18.1z"/>
	<path fill="#0E1131" d="M284.9,18.4c3,0,5.1-2.2,5.1-5v0c0-2.7-2.1-5-5.1-5c-3,0-5.1,2.2-5.1,5C279.8,16.1,282,18.3,284.9,18.4z
		 M282,13.3c0-1.6,1.2-3,2.9-3c1.7,0,2.9,1.4,2.9,3.1c0,1.6-1.2,3-2.9,3S282,15,282,13.3L282,13.3z"/>
	<path fill="#0E1131" d="M197.7,18.2c0.6,0,1.1-0.5,1.1-1.1V12l4.2,5.6c0.3,0.4,0.6,0.6,1.1,0.6h0.1c0.6,0,1.1-0.5,1.1-1.1V9.5
		c0-0.6-0.5-1.1-1.1-1.1s-1.1,0.5-1.1,1.1v5L199,9.1c-0.3-0.4-0.6-0.6-1.1-0.6h-0.2c-0.6,0-1.1,0.5-1.1,1.1h0v7.6
		C196.6,17.8,197.1,18.2,197.7,18.2z"/>
	<path fill="#0E1131" d="M231,18.2h5.4c0.5,0,0.9-0.4,0.9-0.9c0-0.5-0.4-0.9-0.9-0.9h-4.3v-2h3.7c0.5,0,0.9-0.4,0.9-0.9
		c0-0.5-0.4-0.9-0.9-0.9H232v-2h4.3c0.5,0,0.9-0.4,0.9-0.9c0-0.5-0.4-0.9-0.9-0.9H231c-0.6,0-1.1,0.5-1.1,1.1v7.5
		C229.9,17.7,230.4,18.2,231,18.2z"/>
	<path fill="#0E1131" d="M220.2,18.2h2.7c3,0,5.1-2.1,5.1-4.8v0c0-2.7-2.1-4.8-5.1-4.8h-2.7c-0.6,0-1.1,0.5-1.1,1.1v7.5
		C219.2,17.7,219.6,18.2,220.2,18.2z M221.3,10.4h1.6c1.7,0,2.9,1.2,2.9,2.9v0c0,1.7-1.2,2.9-2.9,2.9v0h-1.6V10.4z"/>
	<path fill="#0E1131" d="M273.2,18.4c3,0,5.1-2.2,5.1-5v0c0-2.7-2.1-5-5.1-5c-3,0-5.1,2.2-5.1,5C268.1,16.1,270.3,18.3,273.2,18.4z
		 M270.4,13.3c0-1.6,1.2-3,2.9-3s2.9,1.4,2.9,3.1c0,1.6-1.2,3-2.9,3C271.6,16.4,270.4,15,270.4,13.3L270.4,13.3z"/>
	<path fill="#0E1131" d="M212.1,18.4c3,0,5.1-2.2,5.1-5v0c0-2.7-2.1-5-5.1-5c-3,0-5.1,2.2-5.1,5C207.1,16.1,209.2,18.3,212.1,18.4z
		 M209.3,13.3c0-1.6,1.2-3,2.9-3c1.7,0,2.9,1.4,2.9,3.1c0,1.6-1.2,3-2.9,3S209.3,15,209.3,13.3L209.3,13.3z"/>
	<path fill="#0E1131" d="M259.2,18.2c0.6,0,1.1-0.5,1.1-1.1v-2.9h3.9v2.9c0,0.6,0.5,1.1,1.1,1.1s1.1-0.5,1.1-1.1V9.5
		c0-0.6-0.5-1.1-1.1-1.1s-1.1,0.5-1.1,1.1v2.8h-3.9V9.5c0-0.6-0.5-1.1-1.1-1.1c-0.6,0-1.1,0.5-1.1,1.1v7.7
		C258.1,17.8,258.6,18.2,259.2,18.2z"/>
	<path fill="#0E1131" d="M252.4,18.4c1.5,0,2.5-0.5,3.4-1.2c0.2-0.2,0.4-0.4,0.4-0.7c0-0.5-0.4-1-1-1c-0.3,0-0.5,0.1-0.6,0.2
		c-0.6,0.5-1.2,0.7-2.1,0.7c-1.6,0-2.8-1.4-2.8-3v0c0-1.6,1.2-3,2.8-3c0.7,0,1.4,0.2,2,0.7c0.2,0.1,0.3,0.2,0.6,0.2
		c0.6,0,1.1-0.4,1.1-1c0-0.4-0.2-0.7-0.4-0.8c-0.8-0.6-1.8-1-3.2-1c-3,0-5,2.2-5,5h0C247.5,16.1,249.6,18.3,252.4,18.4z"/>
	<path fill="#0E1131" d="M238.9,17.2L238.9,17.2c1.1,0.7,2.4,1.2,3.6,1.2c2.1,0,3.5-1.1,3.5-3v0c0-1.7-1.1-2.4-3.1-2.9
		c-1.7-0.4-2.1-0.6-2.1-1.3v0c0-0.5,0.4-0.8,1.2-0.8c0.7,0,1.3,0.2,2,0.6c0.2,0.1,0.3,0.1,0.5,0.1c0.5,0,1-0.4,1-1
		c0-0.4-0.2-0.7-0.5-0.8c-0.9-0.5-1.9-0.8-3.1-0.8c-2,0-3.4,1.2-3.4,2.9v0c0,1.9,1.3,2.4,3.2,3c1.6,0.4,1.9,0.7,1.9,1.2v0
		c0,0.6-0.5,0.9-1.4,0.9c-0.9,0-1.8-0.3-2.5-0.9c-0.1-0.1-0.3-0.2-0.6-0.2c-0.5,0-1,0.4-1,1C238.5,16.7,238.7,17,238.9,17.2z"/>
	<path fill="#0E1131" d="M314.8,32.4H177.6c-0.9,0-1.7,0.8-1.7,1.7c0,0.9,0.8,1.7,1.7,1.7h137.1c0.9,0,1.7-0.8,1.7-1.7
		C316.5,33.1,315.7,32.4,314.8,32.4z"/>
</g>
</svg>
