<?xml version="1.0" encoding="utf-8"?>
<!DOCTYPE svg PUBLIC "-//W3C//DTD SVG 1.1//EN" "http://www.w3.org/Graphics/SVG/1.1/DTD/svg11.dtd">
<svg xmlns="http://www.w3.org/2000/svg" xmlns:xlink="http://www.w3.org/1999/xlink" style="display: none">
    <symbol id="svg-apple" viewBox="0 0 170 170">
  <path d="M150.37 130.25c-2.45 5.66-5.35 10.87-8.71 15.66-4.58 6.53-8.33 11.05-11.22 13.56-4.48 4.12-9.28 6.23-14.42 6.35-3.69 0-8.14-1.05-13.32-3.18-5.197-2.12-9.973-3.17-14.34-3.17-4.58 0-9.492 1.05-14.746 3.17-5.262 2.13-9.5 3.24-12.742 3.35-4.93.21-9.842-1.96-14.746-6.52-3.13-2.73-7.045-7.41-11.735-14.04-5.03-7.08-9.168-15.29-12.41-24.65-3.47-10.11-5.21-19.9-5.21-29.378 0-10.857 2.346-20.22 7.045-28.068C27.508 57.03 32.42 52.06 38.57 48.41s12.793-5.51 19.948-5.63c3.915 0 9.05 1.21 15.43 3.59 6.36 2.39 10.446 3.6 12.237 3.6 1.34 0 5.877-1.416 13.57-4.24 7.275-2.617 13.415-3.7 18.445-3.274 13.63 1.1 23.87 6.473 30.68 16.153-12.19 7.385-18.22 17.73-18.1 31 .11 10.338 3.86 18.94 11.23 25.77 3.34 3.17 7.07 5.62 11.22 7.36-.9 2.61-1.85 5.11-2.86 7.51zM119.11 7.24c0 8.102-2.96 15.667-8.86 22.67-7.12 8.323-15.732 13.133-25.07 12.374-.12-.972-.19-1.995-.19-3.07 0-7.778 3.387-16.102 9.4-22.908 3.002-3.446 6.82-6.31 11.45-8.597 4.62-2.253 8.99-3.498 13.1-3.71.12 1.082.17 2.165.17 3.24z"/>
</symbol>
<symbol id="svg-copy" viewBox="0 0 214.1 128.7">
  <path d="M52.9 0L0 64.4l52.9 64.3 12.5-20.5-35.6-43.8 35.6-43.8M86 127.2h23.2l36.9-126h-23.2M161.2 0l-12.5 20.6 35.6 43.8-35.6 43.8 12.5 20.5 52.9-64.3"/>
</symbol>
<symbol id="svg-cross" viewBox="0 0 47.9 47.9">
  <path d="M31.7 23.9L46.3 9.4c2.1-2.1 2.1-5.6 0-7.8-2.1-2.1-5.6-2.1-7.8 0L23.9 16.2 9.4 1.6C7.3-.5 3.8-.5 1.6 1.6c-2.1 2.1-2.1 5.6 0 7.8L16.2 24 1.6 38.5c-2.1 2.1-2.1 5.6 0 7.8 1.1 1.1 2.5 1.6 3.9 1.6s2.8-.5 3.9-1.6L24 31.7l14.6 14.6c1.1 1.1 2.5 1.6 3.9 1.6s2.8-.5 3.9-1.6c2.1-2.1 2.1-5.6 0-7.8L31.7 23.9z"/>
</symbol>
<symbol id="svg-cursor" viewBox="0 0 112 158">
  <path d="M0 0h20v20H0zM23 0h20v20H23zM46 0h20v20H46zM69 0h20v20H69zM92 0h20v20H92zM0 23h20v20H0zM23 23h20v20H23zM46 23h20v20H46zM69 23h20v20H69zM92 23h20v20H92zM0 46h20v20H0zM23 46h20v20H23zM46 46h20v20H46zM69 46h20v20H69zM92 46h20v20H92zM0 69h20v20H0zM23 69h20v20H23zM46 69h20v20H46zM69 69h20v20H69zM92 69h20v20H92zM0 92h20v20H0zM23 92h20v20H23zM46 92h20v20H46zM69 92h20v20H69zM92 92h20v20H92zM0 115h20v20H0zM23 115h20v20H23zM46 115h20v20H46zM69 115h20v20H69zM92 115h20v20H92zM0 138h20v20H0zM23 138h20v20H23zM46 138h20v20H46zM69 138h20v20H69zM92 138h20v20H92z"/>
</symbol>
<symbol id="svg-edit" viewBox="0 0 612 612">
  <path d="M545.062 286.875c-15.854 0-28.688 12.852-28.688 28.688v239.062h-459v-459h239.062c15.854 0 28.688-12.852 28.688-28.688S312.292 38.25 296.438 38.25H38.25C17.136 38.25 0 55.367 0 76.5v497.25C0 594.883 17.136 612 38.25 612H535.5c21.114 0 38.25-17.117 38.25-38.25V315.562c0-15.835-12.833-28.687-28.688-28.687zM605.325 88.95L523.03 6.655C518.556 2.18 512.684 0 506.812 0s-11.743 2.18-16.218 6.675l-318.47 318.45v114.75h114.75l318.45-318.45c4.494-4.495 6.675-10.366 6.675-16.237 0-5.89-2.18-11.743-6.675-16.238zM267.75 382.5H229.5v-38.25L506.812 66.938l38.25 38.25L267.75 382.5z"/>
</symbol>
<symbol id="svg-github-dk" viewBox="0 0 32 31.2">
  <path d="M16 0C7.2 0 0 7.2 0 16c0 7.1 4.6 13.1 10.9 15.2.8.1 1.1-.3 1.1-.8v-2.8c-4.4 1-5.4-2.1-5.4-2.1-.7-1.8-1.8-2.3-1.8-2.3-1.5-1 .1-1 .1-1 1.6.1 2.5 1.6 2.5 1.6 1.4 2.4 3.7 1.7 4.7 1.3.1-1 .6-1.7 1-2.1-3.6-.4-7.3-1.8-7.3-7.9 0-1.7.6-3.2 1.6-4.3-.2-.4-.7-2 .2-4.2 0 0 1.3-.4 4.4 1.6 1.3-.4 2.6-.5 4-.5s2.7.2 4 .5c3.1-2.1 4.4-1.6 4.4-1.6.9 2.2.3 3.8.2 4.2 1 1.1 1.6 2.5 1.6 4.3 0 6.1-3.7 7.5-7.3 7.9.6.5 1.1 1.5 1.1 2.9v4.4c0 .4.3.9 1.1.7C27.4 29.1 32 23.1 32 16c0-8.8-7.2-16-16-16z"/>
</symbol>
<symbol id="svg-github" viewBox="0 0 32 31.2">
  <path d="M16 0C7.2 0 0 7.2 0 16c0 7.1 4.6 13.1 10.9 15.2.8.1 1.1-.3 1.1-.8v-2.8c-4.4 1-5.4-2.1-5.4-2.1-.7-1.8-1.8-2.3-1.8-2.3-1.5-1 .1-1 .1-1 1.6.1 2.5 1.6 2.5 1.6 1.4 2.4 3.7 1.7 4.7 1.3.1-1 .6-1.7 1-2.1-3.6-.4-7.3-1.8-7.3-7.9 0-1.7.6-3.2 1.6-4.3-.2-.4-.7-2 .2-4.2 0 0 1.3-.4 4.4 1.6 1.3-.4 2.6-.5 4-.5s2.7.2 4 .5c3.1-2.1 4.4-1.6 4.4-1.6.9 2.2.3 3.8.2 4.2 1 1.1 1.6 2.5 1.6 4.3 0 6.1-3.7 7.5-7.3 7.9.6.5 1.1 1.5 1.1 2.9v4.4c0 .4.3.9 1.1.7C27.4 29.1 32 23.1 32 16c0-8.8-7.2-16-16-16z"/>
</symbol>
<symbol id="svg-home" viewBox="0 0 460.298 460.297">
  <path d="M230.15 120.94L65.985 256.273c0 .19-.048.472-.144.855-.094.38-.144.655-.144.85v137.042c0 4.948 1.81 9.236 5.426 12.847 3.616 3.612 7.898 5.43 12.847 5.43H193.6V303.664H266.7v109.64h109.63c4.947 0 9.235-1.814 12.846-5.435 3.617-3.608 5.432-7.9 5.432-12.848v-137.04c0-.76-.104-1.335-.288-1.708L230.148 120.94z"/>
  <path d="M457.122 225.438L394.6 173.476V56.99c0-2.664-.856-4.854-2.574-6.568-1.704-1.712-3.894-2.568-6.563-2.568h-54.816c-2.666 0-4.855.856-6.57 2.568-1.71 1.714-2.566 3.905-2.566 6.567v55.672l-69.66-58.245c-6.085-4.95-13.32-7.423-21.695-7.423s-15.608 2.474-21.698 7.423L3.172 225.437c-1.903 1.52-2.946 3.567-3.14 6.137-.193 2.568.472 4.81 1.997 6.713l17.7 21.128c1.525 1.712 3.52 2.76 5.996 3.142 2.285.192 4.57-.476 6.855-1.998L230.15 95.816l197.57 164.74c1.525 1.33 3.52 1.992 5.995 1.992h.858c2.47-.377 4.463-1.43 5.996-3.14l17.702-21.124c1.522-1.906 2.19-4.145 1.99-6.716-.194-2.563-1.24-4.61-3.14-6.132z"/>
</symbol>
<symbol id="svg-linux" viewBox="0 0 512 512">
  <path d="M231.288 142.313c-4.52.482-2.96 4.64-5.476 4.73-2.478.09-1.973-5.294 5.476-4.73zm13.626.686c4.4-1.13 4.422 3.298 6.824 2.492 2.335-.783-.037-5.627-6.824-2.493zM396.518 433.09c-13.588 6.832-31.312 22.01-37.94 28.3-4.873 4.662-25.293 6.975-36.637 1.137-13.444-6.923-6.31-17.725-27.07-18.236-10.32-.24-20.353-.332-30.408-.21-8.896.12-17.784.39-26.853.865-31.17.27-34.22 20.652-54.076 19.906-13.59-.504-30.74-11.223-60.19-17.392-20.7-4.31-40.57-5.333-44.826-14.492-4.25-9.13 5.243-19.366 5.875-28.465.775-11.863-8.986-27.997-1.77-34.25 5.957-5.175 19.01-1.378 27.425-6.078 8.948-4.965 12.54-9.1 12.54-20 3.293 11.134-.15 20.36-7.546 24.88-4.4 2.66-12.58 4.067-19.305 3.382-5.326-.504-8.625.36-10.244 2.39-2.064 2.635-1.4 7.245 1.197 13.384 2.614 6.14 5.755 10.033 5.333 17.543-.422 7.516-8.685 16.44-7.366 22.76.512 2.427 2.9 4.453 8.624 6.072 9.492 2.667 26.432 5.085 43.147 9.16 18.582 4.557 37.767 13.144 49.69 11.494 35.65-4.964 15.32-43.198 9.552-52.29-30.093-47.37-49.993-78.38-65.924-66.073-4.158 3.2-4.316-8.06-4.135-12.398.687-15.57 8.596-21.016 13.296-33.135 8.798-22.695 15.66-48.69 29.27-62.127 10.132-12.963 25.935-34.302 28.963-45.563-2.547-24.487-3.33-50.263-3.723-72.837-.384-24.013 3.42-45.08 30.537-59.814 6.613-3.594 15.207-4.912 24.314-5.002 16.284-.18 34.24 4.376 45.713 12.88 18.29 13.558 29.784 42.415 28.443 63.167-1.085 15.976 1.793 32.72 6.915 49.932 6.13 20.442 15.833 34.814 31.244 51.16 18.574 19.696 33.03 58.503 37.097 83.08 3.833 22.96-1.16 37.15-6.2 37.866-7.502 1.107-12.18 24.94-35.68 23.832-14.998-.723-16.467-9.58-20.624-17.128-6.682-12.067-13.476-8.293-16.203 4.286-1.408 6.432-.384 15.66 1.68 22.838 4.188 14.704 2.75 28.653.25 45.563-4.8 32.457 22.68 38.596 41.216 23.17 18.288-15.23 22.205-17.656 45.352-25.557 34.904-11.954 23.177-22.522 4.406-28.834-16.827-5.657-17.52-34.092-11.494-39.455 1.34 30.536 17.234 34.965 23.976 39.13 28.876 17.925-10.91 32.628-27.842 41.155zm-77.726-89.446c3.178-3.773 6.922-4.195 11.855-4.286.753-18.612 29.73-17.24 39.22-9.453 0-4.315-9.105-8.18-12.75-10.003 6.318-21.015 3.35-29.46-.837-49.307-3.18-15.147-16.98-35.53-27.787-41.91 2.727 2.388 7.91 9.34 13.385 19.54 9.43 17.557 18.74 43.506 12.54 65.297-2.386 8.323-7.84 9.37-11.583 9.792-16.617 1.732-6.848-19.637-13.747-49.073-7.683-32.72-15.562-35.176-17.542-37.744-9.52-42.574-20.112-38.325-23.11-54.4-2.688-14.22 12.398-25.985-8.112-29.963-6.252-1.228-15.2-7.57-18.77-8.022-3.533-.482-5.266-23.47 7.697-24.405 12.964-.957 15.442 14.643 12.897 20.782-3.684 6.08.27 8.353 6.68 6.373 5.244-1.612 1.862-15.27 3.112-17.294-3.383-19.553-11.548-22.37-20.052-24.012-32.276 2.478-17.784 38.227-21.053 34.784-4.572-4.85-18.32-.27-18.25-3.382.293-18.23-5.816-28.796-14.23-29.015-9.37-.27-13.234 12.85-13.8 20.24-.535 7.095 4.22 21.88 7.69 20.75 2.275-.752 6.17-5.324 2.004-5.302-2.155.03-5.41-5.024-5.748-11.17-.324-6.132 1.92-12.3 9.883-11.977 9.34.362 9.25 18.605 8.232 19.313-2.99 2.07-6.824 6.085-7.238 6.77-2.97 4.972-8.927 6.2-11.11 8.384-4.16 4.157-5.003 8.857-1.885 10.658 10.682 6.13 7.21 12.955 22.153 13.588 9.814.385 17.204-1.53 23.885-3.57 5.205-1.574 21.92-5.137 25.444-11.275 1.53-2.606 3.45-2.697 4.73-1.95 2.244 1.294 2.727 5.633-3.05 7.185-8.264 2.245-16.61 6.65-23.924 9.58-7.3 2.96-9.634 4.1-16.52 5.364-15.516 2.78-26.972-5.604-16.562 4.46 3.45 3.352 6.772 5.445 15.698 5.084 19.547-.776 41.45-24.247 43.612-13.74.452 2.155-6.19 5.085-11.373 7.66-18.326 9.018-31.23 26.824-42.965 20.662-10.5-5.536-20.947-31.583-20.767-19.915.294 17.994-23.72 34.01-12.67 54.49-7.155 1.95-23.47 36.372-25.813 54.3-1.28 10.152.973 22.905-1.46 30.03-3.534 10.298-19.577-9.814-14.456-34.46.92-4.34.144-5.258-1.017-3.164-6.523 11.526-2.94 27.6 2.206 38.884 2.253 4.88 7.518 7.035 11.41 11.38 8.407 9.4 40.57 33.257 46.4 38.974 7.065 6.944 5.085 22.875-9.935 24.397 7.7 14.522 15.2 15.9 15.088 39.643 8.708-4.678 5.205-14.907 1.56-21.648-2.546-4.61-5.875-6.703-5.152-7.78.543-.813 5.024-4.67 7.72-1.65 7.933 8.89 22.907 10.48 39.01 8.475 16.075-2.04 33.317-7.66 41.286-20.473 3.736-6.02 6.433-8.15 8.165-7.096 1.71 1.077 2.456 5.325 2.274 12.15-.202 7.576-3.373 15.447-5.347 21.737-2.223 7.126-2.907 12.18 4.037 12.45 2.064-13.174 5.688-26.137 6.734-39.242 1.17-14.91-9.63-42.665 2.008-56.494zm-98.523-211.69c-.536 2.94-.325 4.77 1.71 4.77.33 0 .684-.07.812-.814.98-5.838-2.04-10.086-3.27-10.425-2.87-.716-2.508 3.382-1.017 3.058.904-.182 2.125 1.317 1.764 3.412zm53.056-8.02c-2.938.27-2.094 1.73-.633 2.153 1.913.57 3.714 3.825 4.128 7.366.03.324 2.456-.512 2.456-1.288.182-5.665-4.67-8.347-5.95-8.233z"/>
</symbol>
<symbol id="svg-logo" viewBox="0 0 171.3 167.4">
  <path d="M120.7 97.8c4.9 0 8.9-4.1 8.9-9.4 0-5.2-4-9.1-8.9-9.1s-8.9 3.9-8.9 9.1c0 5.3 3.9 9.4 8.9 9.4zM40.8 49.9c2 0 3.5-.3 4.9-.9 2.8-1.2 4.4-4 4.4-7.8 0-3.5-1.4-6.2-3.9-7.5-1.4-.7-3.2-1.1-5.3-1.1h-8.2v17.2h8.1v.1zM134.2 49.9c2 0 3.5-.3 4.9-.9 2.8-1.2 4.4-4 4.4-7.8 0-3.5-1.4-6.2-3.9-7.5-1.4-.7-3.2-1.1-5.3-1.1H126v17.2h8.2v.1z"/>
  <path d="M0 0v125.7l85.7 41.7 85.6-41.7V0H0zm167.5 122l-81.8 39.8-.4-.2L3.8 122V4.7h163.7V122z"/>
  <path d="M165.6 120.7V6.7H5.8v114l79.9 38.8 79.9-38.8zM92 127.1c-2.1 0-2.8-1.8-2.8-4s.7-4 2.8-4 2.7 1.8 2.7 4-.7 4-2.7 4zm8.4-.2h-4.5v-.9h1.7v-5-.5s-.1.2-.4.5l-.7.7-.7-.7 1.9-1.8h1v6.8h1.7v.9zm3.1.3c-1.6 0-2.4-1.1-2.4-1.1l.7-.9s.6.9 1.8.9c1 0 1.7-.7 1.7-1.6 0-1-.8-1.6-1.8-1.6-.9 0-1.5.4-1.5.4l-.5-.2.3-3.2c0-.5.2-.7.7-.7h2.7c.5 0 .7.2.7.7v1h-1v-.5c0-.2-.1-.2-.2-.2H103c-.2 0-.2.1-.2.2l-.2 1.4c0 .2-.1.4-.1.4s.4-.2 1-.2c1.7 0 2.8 1.1 2.8 2.6 0 1.4-1.1 2.6-2.8 2.6zm10.8-60.6h5.5V32.3h-5.5v-4.8h20.5c2.7 0 5.3.2 7.5 1.2 4.5 1.9 7.5 6.6 7.5 12.4 0 6.2-3.2 11.1-8.3 12.9-2.1.7-4.2.9-6.6.9H126v11.6h5.5v4.8h-17.2v-4.7zm34.5 30.9v1.9h-12.2V77.6h2.1v19.9h10.1zm-28.1-20.3c6.2 0 11.1 4.9 11.1 11.1 0 6.4-4.9 11.4-11.1 11.4s-11.1-5-11.1-11.4c0-6.2 4.9-11.1 11.1-11.1zM61.6 66.6h5.5V32.3h-5.5v-4.8h17.2v4.8h-5.5V47H96V32.3h-5.5v-4.8h17.2v4.8h-5.5v34.3h5.5v4.8H90.5v-4.8H96V52.1H73.3v14.5h5.5v4.8H61.6v-4.8zm44.6 21.7c0 6.4-4.9 11.4-11.1 11.4-6.2 0-11.1-5-11.1-11.4 0-6.2 5-11.1 11.1-11.1 6.2 0 11.1 4.9 11.1 11.1zm-41.8 1.1v10h-2.1V77.6h2.1v9.9H77v-9.9h2.1v21.8H77v-10H64.4zM57 80l-1.1 1.6s-2.5-2.4-6.6-2.4c-5.1 0-8.8 4-8.8 9.1 0 5.2 3.7 9.5 8.8 9.5 4.4 0 7.1-2.9 7.1-2.9l1.2 1.5s-3 3.4-8.3 3.4c-6.4 0-11-5.1-11-11.4-.1-6.4 4.6-11.2 10.9-11.2 5.2 0 7.8 2.8 7.8 2.8zM21 66.6h5.5V32.3H21v-4.8h20.5c2.7 0 5.3.2 7.5 1.2 4.5 1.9 7.5 6.6 7.5 12.4 0 6.2-3.2 11.1-8.3 12.9-2.1.8-4.2 1-6.6 1h-8.9v11.6h5.5v4.8H21v-4.8zm.8 16.4c0-3.1 2.8-5.9 6.8-5.9 3.8 0 5.8 2.1 5.8 2.1L33.3 81s-1.9-1.9-4.8-1.9c-2.8 0-4.6 1.8-4.6 3.8 0 5.2 10.9 3.7 10.9 10.9 0 3.3-2.5 5.9-6.6 5.9-4.5 0-6.9-2.8-6.9-2.8l1.4-1.6s2.3 2.4 5.7 2.4c2.4 0 4.3-1.4 4.3-3.8 0-5.5-10.9-4.1-10.9-10.9zm-2.1 25.7h131v1h-131v-1zm65.7 11.4c-.7 0-1.2.4-1.2.7v.3h-1v-.7c0-1 1.4-1.4 2.3-1.4 1.4 0 2.4.9 2.4 2.2 0 2.7-3.9 2.7-3.9 4.5 0 .2.1.2.3.2H87c.2 0 .2-.1.2-.2v-.5h1v1c0 .5-.2.7-.7.7h-4c-.6 0-.7-.3-.7-.9 0-2.8 4-2.6 4-4.7 0-.7-.5-1.2-1.4-1.2zm-15.1 6.2c0 .5-.2.7-.7.7h-3.5c-.5 0-.7-.2-.7-.7v-6.2h-.7v-.9h4.6c.5 0 .7.2.7.7v1h-1v-.5c0-.2-.1-.2-.2-.2h-2.2v2.4h2.7v.9h-2.7v2.3c0 .2.1.2.2.2h2.3c.2 0 .2-.1.2-.2v-.5h1v1zm2.9.7c-1.5 0-2.2-1-2.2-1l.4-.6s.7.8 1.7.8c.5 0 1-.2 1-.7 0-1-3-.9-3-2.7 0-1.1.9-1.6 2.1-1.6.7 0 1.8.2 1.8 1.1v.5h-1v-.3c0-.3-.5-.5-.8-.5-.6 0-1 .2-1 .7 0 1.1 3 .8 3 2.7 0 1-.9 1.6-2 1.6zm5.8 0h-.4c-.7 0-2.1-.2-2.1-2.1v-2.7h-.7v-.9h.7v-1.5h1v1.5h1.3v.9h-1.3v2.6c0 1.1.8 1.3 1.2 1.3h.3v.9zm2.7 11.1l2.7-.4 1.3-2.5 1.2 2.5 2.8.4-2 1.9.4 2.8-2.4-1.3-2.5 1.3.5-2.8-2-1.9z"/>
  <path d="M86.2 88.4c.1 5.3 4 9.4 8.9 9.4s8.9-4.1 8.9-9.4c0-5.2-4-9.1-8.9-9.1s-8.9 3.9-8.9 9.1zM92 120.1c-1.3 0-1.6 1.3-1.6 3s.4 3 1.6 3 1.6-1.4 1.6-3c0-1.7-.4-3-1.6-3z"/>
</symbol>
<symbol id="svg-mail" viewBox="0 0 22 16">
  <path d="M21.3 16H.7L8 8.7l3 2.3 3-2.3 7.3 7.3zm.7-.7V2.5L14.8 8l7.2 7.3zm-22 0V2.5L7.2 8 0 15.3zm22-14V0H0v1.3l11 8.4 11-8.4z"/>
</symbol>
<symbol id="svg-menu" viewBox="0 0 25 20">
  <path d="M0 2C0 .9.9 0 2 0h21c1.1 0 2 .9 2 2s-.9 2-2 2H2C.9 4 0 3.1 0 2zm0 8c0-1.1.9-2 2-2h21c1.1 0 2 .9 2 2s-.9 2-2 2H2c-1.1 0-2-.9-2-2zm0 8c0-1.1.9-2 2-2h21c1.1 0 2 .9 2 2s-.9 2-2 2H2c-1.1 0-2-.9-2-2z"/>
</symbol>
<symbol id="svg-node-school-logo" viewBox="0 0 241.7 279.1">
  <path stroke="#000" stroke-width="20" stroke-miterlimit="10" d="M231.7 203.5l-110.8 64-110.9-64v-128l110.9-64 110.8 64z"/>
</symbol>
<symbol id="svg-node-school" viewBox="0 0 270.4 312.3">
  <path d="M261.9 229.3l-126.7 73.1L8.5 229.3V83L135.2 9.8 261.9 83"/>
  <path d="M135.2 312.3L0 234.2V78.1L135.2 0l135.2 78.1v156.1l-135.2 78.1zM17 224.4l118.2 68.2 118.2-68.2V87.9L135.2 19.6 17 87.9v136.5z"/>
</symbol>
<symbol id="svg-pencil" viewBox="0 0 105.6 105.6">
  <path d="M24.9 99.3l70.4-70.4-18.5-18.6L6.3 80.7c-.3.3-.6.7-.8 1.2L0 102.7V103.8c0 .1.1.2.1.2 0 .1.1.1.1.2s.1.1.1.2.1.1.1.2.1.1.2.2l.2.2c.1 0 .1.1.2.1s.1.1.2.1.1.1.2.1.2.1.2.1h1.1l20.8-5.5c.7.1 1.1-.2 1.4-.6zM8.5 97.2c-.5-.5-1.3-.7-2-.6l3.2-12.1L21.2 96 9.1 99.1c.1-.7-.1-1.4-.6-1.9zM98.5 25.7L79.9 7.1 87.1 0s12.7 4.5 18.6 18.6l-7.2 7.1z"/>
</symbol>
<symbol id="svg-slack" viewBox="0 0 125.1 125.1">
  <path d="M68.213 51.79l5.4 16.12-16.69 5.59-5.4-16.12z"/>
  <path d="M68.213 51.79l5.4 16.12-16.69 5.59-5.4-16.12z"/>
  <path d="M119.8 45.3c-12.9-43-31.5-53-74.5-40.1s-53 31.5-40.1 74.5 31.5 53 74.5 40.1 53-31.5 40.1-74.5zM98.1 73.2L90 75.9l2.8 8.4c1.1 3.4-.7 7.1-4.1 8.2-.7.2-1.5.4-2.2.3-2.6-.1-5.1-1.8-6-4.4L77.7 80 61 85.7l2.8 8.4c1.1 3.4-.7 7.1-4.1 8.2-.7.2-1.5.4-2.2.3-2.6-.1-5.1-1.8-6-4.4l-2.8-8.4-8.1 2.7c-.7.2-1.5.4-2.2.3-2.6-.1-5.1-1.8-6-4.4-1.1-3.4.7-7.1 4.1-8.2l8.1-2.7-5.4-16.1-8.1 2.7c-.7.2-1.5.4-2.2.3-2.6-.1-5.1-1.8-6-4.4-1.1-3.4.7-7.1 4.1-8.2l8.1-2.7-2.8-8.4c-1.1-3.4.7-7.1 4.1-8.2 3.4-1.1 7.1.7 8.2 4.1l2.8 8.4 16.7-5.6-2.8-8.4c-1.1-3.4.7-7.1 4.1-8.2s7.1.7 8.2 4.1l2.8 8.4 8.1-2.7c3.4-1.1 7.1.7 8.2 4.1 1.1 3.4-.7 7.1-4.1 8.2l-8.1 2.7 5.4 16.1L94 61c3.4-1.1 7.1.7 8.2 4.1 1.1 3.3-.7 7-4.1 8.1z"/>
</symbol>
<symbol id="svg-social-media" viewBox="0 0 310 310">
  <path d="M302.973 57.388c-4.87 2.16-9.877 3.983-14.993 5.463 6.057-6.85 10.675-14.91 13.494-23.73.632-1.976-.023-4.14-1.648-5.433-1.623-1.294-3.878-1.45-5.665-.39-10.864 6.444-22.586 11.075-34.877 13.783-12.38-12.098-29.197-18.983-46.58-18.983-36.696 0-66.55 29.853-66.55 66.547 0 2.89.183 5.764.545 8.598-45.535-3.998-87.868-26.38-116.938-62.038-1.036-1.27-2.632-1.956-4.266-1.825-1.635.127-3.104 1.05-3.93 2.466-5.896 10.117-9.013 21.688-9.013 33.46 0 16.036 5.726 31.25 15.84 43.138-3.076-1.065-6.06-2.396-8.908-3.977-1.53-.85-3.395-.838-4.914.033-1.52.87-2.473 2.473-2.513 4.224-.007.295-.007.59-.007.89 0 23.934 12.882 45.483 32.577 57.228-1.692-.17-3.383-.414-5.063-.735-1.732-.33-3.513.276-4.68 1.597-1.17 1.32-1.558 3.16-1.02 4.84 7.29 22.76 26.06 39.5 48.75 44.605-18.82 11.786-40.34 17.96-62.932 17.96-4.714 0-9.455-.277-14.095-.826-2.305-.274-4.51 1.087-5.294 3.28-.784 2.192.048 4.637 2.01 5.894 29.022 18.61 62.58 28.445 97.046 28.445 67.754 0 110.14-31.95 133.764-58.753 29.46-33.42 46.356-77.658 46.356-121.367 0-1.826-.028-3.67-.084-5.508 11.623-8.757 21.63-19.355 29.773-31.536 1.237-1.85 1.103-4.296-.33-6-1.43-1.703-3.816-2.254-5.852-1.352z"/>
</symbol>
<symbol id="svg-tick" viewBox="0 0 167.2 121.5">
  <path d="M60.7 121.5c-4 0-7.8-1.6-10.6-4.4L4.4 71.4c-5.9-5.9-5.9-15.4 0-21.2 5.9-5.9 15.4-5.9 21.2 0l35.1 35.1 80.9-80.9c5.9-5.9 15.4-5.9 21.2 0 5.9 5.9 5.9 15.4 0 21.2l-91.5 91.5c-2.8 2.8-6.6 4.4-10.6 4.4z"/>
</symbol>
<symbol id="svg-twitter" viewBox="0 0 273.5 222.3">
  <path d="M273.5 26.3c-10.1 4.5-20.9 7.5-32.2 8.8 11.6-6.9 20.5-17.9 24.7-31-10.9 6.4-22.9 11.1-35.7 13.6C220.1 6.8 205.5 0 189.4 0c-31 0-56.1 25.1-56.1 56.1 0 4.4.5 8.7 1.5 12.8-46.7-2.4-88-24.7-115.7-58.6-4.8 8.3-7.6 17.9-7.6 28.2 0 19.5 9.9 36.6 25 46.7-9.2-.3-17.8-2.8-25.4-7v.7c0 27.2 19.3 49.8 45 55-4.7 1.3-9.7 2-14.8 2-3.6 0-7.1-.4-10.6-1 7.1 22.3 27.9 38.5 52.4 39-19.2 15-43.4 24-69.7 24-4.5 0-9-.3-13.4-.8 24.8 15.9 54.3 25.2 86 25.2 103.2 0 159.6-85.5 159.6-159.6 0-2.4-.1-4.9-.2-7.3 11.1-8 20.6-17.9 28.1-29.1z"/>
</symbol>
<symbol id="svg-windows" viewBox="0 0 88 88">
  <path d="M0 12.402l35.687-4.86.016 34.423-35.67.203zm35.67 33.53l.028 34.452L.028 75.48.026 45.7zm4.326-39.026L87.314 0v41.527l-47.318.376zm47.33 39.35l-.012 41.34-47.318-6.68-.066-34.738z"/>
</symbol>
<symbol id="svg-woman" viewBox="0 0 25.748 25.748">
  <path d="M23.034 22.89H22.47v-1.458l.01.014v-3.25l-.01-.014v-5.76h-2.82c.07-.683.134-1.443.166-2.216C19.924 7.76 20.29 0 13.25 0S6.403 6.48 6.403 6.48l.363 5.94h-3.09v10.443l-.026.028h-.796v.378H.086v2.48h25.576v-2.48l-2.645.014.017-.39zm-9.74-3.686c-.715 0-1.294-.57-1.294-1.277 0-.704.58-1.276 1.294-1.276s1.294.573 1.294 1.277c0 .705-.58 1.277-1.294 1.277zm1.57-7.556v.772h-3.136v-.83c-2.285-.71-3.942-2.843-3.942-5.362 0-.187.01-.37.028-.552 1.53-.104 6.813-.584 6.95-2.293.502.928 3.17 3.266 4.228 3.42-.24 2.34-1.913 4.25-4.13 4.845z"/>
</symbol>

</svg>