<?xml version="1.0" encoding="utf-8"?>
<!DOCTYPE svg PUBLIC "-//W3C//DTD SVG 1.1//EN" "http://www.w3.org/Graphics/SVG/1.1/DTD/svg11.dtd">
<svg xmlns="http://www.w3.org/2000/svg" xmlns:xlink="http://www.w3.org/1999/xlink" style="display: none">
    <symbol id="svg-apple" viewBox="0 0 170 170">
  <path d="M150.37 130.25c-2.45 5.66-5.35 10.87-8.71 15.66-4.58 6.53-8.33 11.05-11.22 13.56-4.48 4.12-9.28 6.23-14.42 6.35-3.69 0-8.14-1.05-13.32-3.18-5.197-2.12-9.973-3.17-14.34-3.17-4.58 0-9.492 1.05-14.746 3.17-5.262 2.13-9.501 3.24-12.742 3.35-4.929.21-9.842-1.96-14.746-6.52-3.13-2.73-7.045-7.41-11.735-14.04-5.032-7.08-9.169-15.29-12.41-24.65-3.471-10.11-5.211-19.9-5.211-29.378 0-10.857 2.346-20.221 7.045-28.068 3.693-6.303 8.606-11.275 14.755-14.925s12.793-5.51 19.948-5.629c3.915 0 9.049 1.211 15.429 3.591 6.362 2.388 10.447 3.599 12.238 3.599 1.339 0 5.877-1.416 13.57-4.239 7.275-2.618 13.415-3.702 18.445-3.275 13.63 1.1 23.87 6.473 30.68 16.153-12.19 7.386-18.22 17.731-18.1 31.002.11 10.337 3.86 18.939 11.23 25.769 3.34 3.17 7.07 5.62 11.22 7.36-.9 2.61-1.85 5.11-2.86 7.51zM119.11 7.24c0 8.102-2.96 15.667-8.86 22.669-7.12 8.324-15.732 13.134-25.071 12.375a25.222 25.222 0 01-.188-3.07c0-7.778 3.386-16.102 9.399-22.908 3.002-3.446 6.82-6.311 11.45-8.597 4.62-2.252 8.99-3.497 13.1-3.71.12 1.083.17 2.166.17 3.24z"/>
</symbol>
<symbol id="svg-arrow" viewBox="0 0 26 22">
  <path d="M26 11c0-.3-.1-.5-.3-.7L15.8.3c-.4-.4-1-.4-1.4 0-.4.4-.4 1 0 1.4l8.2 8.3H1c-.6 0-1 .5-1 1s.4 1 1 1h21.6l-8.2 8.3c-.4.4-.4 1 0 1.4.4.4 1 .4 1.4 0l9.9-10c.2-.2.3-.4.3-.7z"/>
</symbol>
<symbol id="svg-copy" viewBox="0 0 214.1 128.7">
  <path d="M52.9 0L0 64.4l52.9 64.3 12.5-20.5-35.6-43.8 35.6-43.8zM86 127.2h23.2l36.9-126h-23.2zM161.2 0l-12.5 20.6 35.6 43.8-35.6 43.8 12.5 20.5 52.9-64.3z"/>
</symbol>
<symbol id="svg-cross" viewBox="0 0 47.9 47.9">
  <path d="M31.7 23.9L46.3 9.4c2.1-2.1 2.1-5.6 0-7.8-2.1-2.1-5.6-2.1-7.8 0L23.9 16.2 9.4 1.6C7.3-.5 3.8-.5 1.6 1.6c-2.1 2.1-2.1 5.6 0 7.8L16.2 24 1.6 38.5c-2.1 2.1-2.1 5.6 0 7.8 1.1 1.1 2.5 1.6 3.9 1.6s2.8-.5 3.9-1.6L24 31.7l14.6 14.6c1.1 1.1 2.5 1.6 3.9 1.6s2.8-.5 3.9-1.6c2.1-2.1 2.1-5.6 0-7.8L31.7 23.9z"/>
</symbol>
<symbol id="svg-cursor" viewBox="0 0 112 158">
  <path d="M0 0h20v20H0zM23 0h20v20H23zM46 0h20v20H46zM69 0h20v20H69zM92 0h20v20H92zM0 23h20v20H0zM23 23h20v20H23zM46 23h20v20H46zM69 23h20v20H69zM92 23h20v20H92zM0 46h20v20H0zM23 46h20v20H23zM46 46h20v20H46zM69 46h20v20H69zM92 46h20v20H92zM0 69h20v20H0zM23 69h20v20H23zM46 69h20v20H46zM69 69h20v20H69zM92 69h20v20H92zM0 92h20v20H0zM23 92h20v20H23zM46 92h20v20H46zM69 92h20v20H69zM92 92h20v20H92zM0 115h20v20H0zM23 115h20v20H23zM46 115h20v20H46zM69 115h20v20H69zM92 115h20v20H92zM0 138h20v20H0zM23 138h20v20H23zM46 138h20v20H46zM69 138h20v20H69zM92 138h20v20H92z"/>
</symbol>
<symbol id="svg-edit" viewBox="0 0 612 612">
  <path d="M545.062 286.875c-15.854 0-28.688 12.852-28.688 28.688v239.062h-459v-459h239.062c15.854 0 28.688-12.852 28.688-28.688S312.292 38.25 296.438 38.25H38.25C17.136 38.25 0 55.367 0 76.5v497.25C0 594.883 17.136 612 38.25 612H535.5c21.114 0 38.25-17.117 38.25-38.25V315.562c0-15.835-12.833-28.687-28.688-28.687zM605.325 88.95L523.03 6.655C518.556 2.18 512.684 0 506.812 0s-11.743 2.18-16.218 6.675l-318.47 318.45v114.75h114.75l318.45-318.45c4.494-4.495 6.675-10.366 6.675-16.237.001-5.891-2.18-11.743-6.674-16.238zM267.75 382.5H229.5v-38.25L506.812 66.938l38.25 38.25L267.75 382.5z"/>
</symbol>
<symbol id="svg-github-dk" viewBox="0 0 32 31.2">
  <path d="M16 0C7.2 0 0 7.2 0 16c0 7.1 4.6 13.1 10.9 15.2.8.1 1.1-.3 1.1-.8v-2.8c-4.4 1-5.4-2.1-5.4-2.1-.7-1.8-1.8-2.3-1.8-2.3-1.5-1 .1-1 .1-1 1.6.1 2.5 1.6 2.5 1.6 1.4 2.4 3.7 1.7 4.7 1.3.1-1 .6-1.7 1-2.1-3.6-.4-7.3-1.8-7.3-7.9 0-1.7.6-3.2 1.6-4.3-.2-.4-.7-2 .2-4.2 0 0 1.3-.4 4.4 1.6 1.3-.4 2.6-.5 4-.5s2.7.2 4 .5c3.1-2.1 4.4-1.6 4.4-1.6.9 2.2.3 3.8.2 4.2 1 1.1 1.6 2.5 1.6 4.3 0 6.1-3.7 7.5-7.3 7.9.6.5 1.1 1.5 1.1 2.9v4.4c0 .4.3.9 1.1.7C27.4 29.1 32 23.1 32 16c0-8.8-7.2-16-16-16z"/>
</symbol>
<symbol id="svg-github" viewBox="0 0 32 31.2">
  <path d="M16 0C7.2 0 0 7.2 0 16c0 7.1 4.6 13.1 10.9 15.2.8.1 1.1-.3 1.1-.8v-2.8c-4.4 1-5.4-2.1-5.4-2.1-.7-1.8-1.8-2.3-1.8-2.3-1.5-1 .1-1 .1-1 1.6.1 2.5 1.6 2.5 1.6 1.4 2.4 3.7 1.7 4.7 1.3.1-1 .6-1.7 1-2.1-3.6-.4-7.3-1.8-7.3-7.9 0-1.7.6-3.2 1.6-4.3-.2-.4-.7-2 .2-4.2 0 0 1.3-.4 4.4 1.6 1.3-.4 2.6-.5 4-.5s2.7.2 4 .5c3.1-2.1 4.4-1.6 4.4-1.6.9 2.2.3 3.8.2 4.2 1 1.1 1.6 2.5 1.6 4.3 0 6.1-3.7 7.5-7.3 7.9.6.5 1.1 1.5 1.1 2.9v4.4c0 .4.3.9 1.1.7C27.4 29.1 32 23.1 32 16c0-8.8-7.2-16-16-16z"/>
</symbol>
<symbol id="svg-header-bg" viewBox="0 0 2347.6 1609.7">
  <g stroke-width="1.51">
    <path stroke="#03202B" d="M62.5 33.2l177 24 71 5-248-29z"/>
    <path stroke="#02222D" d="M62.5 33.2l248 29 291 2-539-31z"/>
    <path stroke="#022430" d="M62.5 33.2l539 31 174-9-713-22z"/>
    <path stroke="#053747" d="M775.5 55.2l327 1 166-25-493 24z"/>
    <path stroke="#124050" d="M1134.5 1579.2l-440 15 591-7-151-8z"/>
    <path stroke="#134151" d="M1285.5 1587.2l-591 7 800 13-209-20z"/>
    <path stroke="#073748" d="M775.5 55.2l493-24 271-29-764 53z"/>
    <path stroke="#032F3F" d="M62.5 33.2l713 22 764-53-1477 31z"/>
    <path stroke="#0E333F" d="M1745.5 1542.2l-251 65 498-30-247-35z"/>
    <path stroke="#03232F" d="M1744.5 40.2l278 11 99-21-377 10z"/>
    <path stroke="#032733" d="M1539.5 2.2l205 38 377-10-582-28z"/>
    <path stroke="#0D3644" d="M2268.5 383.2l-24 86 35 145-11-231z"/>
    <path stroke="#0C2C37" d="M1992.5 1577.2l-498 30 793-32-295 2z"/>
    <path stroke="#112E38" d="M2186.5 1553.2l-194 24 295-2-101-22z"/>
    <path stroke="#113D4B" d="M2248.5 964.2l-59 87 116 83-57-170z"/>
    <path stroke="#144252" d="M2301.5 768.2l-53 196 57 170-4-366z"/>
    <path stroke="#112E38" d="M2186.5 1553.2l101 22 32-208-133 186z"/>
    <path stroke="#0E2D38" d="M2152.5 1393.2l34 160 133-186-167 26z"/>
    <path stroke="#0C2E3A" d="M2305.5 1134.2l-28 143 42 90-14-233z"/>
    <path stroke="#092C38" d="M2132.5 346.2l136 37 77-131-213 94z"/>
    <path stroke="#082A35" d="M2096.5 173.2l36 173 213-94-249-79z"/>
    <path stroke="#0A2933" d="M2304.5 52.2l-208 121 249 79-41-200z"/>
    <path stroke="#0F3948" d="M2279.5 614.2l22 154 44-516-66 362z"/>
    <path stroke="#0D323E" d="M2268.5 383.2l11 231 66-362-77 131z"/>
    <path stroke="#154352" d="M2305.5 1134.2l14 233 26-1115-40 882z"/>
    <path stroke="#134050" d="M2301.5 768.2l4 366 40-882-44 516z"/>
    <path stroke="#0D3848" d="M2244.5 469.2l-58 68 93 77-35-145z"/>
    <path stroke="#114051" d="M2102.5 769.2l146 195 53-196-199 1z"/>
    <path stroke="#0F3F4F" d="M2279.5 614.2l-94-13 116 167-22-154z"/>
    <path stroke="#072630" d="M2121.5 30.2l-25 143 208-121-183-22z"/>
    <path stroke="#0B303D" d="M2121.5 1246.2l156 31 28-143-184 112z"/>
    <path stroke="#0B2C37" d="M2277.5 1277.2l-125 116 167-26-42-90z"/>
    <path stroke="#104051" d="M2102.5 769.2l39 203 107-8-146-195z"/>
    <path stroke="#0F3F50" d="M2185.5 601.2l-83 168 199-1-116-167z"/>
    <path stroke="#0D3543" d="M2189.5 1051.2l-68 195 184-112-116-83z"/>
    <path stroke="#0A2D38" d="M1857.5 1542.2h-112l247 35-135-35z"/>
    <path stroke="#0D3B4B" d="M2186.5 537.2l-1 64 94 13-93-77z"/>
    <path stroke="#082A36" d="M2121.5 1246.2l31 147 125-116-156-31z"/>
    <path stroke="#09303D" d="M2132.5 346.2l112 123 24-86-136-37z"/>
    <path stroke="#11404F" d="M2141.5 972.2l48 79 59-87-107 8z"/>
    <path stroke="#0A3240" d="M2132.5 346.2l54 191 58-68-112-123z"/>
    <path stroke="#052935" d="M2096.5 173.2l-48 135 84 38-36-173z"/>
    <path stroke="#0E4051" d="M2102.5 769.2l-84 206 123-3-39-203z"/>
    <path stroke="#0A2C37" d="M1952.5 1446.2l40 131 160-184-200 53z"/>
    <path stroke="#0A3D4F" d="M1970.5 665.2l132 104 83-168-215 64z"/>
    <path stroke="#0A3747" d="M2044.5 473.2l141 128 1-64-142-64z"/>
    <path stroke="#083240" d="M2132.5 346.2l-88 127 142 64-54-191z"/>
    <path stroke="#0E2D38" d="M2152.5 1393.2l-160 184 194-24-34-160z"/>
    <path stroke="#093644" d="M1948.5 1074.2l173 172 68-195-241 23z"/>
    <path stroke="#0F3F4F" d="M2141.5 972.2l-123 3 171 76-48-79z"/>
    <path stroke="#0B3C4B" d="M2018.5 975.2l-70 99 241-23-171-76z"/>
    <path stroke="#07394A" d="M2044.5 473.2l-74 192 215-64-141-128z"/>
    <path stroke="#042833" d="M2035.5 204.2l13 104 48-135-61 31z"/>
    <path stroke="#0B3E50" d="M1961.5 833.2l57 142 84-206-141 64z"/>
    <path stroke="#05303D" d="M1948.5 1074.2l78 195 95-23-173-172z"/>
    <path stroke="#052530" d="M2022.5 51.2l74 122 25-143-99 21z"/>
    <path stroke="#052A36" d="M2121.5 1246.2l-95 23 126 124-31-147z"/>
    <path stroke="#062A36" d="M2026.5 1269.2l-74 177 200-53-126-124z"/>
    <path stroke="#052D3B" d="M2048.5 308.2l-4 165 88-127-84-38z"/>
    <path stroke="#022531" d="M1744.5 40.2l69 41 209-30-278-11z"/>
    <path stroke="#052631" d="M2022.5 51.2l13 153 61-31-74-122z"/>
    <path stroke="#083D4F" d="M1970.5 665.2l-9 168 141-64-132-104z"/>
    <path stroke="#043748" d="M1892.5 542.2l78 123 74-192-152 69z"/>
    <path stroke="#03303E" d="M1948.5 1074.2l-104 139 182 56-78-195z"/>
    <path stroke="#042936" d="M1898.5 1389.2l54 57 74-177-128 120z"/>
    <path stroke="#002734" d="M1795.5 227.2l80 159 160-182-240 23z"/>
    <path stroke="#022530" d="M2022.5 51.2l-209 30 222 123-13-153z"/>
    <path stroke="#032D3B" d="M1875.5 386.2l169 87 4-165-173 78z"/>
    <path stroke="#022936" d="M2035.5 204.2l-160 182 173-78-13-104z"/>
    <path stroke="#053C4F" d="M1886.5 785.2l75 48 9-168-84 120z"/>
    <path stroke="#023141" d="M1875.5 386.2l17 156 152-69-169-87z"/>
    <path stroke="#083F51" d="M1961.5 833.2l-60 140 117 2-57-142z"/>
    <path stroke="#012632" d="M1813.5 81.2l-18 146 240-23-222-123z"/>
    <path stroke="#083C4D" d="M1901.5 973.2l47 101 70-99-117-2z"/>
    <path stroke="#012935" d="M1844.5 1213.2l54 176 128-120-182-56z"/>
    <path stroke="#0A2B36" d="M1952.5 1446.2l-95 96 135 35-40-131z"/>
    <path stroke="#043647" d="M775.5 55.2l198 13 129-12-327-1z"/>
    <path stroke="#033444" d="M1813.5 1095.2l31 118 104-139-135 21z"/>
    <path stroke="#063D50" d="M1886.5 785.2l15 188 60-140-75-48z"/>
    <path stroke="#013A4D" d="M1892.5 542.2l-92 112 170 11-78-123z"/>
    <path stroke="#023C4E" d="M1800.5 654.2l86 131 84-120-170-11z"/>
    <path stroke="#043A4A" d="M1901.5 973.2l-88 122 135-21-47-101z"/>
    <path stroke="#062A36" d="M1898.5 1389.2l-41 153 95-96-54-57z"/>
    <path stroke="#023647" d="M1875.5 386.2l-225 149 242 7-17-156z"/>
    <path stroke="#092D39" d="M1745.5 1542.2h112l41-153-153 153z"/>
    <path stroke="#07303D" d="M1662.5 1405.2l83 137 153-153-236 16z"/>
    <path stroke="#002B39" d="M1844.5 1213.2l-110 70 164 106-54-176z"/>
    <path stroke="#064154" d="M1886.5 785.2l-191 163 206 25-15-188z"/>
    <path stroke="#074053" d="M1695.5 948.2l118 147 88-122-206-25z"/>
    <path stroke="#074154" d="M1695.5 948.2l16 111 102 36-118-147z"/>
    <path stroke="#042F3D" d="M1734.5 1283.2l-72 122 236-16-164-106z"/>
    <path stroke="#074458" d="M1647.5 744.2l48 204 191-163-239-41z"/>
    <path stroke="#033E51" d="M1745.5 654.2h55l92-112-147 112z"/>
    <path stroke="#033D51" d="M1650.5 535.2l95 119 147-112-242-7z"/>
    <path stroke="#044053" d="M1800.5 654.2h-55l141 131-86-131z"/>
    <path stroke="#054256" d="M1745.5 654.2l-98 90 239 41-141-131z"/>
    <path stroke="#012D3C" d="M1795.5 227.2l-142 73 222 86-80-159z"/>
    <path stroke="#023546" d="M1653.5 300.2l-3 235 225-149-222-86z"/>
    <path stroke="#022B38" d="M1703.5 176.2l92 51 18-146-110 95z"/>
    <path stroke="#023342" d="M1813.5 1095.2l-79 188 110-70-31-118z"/>
    <path stroke="#032A38" d="M1744.5 40.2l-41 136 110-95-69-41z"/>
    <path stroke="#043949" d="M1711.5 1059.2l23 224 79-188-102-36z"/>
    <path stroke="#022F3D" d="M1703.5 176.2l-50 124 142-73-92-51z"/>
    <path stroke="#033A4B" d="M1538.5 340.2l112 195 3-235-115 40z"/>
    <path stroke="#063D4F" d="M1711.5 1059.2l-136 10 159 214-23-224z"/>
    <path stroke="#053B4C" d="M1575.5 1069.2l-60 204 219 10-159-214z"/>
    <path stroke="#042E3D" d="M1539.5 2.2l164 174 41-136-205-38z"/>
    <path stroke="#05455A" d="M1650.5 535.2l-60 140 155-21-95-119z"/>
    <path stroke="#06465C" d="M1590.5 675.2l57 69 98-90-155 21z"/>
    <path stroke="#0D3745" d="M1662.5 1405.2l-168 202 251-65-83-137z"/>
    <path stroke="#054052" d="M1538.5 340.2l-10 151 122 44-112-195z"/>
    <path stroke="#09495E" d="M1647.5 744.2h-63l111 204-48-204z"/>
    <path stroke="#043444" d="M1515.5 1273.2l147 132 72-122-219-10z"/>
    <path stroke="#0D3A49" d="M1523.5 1402.2l-29 205 168-202-139-3z"/>
    <path stroke="#0C4C61" d="M1584.5 744.2l-58 207 169-3-111-204z"/>
    <path stroke="#033242" d="M1568.5 230.2l85 70 50-124-135 54z"/>
    <path stroke="#053341" d="M1539.5 2.2l29 228 135-54-164-174z"/>
    <path stroke="#0A4659" d="M1695.5 948.2l-120 121 136-10-16-111z"/>
    <path stroke="#0C4B60" d="M1526.5 951.2l49 118 120-121-169 3z"/>
    <path stroke="#063645" d="M1539.5 2.2l-90 98 119 130-29-228z"/>
    <path stroke="#073848" d="M1515.5 1273.2l8 129 139 3-147-132z"/>
    <path stroke="#08495F" d="M1590.5 675.2l-6 69h63l-57-69z"/>
    <path stroke="#06455A" d="M1528.5 491.2l62 184 60-140-122-44z"/>
    <path stroke="#033646" d="M1568.5 230.2l-30 110 115-40-85-70z"/>
    <path stroke="#0A2B36" d="M502.5 1552.2l-452 17 644 25-192-42z"/>
    <path stroke="#164353" d="M1368.5 1571.2l-83 16 209 20-126-36z"/>
    <path stroke="#073949" d="M1449.5 100.2l-16 90 135 40-119-130z"/>
    <path stroke="#0A4659" d="M1393.5 1093.2l122 180 60-204-182 24z"/>
    <path stroke="#0D5167" d="M1367.5 761.2l159 190 58-207-217 17z"/>
    <path stroke="#0A4E64" d="M1378.5 670.2l206 74 6-69-212-5z"/>
    <path stroke="#094C63" d="M1528.5 491.2l-150 179 212 5-62-184z"/>
    <path stroke="#094C62" d="M1402.5 494.2l-24 176 150-179-126 3z"/>
    <path stroke="#0C526A" d="M1378.5 670.2l-11 91 217-17-206-74z"/>
    <path stroke="#0F3F4E" d="M1398.5 1414.2l96 193 29-205-125 12z"/>
    <path stroke="#053A4A" d="M1444.5 324.2l94 16 30-110-124 94z"/>
    <path stroke="#0E4D62" d="M1526.5 951.2l-133 142 182-24-49-118z"/>
    <path stroke="#053F51" d="M1444.5 324.2l84 167 10-151-94-16z"/>
    <path stroke="#063A4B" d="M1433.5 190.2l11 134 124-94-135-40z"/>
    <path stroke="#134152" d="M1398.5 1414.2l-30 157 126 36-96-193z"/>
    <path stroke="#0A465A" d="M1393.5 1093.2l-50 116 172 64-122-180z"/>
    <path stroke="#093D4D" d="M1515.5 1273.2l-117 141 125-12-8-129z"/>
    <path stroke="#10556C" d="M1367.5 761.2l22 213 137-23-159-190z"/>
    <path stroke="#105369" d="M1389.5 974.2l4 119 133-142-137 23z"/>
    <path stroke="#074458" d="M1444.5 324.2l-42 170 126-3-84-167z"/>
    <path stroke="#093949" d="M1268.5 31.2l181 69 90-98-271 29z"/>
    <path stroke="#063F50" d="M1343.5 1209.2l55 205 117-141-172-64z"/>
    <path stroke="#0F556D" d="M1367.5 761.2l-77 96 99 117-22-213z"/>
    <path stroke="#08465A" d="M1259.5 475.2l143 19 42-170-185 151z"/>
    <path stroke="#064254" d="M1215.5 308.2l44 167 185-151-229-16z"/>
    <path stroke="#073D4F" d="M1433.5 190.2l-211 43 222 91-11-134z"/>
    <path stroke="#053D4F" d="M1222.5 233.2l-7 75 229 16-222-91z"/>
    <path stroke="#083B4B" d="M1268.5 31.2l165 159 16-90-181-69z"/>
    <path stroke="#063F51" d="M1343.5 1209.2l-94 20 149 185-55-205z"/>
    <path stroke="#094C63" d="M1259.5 475.2l119 195 24-176-143-19z"/>
    <path stroke="#073B4B" d="M1268.5 31.2l-46 202 211-43-165-159z"/>
    <path stroke="#084F66" d="M1259.5 475.2l-31 170 150 25-119-195z"/>
    <path stroke="#10556C" d="M1290.5 857.2l-41 45 140 72-99-117z"/>
    <path stroke="#0F5166" d="M1389.5 974.2l-86 87 90 32-4-119z"/>
    <path stroke="#0B4B5F" d="M1303.5 1061.2l40 148 50-116-90-32z"/>
    <path stroke="#083F50" d="M1249.5 1229.2l-45 195 194-10-149-185z"/>
    <path stroke="#124152" d="M1285.5 1587.2l83-16 30-157-113 173z"/>
    <path stroke="#104051" d="M1204.5 1424.2l81 163 113-173-194 10z"/>
    <path stroke="#10556C" d="M1249.5 902.2l54 159 86-87-140-72z"/>
    <path stroke="#0B526A" d="M1228.5 645.2l139 116 11-91-150-25z"/>
    <path stroke="#09475B" d="M1303.5 1061.2l-54 168 94-20-40-148z"/>
    <path stroke="#0C536B" d="M1228.5 645.2l62 212 77-96-139-116z"/>
    <path stroke="#074D64" d="M1149.5 601.2l79 44 31-170-110 126z"/>
    <path stroke="#06394A" d="M1102.5 56.2l120 177 46-202-166 25z"/>
    <path stroke="#114051" d="M1204.5 1424.2l-70 155 151 8-81-163z"/>
    <path stroke="#0A526A" d="M1228.5 645.2l-118 100 180 112-62-212z"/>
    <path stroke="#09485D" d="M1121.5 1119.2l128 110 54-168-182 58z"/>
    <path stroke="#0B4E64" d="M1138.5 1001.2l-17 118 182-58-165-60z"/>
    <path stroke="#0F546A" d="M1249.5 902.2l-111 99 165 60-54-159z"/>
    <path stroke="#053D4F" d="M1094.5 1294.2l110 130 45-195-155 65z"/>
    <path stroke="#0D536B" d="M1110.5 745.2l139 157 41-45-180-112z"/>
    <path stroke="#054458" d="M1215.5 308.2l-95 165 139 2-44-167z"/>
    <path stroke="#053A4B" d="M1102.5 56.2l-30 147 150 30-120-177z"/>
    <path stroke="#05495F" d="M1120.5 473.2l29 128 110-126-139-2z"/>
    <path stroke="#044054" d="M1096.5 317.2l24 156 95-165-119 9z"/>
    <path stroke="#054256" d="M1121.5 1119.2l-27 175 155-65-128-110z"/>
    <path stroke="#0D536B" d="M1110.5 745.2l28 256 111-99-139-157z"/>
    <path stroke="#043C4F" d="M1096.5 317.2l119-9 7-75-126 84z"/>
    <path stroke="#075069" d="M1149.5 601.2l-39 144 118-100-79-44z"/>
    <path stroke="#103E4F" d="M1000.5 1502.2l-306 92 440-15-134-77z"/>
    <path stroke="#073D4F" d="M1094.5 1294.2l-43 81 153 49-110-130z"/>
    <path stroke="#043B4D" d="M1072.5 203.2l24 114 126-84-150-30z"/>
    <path stroke="#0F3F50" d="M1000.5 1502.2l134 77 70-155-204 78z"/>
    <path stroke="#0A526A" d="M1110.5 745.2l-152 54 180 202-28-256z"/>
    <path stroke="#0B3E4F" d="M1051.5 1375.2l-51 127 204-78-153-49z"/>
    <path stroke="#0E3949" d="M757.5 1535.2l-63 59 306-92-243 33z"/>
    <path stroke="#0C536A" d="M958.5 799.2l22 193 158 9-180-202z"/>
    <path stroke="#0A4D63" d="M990.5 1045.2l131 74 17-118-148 44z"/>
    <path stroke="#065069" d="M999.5 694.2l111 51 39-144-150 93z"/>
    <path stroke="#054960" d="M1120.5 473.2l-149 66 178 62-29-128z"/>
    <path stroke="#044D66" d="M971.5 539.2l28 155 150-93-178-62z"/>
    <path stroke="#04384A" d="M998.5 178.2l74 25 30-147-104 122z"/>
    <path stroke="#034155" d="M1096.5 317.2l-154 81 178 75-24-156z"/>
    <path stroke="#044053" d="M913.5 1303.2l181-9 27-175-208 184z"/>
    <path stroke="#05455A" d="M990.5 1045.2l-77 258 208-184-131-74z"/>
    <path stroke="#0B5067" d="M980.5 992.2l10 53 148-44-158-9z"/>
    <path stroke="#043748" d="M973.5 68.2l25 110 104-122-129 12z"/>
    <path stroke="#03445A" d="M942.5 398.2l29 141 149-66-178-75z"/>
    <path stroke="#075068" d="M999.5 694.2l-41 105 152-54-111-51z"/>
    <path stroke="#033A4C" d="M1072.5 203.2l-74-25 98 139-24-114z"/>
    <path stroke="#022430" d="M310.5 62.2l236 12 55-10-291-2z"/>
    <path stroke="#023B4E" d="M998.5 178.2l-56 220 154-81-98-139z"/>
    <path stroke="#053C4F" d="M971.5 1368.2l80 7 43-81-123 74z"/>
    <path stroke="#033C4E" d="M913.5 1303.2l58 65 123-74-181 9z"/>
    <path stroke="#05445A" d="M842.5 1079.2l71 224 77-258-148 34z"/>
    <path stroke="#093D4E" d="M971.5 1368.2l29 134 51-127-80-7z"/>
    <path stroke="#0A2933" d="M209.5 1530.2l-159 39 452-17-293-22z"/>
    <path stroke="#033E51" d="M842.5 1079.2l-41 131 112 93-71-224z"/>
    <path stroke="#0A5269" d="M958.5 799.2l-109 187 131 6-22-193z"/>
    <path stroke="#013A4C" d="M798.5 343.2l144 55 56-220-200 165z"/>
    <path stroke="#033647" d="M973.5 68.2l-229 81 254 29-25-110z"/>
    <path stroke="#013647" d="M744.5 149.2l54 194 200-165-254-29z"/>
    <path stroke="#064F68" d="M831.5 774.2l127 25 41-105-168 80z"/>
    <path stroke="#044D65" d="M846.5 630.2l-15 144 168-80-153-64z"/>
    <path stroke="#034D66" d="M971.5 539.2l-125 91 153 64-28-155z"/>
    <path stroke="#083C4E" d="M971.5 1368.2l-140 9 169 125-29-134z"/>
    <path stroke="#0A3A4B" d="M831.5 1377.2l-74 158 243-33-169-125z"/>
    <path stroke="#02455A" d="M942.5 398.2l-100 131 129 10-29-141z"/>
    <path stroke="#023242" d="M775.5 55.2l-31 94 229-81-198-13z"/>
    <path stroke="#094F67" d="M980.5 992.2l-131-6 141 59-10-53z"/>
    <path stroke="#084B62" d="M849.5 986.2l-7 93 148-34-141-59z"/>
    <path stroke="#074E66" d="M831.5 774.2l18 212 109-187-127-25z"/>
    <path stroke="#02485F" d="M842.5 529.2l4 101 125-91-129-10z"/>
    <path stroke="#043A4C" d="M913.5 1303.2l-82 74 140-9-58-65z"/>
    <path stroke="#013E52" d="M798.5 343.2l44 186 100-131-144-55z"/>
    <path stroke="#013749" d="M801.5 1210.2l30 167 82-74-112-93z"/>
    <path stroke="#013141" d="M744.5 149.2l-84 50 138 144-54-194z"/>
    <path stroke="#06475C" d="M599.5 826.2l23 158 209-210-232 52z"/>
    <path stroke="#003545" d="M801.5 1210.2l-153 52 183 115-30-167z"/>
    <path stroke="#013A4D" d="M798.5 343.2l-116 40 160 146-44-186z"/>
    <path stroke="#013B4D" d="M682.5 383.2l-33 66 193 80-160-146z"/>
    <path stroke="#054055" d="M663.5 1053.2l138 157 41-131-179-26z"/>
    <path stroke="#02455C" d="M842.5 529.2l-190 122 194-21-4-101z"/>
    <path stroke="#03485F" d="M652.5 651.2l179 123 15-144-194 21z"/>
    <path stroke="#084B61" d="M831.5 774.2l-209 210 227 2-18-212z"/>
    <path stroke="#07475C" d="M663.5 1053.2l179 26 7-93-186 67z"/>
    <path stroke="#07465A" d="M622.5 984.2l41 69 186-67-227-2z"/>
    <path stroke="#083544" d="M640.5 1432.2l117 103 74-158-191 55z"/>
    <path stroke="#013F53" d="M649.5 449.2l3 202 190-122-193-80z"/>
    <path stroke="#04455B" d="M652.5 651.2l-53 175 232-52-179-123z"/>
    <path stroke="#033242" d="M648.5 1262.2l-8 170 191-55-183-115z"/>
    <path stroke="#003242" d="M660.5 199.2l22 184 116-40-138-144z"/>
    <path stroke="#033A4B" d="M663.5 1053.2l-15 209 153-52-138-157z"/>
    <path stroke="#022E3C" d="M601.5 64.2l143 85 31-94-174 9z"/>
    <path stroke="#0B3443" d="M640.5 1432.2l54 162 63-59-117-103z"/>
    <path stroke="#022D3C" d="M601.5 64.2l59 135 84-50-143-85z"/>
    <path stroke="#032F3D" d="M539.5 1413.2l101 19 8-170-109 151z"/>
    <path stroke="#013A4D" d="M649.5 449.2l-98 26 101 176-3-202z"/>
    <path stroke="#012A38" d="M512.5 188.2l-28 169 176-158-148-11z"/>
    <path stroke="#023546" d="M489.5 1219.2l159 43 15-209-174 166z"/>
    <path stroke="#033849" d="M498.5 1071.2l-9 148 174-166-165 18z"/>
    <path stroke="#002E3D" d="M660.5 199.2l-176 158 198 26-22-184z"/>
    <path stroke="#0B313E" d="M640.5 1432.2l-138 120 192 42-54-162z"/>
    <path stroke="#064457" d="M599.5 826.2l-62 117 85 41-23-158z"/>
    <path stroke="#003343" d="M484.5 357.2l165 92 33-66-198-26z"/>
    <path stroke="#012835" d="M546.5 74.2l-34 114 89-124-55 10z"/>
    <path stroke="#072E3B" d="M539.5 1413.2l-37 139 138-120-101-19z"/>
    <path stroke="#003243" d="M484.5 357.2l67 118 98-26-165-92z"/>
    <path stroke="#013B4E" d="M551.5 475.2l-109 127 210 49-101-176z"/>
    <path stroke="#034155" d="M463.5 823.2l136 3 53-175-189 172z"/>
    <path stroke="#023E51" d="M442.5 602.2l21 221 189-172-210-49z"/>
    <path stroke="#012A38" d="M601.5 64.2l-89 124 148 11-59-135z"/>
    <path stroke="#064052" d="M622.5 984.2l-124 87 165-18-41-69z"/>
    <path stroke="#002C3A" d="M489.5 1219.2l50 194 109-151-159-43z"/>
    <path stroke="#064053" d="M537.5 943.2l-39 128 124-87-85-41z"/>
    <path stroke="#054154" d="M463.5 823.2l74 120 62-117-136-3z"/>
    <path stroke="#023B4D" d="M442.5 602.2l-93 93 114 128-21-221z"/>
    <path stroke="#002734" d="M364.5 1211.2l-15 236 140-228-125-8z"/>
    <path stroke="#092A35" d="M402.5 1502.2l-193 28 293 22-100-50z"/>
    <path stroke="#022936" d="M489.5 1219.2l-140 228 190-34-50-194z"/>
    <path stroke="#082B38" d="M402.5 1502.2l100 50 37-139-137 89z"/>
    <path stroke="#00303F" d="M484.5 357.2l-120 144 187-26-67-118z"/>
    <path stroke="#013445" d="M364.5 501.2l78 101 109-127-187 26z"/>
    <path stroke="#002834" d="M372.5 334.2l112 23 28-169-140 146z"/>
    <path stroke="#063D4E" d="M357.5 979.2l141 92 39-128-180 36z"/>
    <path stroke="#012430" d="M310.5 62.2l202 126 34-114-236-12z"/>
    <path stroke="#023241" d="M375.5 1152.2l114 67 9-148-123 81z"/>
    <path stroke="#02242F" d="M310.5 62.2v85l202 41-202-126z"/>
    <path stroke="#063E50" d="M463.5 823.2l-106 156 180-36-74-120z"/>
    <path stroke="#062935" d="M349.5 1447.2l53 55 137-89-190 34z"/>
    <path stroke="#012632" d="M310.5 147.2l62 187 140-146-202-41z"/>
    <path stroke="#063D4F" d="M353.5 828.2l4 151 106-156-110 5z"/>
    <path stroke="#002C3A" d="M372.5 334.2l-8 167 120-144-112-23z"/>
    <path stroke="#043747" d="M357.5 979.2l18 173 123-81-141-92z"/>
    <path stroke="#043B4E" d="M349.5 695.2l4 133 110-5-114-128z"/>
    <path stroke="#012E3C" d="M375.5 1152.2l-11 59 125 8-114-67z"/>
    <path stroke="#013849" d="M364.5 501.2l-15 194 93-93-78-101z"/>
    <path stroke="#023849" d="M241.5 651.2l108 44 15-194-123 150z"/>
    <path stroke="#012632" d="M189.5 1303.2l160 144 15-236-175 92z"/>
    <path stroke="#012531" d="M310.5 147.2l-107 148 169 39-62-187z"/>
    <path stroke="#012E3D" d="M219.5 512.2l145-11 8-167-153 178z"/>
    <path stroke="#053645" d="M357.5 979.2l-141 81 159 92-18-173z"/>
    <path stroke="#082933" d="M349.5 1447.2l-140 83 193-28-53-55z"/>
    <path stroke="#02232F" d="M246.5 149.2l-43 146 107-148-64 2z"/>
    <path stroke="#042632" d="M189.5 1303.2l-4 91 164 53-160-144z"/>
    <path stroke="#063C4D" d="M353.5 828.2l-116 109 120 42-4-151z"/>
    <path stroke="#023344" d="M219.5 512.2l22 139 123-150-145 11z"/>
    <path stroke="#012937" d="M203.5 295.2l16 217 153-178-169-39z"/>
    <path stroke="#03313F" d="M216.5 1060.2l148 151 11-59-159-92z"/>
    <path stroke="#03394C" d="M349.5 695.2l-108-44 112 177-4-133z"/>
    <path stroke="#053A4B" d="M241.5 651.2l-80 205 192-28-112-177z"/>
    <path stroke="#022C3A" d="M216.5 1060.2l-27 243 175-92-148-151z"/>
    <path stroke="#073A4B" d="M237.5 937.2l-21 123 141-81-120-42z"/>
    <path stroke="#063B4C" d="M161.5 856.2l76 81 116-109-192 28z"/>
    <path stroke="#062732" d="M185.5 1394.2l24 136 140-83-164-53z"/>
    <path stroke="#032C39" d="M80.5 1205.2l109 98 27-243-136 145z"/>
    <path stroke="#02212C" d="M239.5 57.2l7 92 64-87-71-5z"/>
    <path stroke="#02222D" d="M310.5 62.2l-64 87 64-2v-85z"/>
    <path stroke="#04303E" d="M76.5 1081.2l4 124 136-145-140 21z"/>
    <path stroke="#012835" d="M203.5 295.2l-99 31 115 186-16-217z"/>
    <path stroke="#022B38" d="M104.5 326.2l-39 122 154 64-115-186z"/>
    <path stroke="#063747" d="M76.5 1081.2l140-21 21-123-161 144z"/>
    <path stroke="#053949" d="M84.5 802.2l77 54 80-205-157 151z"/>
    <path stroke="#043748" d="M64.5 697.2l20 105 157-151-177 46z"/>
    <path stroke="#033647" d="M219.5 512.2l-155 185 177-46-22-139z"/>
    <path stroke="#02232E" d="M65.5 221.2l138 74 43-146-181 72z"/>
    <path stroke="#02202B" d="M239.5 57.2l-177-24 184 116-7-92z"/>
    <path stroke="#02212B" d="M62.5 33.2l3 188 181-72-184-116z"/>
    <path stroke="#083847" d="M11.5 978.2l65 103 161-144-226 41z"/>
    <path stroke="#073A4A" d="M161.5 856.2l-150 122 226-41-76-81z"/>
    <path stroke="#082631" d="M185.5 1394.2l-135 175 159-39-24-136z"/>
    <path stroke="#033141" d="M65.5 448.2l-1 249 155-185-154-64z"/>
    <path stroke="#07262F" d="M1.5 1438.2l49 131 135-175-184 44z"/>
    <path stroke="#01232F" d="M65.5 221.2l39 105 99-31-138-74z"/>
    <path stroke="#042530" d="M1.5 1438.2l184-44 4-91-188 135z"/>
    <path stroke="#02242F" d="M80.5 1205.2l-79 233 188-135-109-98z"/>
    <path stroke="#073949" d="M84.5 802.2l-73 176 150-122-77-54z"/>
    <path stroke="#022530" d="M65.5 221.2v227l39-122-39-105z"/>
    <path stroke="#06313F" d="M76.5 1081.2l-65-103 69 227-4-124z"/>
    <path stroke="#073748" d="M64.5 697.2l-53 281 73-176-20-105z"/>
    <path stroke="#032835" d="M11.5 978.2l-10 460 79-233-69-227z"/>
    <path stroke="#053647" d="M11.5 978.2l53-281 1-249-54 530z"/>
    <path stroke="#03303F" d="M11.5 978.2l54-530v-227l-54 757z"/>
    <path stroke="#032935" d="M62.5 33.2l-51 945 54-757-3-188z"/>
  </g>
</symbol>
<symbol id="svg-home" viewBox="0 0 460.298 460.297">
  <path d="M230.149 120.939L65.986 256.274c0 .191-.048.472-.144.855-.094.38-.144.656-.144.852v137.041c0 4.948 1.809 9.236 5.426 12.847 3.616 3.613 7.898 5.431 12.847 5.431h109.63V303.664h73.097v109.64h109.629c4.948 0 9.236-1.814 12.847-5.435 3.617-3.607 5.432-7.898 5.432-12.847V257.981c0-.76-.104-1.334-.288-1.707L230.149 120.939z"/>
  <path d="M457.122 225.438L394.6 173.476V56.989c0-2.663-.856-4.853-2.574-6.567-1.704-1.712-3.894-2.568-6.563-2.568h-54.816c-2.666 0-4.855.856-6.57 2.568-1.711 1.714-2.566 3.905-2.566 6.567v55.673l-69.662-58.245c-6.084-4.949-13.318-7.423-21.694-7.423-8.375 0-15.608 2.474-21.698 7.423L3.172 225.438c-1.903 1.52-2.946 3.566-3.14 6.136-.193 2.568.472 4.811 1.997 6.713l17.701 21.128c1.525 1.712 3.521 2.759 5.996 3.142 2.285.192 4.57-.476 6.855-1.998L230.149 95.817l197.57 164.741c1.526 1.328 3.521 1.991 5.996 1.991h.858c2.471-.376 4.463-1.43 5.996-3.138l17.703-21.125c1.522-1.906 2.189-4.145 1.991-6.716-.195-2.563-1.242-4.609-3.141-6.132z"/>
</symbol>
<symbol id="svg-linux" viewBox="0 0 512 512">
  <path d="M231.288 142.313c-4.52.482-2.96 4.64-5.476 4.73-2.478.091-1.973-5.294 5.476-4.73zm13.626.686c4.399-1.13 4.422 3.299 6.824 2.493 2.335-.783-.037-5.627-6.824-2.493zm151.604 290.093c-13.588 6.832-31.312 22.01-37.94 28.299-4.873 4.663-25.293 6.976-36.637 1.138-13.445-6.922-6.312-17.724-27.072-18.235-10.318-.241-20.352-.332-30.407-.211-8.896.12-17.784.392-26.853.866-31.17.271-34.22 20.653-54.075 19.907-13.589-.504-30.739-11.223-60.191-17.392-20.698-4.309-40.569-5.333-44.825-14.492-4.249-9.129 5.243-19.366 5.875-28.465.775-11.863-8.986-27.997-1.771-34.249 5.958-5.176 19.012-1.379 27.426-6.079 8.948-4.964 12.541-9.099 12.541-19.998 3.292 11.133-.15 20.359-7.547 24.879-4.399 2.659-12.579 4.067-19.305 3.382-5.326-.504-8.625.361-10.244 2.389-2.064 2.636-1.401 7.246 1.197 13.385 2.614 6.139 5.755 10.033 5.333 17.543-.422 7.517-8.685 16.442-7.366 22.762.512 2.426 2.899 4.452 8.624 6.071 9.491 2.667 26.431 5.085 43.146 9.159 18.582 4.558 37.767 13.145 49.69 11.495 35.651-4.964 15.321-43.198 9.552-52.29-30.092-47.371-49.992-78.381-65.923-66.073-4.158 3.201-4.316-8.06-4.135-12.398.686-15.569 8.595-21.016 13.295-33.135 8.798-22.695 15.659-48.689 29.271-62.127 10.131-12.963 25.934-34.302 28.962-45.563-2.546-24.487-3.329-50.263-3.722-72.837-.384-24.013 3.42-45.081 30.537-59.814 6.613-3.593 15.207-4.911 24.314-5.001 16.284-.181 34.241 4.376 45.713 12.88 18.289 13.558 29.783 42.415 28.442 63.167-1.085 15.976 1.793 32.72 6.915 49.932 6.131 20.442 15.833 34.814 31.244 51.159 18.574 19.697 33.029 58.504 37.097 83.082 3.834 22.959-1.16 37.15-6.199 37.865-7.502 1.107-12.18 24.939-35.681 23.832-14.997-.723-16.466-9.581-20.623-17.128-6.682-12.067-13.476-8.293-16.203 4.286-1.408 6.432-.384 15.659 1.68 22.838 4.188 14.703 2.75 28.652.249 45.562-4.798 32.457 22.68 38.596 41.217 23.17 18.289-15.23 22.206-17.656 45.353-25.557 34.904-11.954 23.177-22.522 4.406-28.834-16.827-5.657-17.52-34.092-11.494-39.455 1.341 30.536 17.234 34.965 23.976 39.131 28.876 17.924-10.91 32.627-27.842 41.154zm-77.726-89.446c3.178-3.773 6.922-4.195 11.855-4.286.753-18.612 29.73-17.241 39.221-9.453 0-4.315-9.106-8.18-12.752-10.003 6.319-21.015 3.352-29.459-.836-49.307-3.179-15.147-16.979-35.53-27.787-41.909 2.727 2.387 7.909 9.34 13.385 19.538 9.431 17.558 18.74 43.507 12.541 65.298-2.387 8.323-7.841 9.371-11.584 9.792-16.617 1.732-6.848-19.637-13.747-49.073-7.683-32.721-15.562-35.176-17.542-37.744-9.521-42.573-20.112-38.324-23.109-54.398-2.689-14.222 12.397-25.986-8.113-29.964-6.252-1.228-15.199-7.57-18.77-8.022-3.533-.482-5.266-23.471 7.697-24.405 12.963-.957 15.441 14.643 12.896 20.782-3.684 6.079.271 8.353 6.681 6.373 5.243-1.612 1.861-15.269 3.111-17.294-3.382-19.554-11.547-22.371-20.051-24.013-32.276 2.478-17.784 38.227-21.053 34.784-4.572-4.851-18.319-.271-18.251-3.382.294-18.229-5.815-28.796-14.229-29.015-9.37-.271-13.234 12.851-13.8 20.239-.535 7.096 4.219 21.882 7.69 20.752 2.275-.753 6.169-5.325 2.004-5.303-2.154.03-5.408-5.024-5.747-11.171-.324-6.131 1.921-12.3 9.883-11.976 9.34.362 9.249 18.605 8.232 19.313-2.99 2.071-6.824 6.086-7.238 6.771-2.968 4.972-8.926 6.199-11.11 8.384-4.158 4.157-5.002 8.857-1.884 10.658 10.682 6.131 7.209 12.955 22.153 13.588 9.814.385 17.204-1.529 23.885-3.57 5.205-1.574 21.919-5.137 25.444-11.275 1.529-2.606 3.45-2.697 4.73-1.951 2.244 1.295 2.727 5.634-3.051 7.186-8.263 2.245-16.609 6.651-23.923 9.581-7.299 2.96-9.634 4.098-16.519 5.363-15.517 2.779-26.973-5.604-16.563 4.459 3.45 3.353 6.771 5.446 15.697 5.085 19.547-.776 41.45-24.247 43.612-13.739.452 2.154-6.191 5.084-11.373 7.66-18.326 9.017-31.229 26.823-42.965 20.661-10.5-5.536-20.947-31.583-20.767-19.915.294 17.994-23.72 34.009-12.67 54.489-7.155 1.95-23.471 36.373-25.813 54.3-1.28 10.153.973 22.906-1.461 30.032-3.533 10.297-19.576-9.815-14.455-34.461.92-4.339.144-5.258-1.017-3.164-6.522 11.525-2.938 27.6 2.207 38.883 2.253 4.881 7.518 7.035 11.411 11.381 8.406 9.4 40.57 33.256 46.4 38.973 7.064 6.944 5.084 22.875-9.936 24.397 7.698 14.522 15.2 15.9 15.087 39.643 8.708-4.678 5.205-14.907 1.56-21.648-2.546-4.609-5.875-6.703-5.152-7.78.543-.813 5.024-4.67 7.721-1.65 7.932 8.889 22.906 10.479 39.01 8.475 16.074-2.041 33.316-7.66 41.285-20.473 3.736-6.019 6.433-8.15 8.165-7.096 1.71 1.077 2.456 5.325 2.274 12.149-.203 7.577-3.374 15.448-5.348 21.738-2.223 7.126-2.907 12.18 4.037 12.451 2.064-13.175 5.688-26.138 6.734-39.243 1.171-14.91-9.63-42.666 2.008-56.495zm-98.523-211.689c-.535 2.938-.324 4.768 1.71 4.768.331 0 .685-.068.813-.813.979-5.838-2.041-10.086-3.27-10.425-2.869-.716-2.508 3.382-1.017 3.058.904-.182 2.125 1.317 1.764 3.412zm53.057-8.022c-2.938.271-2.094 1.732-.633 2.154 1.913.572 3.714 3.826 4.128 7.367.03.324 2.455-.512 2.455-1.288.182-5.665-4.67-8.347-5.95-8.233z"/>
</symbol>
<symbol id="svg-logo" viewBox="0 0 171.3 167.4">
  <path d="M120.7 97.8c4.9 0 8.9-4.1 8.9-9.4 0-5.2-4-9.1-8.9-9.1s-8.9 3.9-8.9 9.1c0 5.3 3.9 9.4 8.9 9.4zM40.8 49.9c2 0 3.5-.3 4.9-.9 2.8-1.2 4.4-4 4.4-7.8 0-3.5-1.4-6.2-3.9-7.5-1.4-.7-3.2-1.1-5.3-1.1h-8.2v17.2h8.1v.1zM134.2 49.9c2 0 3.5-.3 4.9-.9 2.8-1.2 4.4-4 4.4-7.8 0-3.5-1.4-6.2-3.9-7.5-1.4-.7-3.2-1.1-5.3-1.1H126v17.2h8.2v.1z"/>
  <path d="M0 0v125.7l85.7 41.7 85.6-41.7V0H0zm167.5 122l-81.8 39.8-.4-.2L3.8 122V4.7h163.7V122z"/>
  <path d="M165.6 120.7V6.7H5.8v114l79.9 38.8 79.9-38.8zM92 127.1c-2.1 0-2.8-1.8-2.8-4s.7-4 2.8-4 2.7 1.8 2.7 4-.7 4-2.7 4zm8.4-.2h-4.5v-.9h1.7v-5-.5s-.1.2-.4.5l-.7.7-.7-.7 1.9-1.8h1v6.8h1.7v.9zm3.1.3c-1.6 0-2.4-1.1-2.4-1.1l.7-.9s.6.9 1.8.9c1 0 1.7-.7 1.7-1.6 0-1-.8-1.6-1.8-1.6-.9 0-1.5.4-1.5.4l-.5-.2.3-3.2c0-.5.2-.7.7-.7h2.7c.5 0 .7.2.7.7v1h-1v-.5c0-.2-.1-.2-.2-.2H103c-.2 0-.2.1-.2.2l-.2 1.4c0 .2-.1.4-.1.4s.4-.2 1-.2c1.7 0 2.8 1.1 2.8 2.6 0 1.4-1.1 2.6-2.8 2.6zm10.8-60.6h5.5V32.3h-5.5v-4.8h20.5c2.7 0 5.3.2 7.5 1.2 4.5 1.9 7.5 6.6 7.5 12.4 0 6.2-3.2 11.1-8.3 12.9-2.1.7-4.2.9-6.6.9H126v11.6h5.5v4.8h-17.2v-4.7zm34.5 30.9v1.9h-12.2V77.6h2.1v19.9h10.1zm-28.1-20.3c6.2 0 11.1 4.9 11.1 11.1 0 6.4-4.9 11.4-11.1 11.4s-11.1-5-11.1-11.4c0-6.2 4.9-11.1 11.1-11.1zM61.6 66.6h5.5V32.3h-5.5v-4.8h17.2v4.8h-5.5V47H96V32.3h-5.5v-4.8h17.2v4.8h-5.5v34.3h5.5v4.8H90.5v-4.8H96V52.1H73.3v14.5h5.5v4.8H61.6v-4.8zm44.6 21.7c0 6.4-4.9 11.4-11.1 11.4-6.2 0-11.1-5-11.1-11.4 0-6.2 5-11.1 11.1-11.1 6.2 0 11.1 4.9 11.1 11.1zm-41.8 1.1v10h-2.1V77.6h2.1v9.9H77v-9.9h2.1v21.8H77v-10H64.4zM57 80l-1.1 1.6s-2.5-2.4-6.6-2.4c-5.1 0-8.8 4-8.8 9.1 0 5.2 3.7 9.5 8.8 9.5 4.4 0 7.1-2.9 7.1-2.9l1.2 1.5s-3 3.4-8.3 3.4c-6.4 0-11-5.1-11-11.4-.1-6.4 4.6-11.2 10.9-11.2 5.2 0 7.8 2.8 7.8 2.8zM21 66.6h5.5V32.3H21v-4.8h20.5c2.7 0 5.3.2 7.5 1.2 4.5 1.9 7.5 6.6 7.5 12.4 0 6.2-3.2 11.1-8.3 12.9-2.1.8-4.2 1-6.6 1h-8.9v11.6h5.5v4.8H21v-4.8zm.8 16.4c0-3.1 2.8-5.9 6.8-5.9 3.8 0 5.8 2.1 5.8 2.1L33.3 81s-1.9-1.9-4.8-1.9c-2.8 0-4.6 1.8-4.6 3.8 0 5.2 10.9 3.7 10.9 10.9 0 3.3-2.5 5.9-6.6 5.9-4.5 0-6.9-2.8-6.9-2.8l1.4-1.6s2.3 2.4 5.7 2.4c2.4 0 4.3-1.4 4.3-3.8 0-5.5-10.9-4.1-10.9-10.9zm-2.1 25.7h131v1h-131v-1zm65.7 11.4c-.7 0-1.2.4-1.2.7v.3h-1v-.7c0-1 1.4-1.4 2.3-1.4 1.4 0 2.4.9 2.4 2.2 0 2.7-3.9 2.7-3.9 4.5 0 .2.1.2.3.2H87c.2 0 .2-.1.2-.2v-.5h1v1c0 .5-.2.7-.7.7h-4c-.6 0-.7-.3-.7-.9 0-2.8 4-2.6 4-4.7 0-.7-.5-1.2-1.4-1.2zm-15.1 6.2c0 .5-.2.7-.7.7h-3.5c-.5 0-.7-.2-.7-.7v-6.2h-.7v-.9h4.6c.5 0 .7.2.7.7v1h-1v-.5c0-.2-.1-.2-.2-.2h-2.2v2.4h2.7v.9h-2.7v2.3c0 .2.1.2.2.2h2.3c.2 0 .2-.1.2-.2v-.5h1v1zm2.9.7c-1.5 0-2.2-1-2.2-1l.4-.6s.7.8 1.7.8c.5 0 1-.2 1-.7 0-1-3-.9-3-2.7 0-1.1.9-1.6 2.1-1.6.7 0 1.8.2 1.8 1.1v.5h-1v-.3c0-.3-.5-.5-.8-.5-.6 0-1 .2-1 .7 0 1.1 3 .8 3 2.7 0 1-.9 1.6-2 1.6zm5.8 0h-.4c-.7 0-2.1-.2-2.1-2.1v-2.7h-.7v-.9h.7v-1.5h1v1.5h1.3v.9h-1.3v2.6c0 1.1.8 1.3 1.2 1.3h.3v.9zm2.7 11.1l2.7-.4 1.3-2.5 1.2 2.5 2.8.4-2 1.9.4 2.8-2.4-1.3-2.5 1.3.5-2.8-2-1.9z"/>
  <path d="M86.2 88.4c.1 5.3 4 9.4 8.9 9.4s8.9-4.1 8.9-9.4c0-5.2-4-9.1-8.9-9.1s-8.9 3.9-8.9 9.1zM92 120.1c-1.3 0-1.6 1.3-1.6 3s.4 3 1.6 3 1.6-1.4 1.6-3c0-1.7-.4-3-1.6-3z"/>
</symbol>
<symbol id="svg-mail" viewBox="0 0 22 16">
  <path d="M21.3 16H.7L8 8.7l3 2.3 3-2.3 7.3 7.3zm.7-.7V2.5L14.8 8l7.2 7.3zm-22 0V2.5L7.2 8 0 15.3zm22-14V0H0v1.3l11 8.4 11-8.4z"/>
</symbol>
<symbol id="svg-menu" viewBox="0 0 25 20">
  <path d="M0 2C0 .9.9 0 2 0h21c1.1 0 2 .9 2 2s-.9 2-2 2H2C.9 4 0 3.1 0 2zm0 8c0-1.1.9-2 2-2h21c1.1 0 2 .9 2 2s-.9 2-2 2H2c-1.1 0-2-.9-2-2zm0 8c0-1.1.9-2 2-2h21c1.1 0 2 .9 2 2s-.9 2-2 2H2c-1.1 0-2-.9-2-2z"/>
</symbol>
<symbol id="svg-node-school-logo" viewBox="0 0 241.7 279.1">
  <path stroke="#000" stroke-width="20" stroke-miterlimit="10" d="M231.7 203.5l-110.8 64-110.9-64v-128l110.9-64 110.8 64z"/>
</symbol>
<symbol id="svg-node-school" viewBox="0 0 270.4 312.3">
  <path d="M261.9 229.3l-126.7 73.1L8.5 229.3V83L135.2 9.8 261.9 83z"/>
  <path d="M135.2 312.3L0 234.2V78.1L135.2 0l135.2 78.1v156.1l-135.2 78.1zM17 224.4l118.2 68.2 118.2-68.2V87.9L135.2 19.6 17 87.9v136.5z"/>
</symbol>
<symbol id="svg-pencil" viewBox="0 0 105.6 105.6">
  <path d="M24.9 99.3l70.4-70.4-18.5-18.6L6.3 80.7c-.3.3-.6.7-.8 1.2L0 102.7V103.8c0 .1.1.2.1.2 0 .1.1.1.1.2s.1.1.1.2.1.1.1.2.1.1.2.2l.2.2c.1 0 .1.1.2.1s.1.1.2.1.1.1.2.1.2.1.2.1h1.1l20.8-5.5c.7.1 1.1-.2 1.4-.6zM8.5 97.2c-.5-.5-1.3-.7-2-.6l3.2-12.1L21.2 96 9.1 99.1c.1-.7-.1-1.4-.6-1.9zM98.5 25.7L79.9 7.1 87.1 0s12.7 4.5 18.6 18.6l-7.2 7.1z"/>
</symbol>
<symbol id="svg-search" viewBox="0 0 17.5 17.5">
  <path d="M12.5 11h-.8l-.3-.3c1-1.1 1.6-2.6 1.6-4.2C13 2.9 10.1 0 6.5 0S0 2.9 0 6.5 2.9 13 6.5 13c1.6 0 3.1-.6 4.2-1.6l.3.3v.8l5 5 1.5-1.5-5-5zm-6 0C4 11 2 9 2 6.5S4 2 6.5 2 11 4 11 6.5 9 11 6.5 11z"/>
</symbol>
<symbol id="svg-slack" viewBox="0 0 125.1 125.1">
  <path d="M68.213 51.791l5.399 16.12-16.688 5.59-5.4-16.12z"/>
  <path d="M68.213 51.791l5.399 16.12-16.688 5.59-5.4-16.12z"/>
  <path d="M119.8 45.3c-12.9-43-31.5-53-74.5-40.1s-53 31.5-40.1 74.5 31.5 53 74.5 40.1 53-31.5 40.1-74.5zM98.1 73.2L90 75.9l2.8 8.4c1.1 3.4-.7 7.1-4.1 8.2-.7.2-1.5.4-2.2.3-2.6-.1-5.1-1.8-6-4.4L77.7 80 61 85.7l2.8 8.4c1.1 3.4-.7 7.1-4.1 8.2-.7.2-1.5.4-2.2.3-2.6-.1-5.1-1.8-6-4.4l-2.8-8.4-8.1 2.7c-.7.2-1.5.4-2.2.3-2.6-.1-5.1-1.8-6-4.4-1.1-3.4.7-7.1 4.1-8.2l8.1-2.7-5.4-16.1-8.1 2.7c-.7.2-1.5.4-2.2.3-2.6-.1-5.1-1.8-6-4.4-1.1-3.4.7-7.1 4.1-8.2l8.1-2.7-2.8-8.4c-1.1-3.4.7-7.1 4.1-8.2 3.4-1.1 7.1.7 8.2 4.1l2.8 8.4 16.7-5.6-2.8-8.4c-1.1-3.4.7-7.1 4.1-8.2s7.1.7 8.2 4.1l2.8 8.4 8.1-2.7c3.4-1.1 7.1.7 8.2 4.1 1.1 3.4-.7 7.1-4.1 8.2l-8.1 2.7 5.4 16.1L94 61c3.4-1.1 7.1.7 8.2 4.1 1.1 3.3-.7 7-4.1 8.1z"/>
</symbol>
<symbol id="svg-social-media" viewBox="0 0 310 310">
  <path d="M302.973 57.388a117.512 117.512 0 01-14.993 5.463 66.276 66.276 0 0013.494-23.73 5 5 0 00-7.313-5.824 117.994 117.994 0 01-34.878 13.783c-12.381-12.098-29.197-18.983-46.581-18.983-36.695 0-66.549 29.853-66.549 66.547 0 2.89.183 5.764.545 8.598C101.163 99.244 58.83 76.863 29.76 41.204a5.001 5.001 0 00-8.196.642c-5.896 10.117-9.013 21.688-9.013 33.461 0 16.035 5.725 31.249 15.838 43.137a56.37 56.37 0 01-8.907-3.977 5 5 0 00-7.427 4.257c-.007.295-.007.59-.007.889 0 23.935 12.882 45.484 32.577 57.229a57.372 57.372 0 01-5.063-.735 4.998 4.998 0 00-5.699 6.437c7.29 22.76 26.059 39.501 48.749 44.605-18.819 11.787-40.34 17.961-62.932 17.961a120.4 120.4 0 01-14.095-.826 5 5 0 00-3.286 9.174c29.023 18.609 62.582 28.445 97.047 28.445 67.754 0 110.139-31.95 133.764-58.753 29.46-33.421 46.356-77.658 46.356-121.367 0-1.826-.028-3.67-.084-5.508 11.623-8.757 21.63-19.355 29.773-31.536a5 5 0 00-6.182-7.351z"/>
</symbol>
<symbol id="svg-tick" viewBox="0 0 167.2 121.5">
  <path d="M60.7 121.5c-4 0-7.8-1.6-10.6-4.4L4.4 71.4c-5.9-5.9-5.9-15.4 0-21.2 5.9-5.9 15.4-5.9 21.2 0l35.1 35.1 80.9-80.9c5.9-5.9 15.4-5.9 21.2 0 5.9 5.9 5.9 15.4 0 21.2l-91.5 91.5c-2.8 2.8-6.6 4.4-10.6 4.4z"/>
</symbol>
<symbol id="svg-twitter" viewBox="0 0 273.5 222.3">
  <path d="M273.5 26.3c-10.1 4.5-20.9 7.5-32.2 8.8 11.6-6.9 20.5-17.9 24.7-31-10.9 6.4-22.9 11.1-35.7 13.6A55.919 55.919 0 00189.4 0c-31 0-56.1 25.1-56.1 56.1 0 4.4.5 8.7 1.5 12.8-46.7-2.4-88-24.7-115.7-58.6-4.8 8.3-7.6 17.9-7.6 28.2 0 19.5 9.9 36.6 25 46.7-9.2-.3-17.8-2.8-25.4-7v.7c0 27.2 19.3 49.8 45 55-4.7 1.3-9.7 2-14.8 2-3.6 0-7.1-.4-10.6-1 7.1 22.3 27.9 38.5 52.4 39-19.2 15-43.4 24-69.7 24-4.5 0-9-.3-13.4-.8 24.8 15.9 54.3 25.2 86 25.2 103.2 0 159.6-85.5 159.6-159.6 0-2.4-.1-4.9-.2-7.3 11.1-8 20.6-17.9 28.1-29.1z"/>
</symbol>
<symbol id="svg-windows" viewBox="0 0 88 88">
  <path d="M0 12.402l35.687-4.86.016 34.423-35.67.203zm35.67 33.529l.028 34.453L.028 75.48.026 45.7zm4.326-39.025L87.314 0v41.527l-47.318.376zm47.33 39.349l-.012 41.34-47.318-6.678-.066-34.74z"/>
</symbol>
<symbol id="svg-woman" viewBox="0 0 25.748 25.748">
  <path d="M23.034 22.891H22.47v-1.459l.011.014v-3.25l-.011-.014v-5.761h-2.82c.07-.682.134-1.442.166-2.215C19.924 7.761 20.29 0 13.25 0S6.403 6.48 6.403 6.48l.363 5.94h-3.09v10.443l-.026.028h-.796v.377H.086v2.48h25.576v-2.48l-2.645.014.017-.391zm-9.74-3.687A1.285 1.285 0 0112 17.927c0-.704.58-1.276 1.294-1.276s1.294.572 1.294 1.276a1.285 1.285 0 01-1.294 1.277zm1.569-7.556v.772h-3.135v-.829a5.618 5.618 0 01-3.914-5.915c1.53-.104 6.813-.584 6.949-2.293.503.928 3.171 3.266 4.229 3.42a5.62 5.62 0 01-4.129 4.845z"/>
</symbol>

</svg>