<svg width="250" height="250" viewBox="0 0 250 250" fill="none" xmlns="http://www.w3.org/2000/svg">
<g clip-path="url(#clip0_89_2229)">
<g filter="url(#filter0_d_89_2229)">
<path d="M95.5998 26.4C95.0498 27.475 84.5498 48.975 76.7998 64.825L74.2998 69.95L90.1998 96.525C98.9498 111.15 106.175 123.3 106.3 123.525C106.4 123.75 106.825 126.2 107.225 128.95C108.5 137.9 109.75 146.95 110.125 149.65C110.325 151.1 110.55 152.9 110.675 153.625C110.9 155.125 111.75 161.825 114.5 183.25L116.35 197.725L117.7 200.1C118.45 201.375 123.425 210.7 128.825 220.775L138.575 239.1L140.975 239.575C145.275 240.45 152.375 242 154.55 242.5C156.5 242.95 156.675 243.025 156.675 243.425C156.675 243.775 157.8 242.875 163.05 238.4C166.55 235.4 169.575 232.775 169.775 232.625C170.1 232.325 170.075 232.225 168.925 229.925C168.25 228.625 167.65 227.55 167.575 227.55C167.5 227.55 167 226.5 166.45 225.2C165.9 223.925 165.375 222.85 165.25 222.85C165.125 222.85 165.025 222.725 165.025 222.55C165.025 222.4 164.925 222.3 164.8 222.35C164.675 222.4 162.2 224.15 159.325 226.2C156.425 228.275 153.825 230.175 153.525 230.4L152.95 230.8L151.275 225.85C146.525 211.775 144.025 204.275 141.725 197.475L139.2 189.95L139.8 178.725C140.125 172.55 140.425 166.875 140.5 166.125C140.55 165.375 141.125 158.45 141.775 150.725C142.425 143 143.15 134.125 143.4 130.975C143.65 127.85 143.925 125.075 144 124.825C144.1 124.575 151.25 112.025 159.925 96.9L175.725 69.45L172.725 63.575C166.95 52.275 165.125 48.55 159.775 37.225L154.4 25.825L138.6 25.8C122.7 25.75 101.575 25.5 98.1498 25.275L96.3248 25.15L95.5998 26.4Z" fill="#DB2770"/>
<mask id="mask0_89_2229" style="mask-type:luminance" maskUnits="userSpaceOnUse" x="9" y="14" width="84" height="138">
<path d="M92.325 14.475H9V151.65H92.325V14.475Z" fill="white"/>
</mask>
<g mask="url(#mask0_89_2229)">
<path d="M39.9998 33.575C23.6498 44.075 10.0248 52.85 9.7248 53.125L9.1748 53.6L10.3498 61.25C10.9748 65.475 12.1748 74.2 12.9748 80.7C14.4498 92.375 14.4498 92.475 14.9248 92.95C15.1998 93.2 18.8748 96.625 23.0998 100.55C62.1998 136.85 78.7498 151.825 79.2248 151.325C79.2998 151.225 80.0748 148.725 80.9498 145.725C81.8248 142.75 82.9998 138.65 83.5748 136.675C84.1498 134.675 85.6248 129.625 86.8248 125.45C88.0498 121.275 89.7248 115.475 90.5498 112.575C91.3998 109.675 92.0998 107.2 92.0998 107.05C92.1248 106.9 89.5998 102.775 86.4998 97.875C81.8748 90.55 70.3498 71.15 70.3498 70.65C70.3498 70.575 71.7498 67.6 73.4498 64C87.9748 33.35 92.2498 24.225 92.1248 24.1C92.0248 24 90.8248 23.45 89.4248 22.875C88.0248 22.275 83.0498 20.15 78.3498 18.15C73.6498 16.125 69.7748 14.5 69.7498 14.525C69.7248 14.525 56.3248 23.125 39.9998 33.575Z" fill="#DB2770"/>
</g>
<mask id="mask1_89_2229" style="mask-type:luminance" maskUnits="userSpaceOnUse" x="157" y="14" width="84" height="138">
<path d="M240.975 14.675H157.675V152H240.975V14.675Z" fill="white"/>
</mask>
<g mask="url(#mask1_89_2229)">
<path d="M168.799 19.575C162.799 22.15 157.824 24.325 157.824 24.4C157.799 24.5 162.449 34.45 168.199 46.55C173.924 58.65 178.874 69.1 179.174 69.775L179.724 71L176.249 77.025C169.824 88.15 168.974 89.55 163.849 97.65C161.049 102.1 158.549 106.05 158.299 106.425L157.849 107.15L158.349 108.875C158.624 109.825 159.824 114.025 161.049 118.2C162.274 122.375 163.924 128.125 164.749 130.975C165.574 133.825 167.249 139.6 168.449 143.825C169.674 148.075 170.724 151.575 170.774 151.65C171.174 152.125 189.699 135.375 224.724 102.8C229.549 98.325 233.949 94.2 234.524 93.65L235.574 92.65L236.924 81.6C238.399 69.825 238.724 67.225 239.999 59.075L240.799 53.9L240.324 53.425C239.574 52.7 180.424 14.875 180.049 14.9C179.899 14.9 174.824 17 168.799 19.575Z" fill="#DB2770"/>
</g>
<path d="M153.675 112.775L164.55 154.15L177.375 166.1L225.05 141.525L214.9 155.325L205.95 163.6L180.775 179.5L173.325 178.85L158.075 166.6L143.675 154.325L145.825 126.55" fill="#DB2770"/>
<path d="M96.8502 112.025L85.9752 153.425L73.1502 165.35L25.4502 140.775L35.6252 154.575L44.5502 162.85L69.7502 178.75L77.2002 178.1L92.4252 165.85L106.85 153.575L104.7 125.8" fill="#DB2770"/>
</g>
<path d="M158.59 32H91.4607L83 49.75H166.925L158.59 32Z" fill="#7E349C"/>
<path d="M121.335 44.4756L114.656 41.5225V40.709L121.335 37.3867V38.7129L116.324 41.0576L121.335 43.1562V44.4756ZM127.016 42.9512V42.5205C127.016 42.1833 127.055 41.8893 127.132 41.6387C127.21 41.388 127.34 41.1533 127.522 40.9346C127.704 40.7113 127.95 40.4788 128.26 40.2373C128.579 39.9867 128.832 39.7702 129.019 39.5879C129.211 39.4056 129.347 39.2233 129.429 39.041C129.516 38.8542 129.559 38.6377 129.559 38.3916C129.559 38.0042 129.427 37.7103 129.163 37.5098C128.903 37.3047 128.536 37.2021 128.062 37.2021C127.643 37.2021 127.249 37.2614 126.879 37.3799C126.51 37.4984 126.146 37.6465 125.786 37.8242L125.218 36.6211C125.633 36.3932 126.082 36.2109 126.565 36.0742C127.053 35.9329 127.588 35.8623 128.171 35.8623C129.101 35.8623 129.819 36.0879 130.325 36.5391C130.835 36.9902 131.09 37.585 131.09 38.3232C131.09 38.7288 131.027 39.0775 130.899 39.3691C130.771 39.6562 130.582 39.9229 130.332 40.1689C130.086 40.4105 129.787 40.6657 129.436 40.9346C129.149 41.1624 128.928 41.3607 128.773 41.5293C128.623 41.6934 128.518 41.8597 128.459 42.0283C128.404 42.1969 128.377 42.3997 128.377 42.6367V42.9512H127.016ZM126.756 45.1523C126.756 44.7786 126.852 44.5166 127.044 44.3662C127.239 44.2113 127.479 44.1338 127.761 44.1338C128.035 44.1338 128.269 44.2113 128.465 44.3662C128.661 44.5166 128.759 44.7786 128.759 45.1523C128.759 45.5169 128.661 45.7812 128.465 45.9453C128.269 46.1048 128.035 46.1846 127.761 46.1846C127.479 46.1846 127.239 46.1048 127.044 45.9453C126.852 45.7812 126.756 45.5169 126.756 45.1523Z" fill="white"/>
</g>
<defs>
<filter id="filter0_d_89_2229" x="-0.825195" y="14.5247" width="241.624" height="238.968" filterUnits="userSpaceOnUse" color-interpolation-filters="sRGB">
<feFlood flood-opacity="0" result="BackgroundImageFix"/>
<feColorMatrix in="SourceAlpha" type="matrix" values="0 0 0 0 0 0 0 0 0 0 0 0 0 0 0 0 0 0 127 0" result="hardAlpha"/>
<feOffset dx="-10" dy="10"/>
<feComposite in2="hardAlpha" operator="out"/>
<feColorMatrix type="matrix" values="0 0 0 0 0 0 0 0 0 0 0 0 0 0 0 0 0 0 0.25 0"/>
<feBlend mode="normal" in2="BackgroundImageFix" result="effect1_dropShadow_89_2229"/>
<feBlend mode="normal" in="SourceGraphic" in2="effect1_dropShadow_89_2229" result="shape"/>
</filter>
<clipPath id="clip0_89_2229">
<rect width="250" height="250" fill="white"/>
</clipPath>
</defs>
</svg>
