<svg width="376" height="252" viewBox="0 0 376 252" fill="none" xmlns="http://www.w3.org/2000/svg">
<g filter="url(#filter0_d_167_457)">
<mask id="mask0_167_457" style="mask-type:luminance" maskUnits="userSpaceOnUse" x="188" y="0" width="80" height="80">
<path d="M188 18.7806L249.182 4.57764e-05L267.964 61.1872L206.782 79.9678L188 18.7806Z" fill="white"/>
</mask>
<g mask="url(#mask0_167_457)">
<path d="M230.022 64.1661L239.875 61.1416L240.48 63.1135L230.627 66.1379L230.022 64.1661ZM228.425 62.4995C228.361 62.5193 228.299 62.546 228.24 62.5781C228.181 62.6102 228.126 62.6481 228.074 62.6909C228.022 62.734 227.975 62.7824 227.933 62.8346C227.89 62.8869 227.853 62.9427 227.822 63.002C227.791 63.0622 227.765 63.124 227.746 63.1884C227.726 63.2528 227.713 63.3187 227.707 63.386C227.701 63.4533 227.701 63.5203 227.708 63.5872C227.714 63.654 227.728 63.7197 227.747 63.7842L228.958 67.7272C228.977 67.7919 229.003 67.8537 229.034 67.9138C229.066 67.9736 229.104 68.0293 229.146 68.0817C229.189 68.1339 229.237 68.182 229.288 68.2254C229.341 68.2678 229.397 68.3055 229.456 68.3378C229.516 68.3692 229.579 68.3953 229.643 68.4147C229.707 68.4342 229.773 68.4479 229.841 68.4543C229.908 68.4606 229.976 68.4607 230.043 68.4541C230.111 68.4473 230.176 68.4341 230.241 68.4143L242.076 64.7814C242.14 64.7615 242.203 64.7354 242.262 64.7033C242.322 64.671 242.377 64.633 242.43 64.59C242.482 64.547 242.529 64.4985 242.571 64.4463C242.613 64.394 242.65 64.3375 242.681 64.2773C242.714 64.2177 242.738 64.1553 242.757 64.0901C242.777 64.0257 242.789 63.9593 242.795 63.892C242.801 63.8246 242.801 63.7569 242.793 63.6903C242.786 63.6229 242.772 63.5574 242.752 63.4929L241.542 59.55C241.522 59.4854 241.496 59.4236 241.464 59.3646C241.432 59.3056 241.394 59.2499 241.351 59.1977C241.309 59.1463 241.261 59.0991 241.209 59.0567C241.156 59.0135 241.101 58.9766 241.041 58.9451C240.983 58.9134 240.92 58.8871 240.856 58.8677C240.792 58.8482 240.726 58.8353 240.658 58.8281C240.592 58.8215 240.525 58.8212 240.458 58.8278C240.391 58.8344 240.325 58.8468 240.26 58.8666L228.425 62.4995ZM225.274 61.3101L242.202 56.1137L244.027 57.081L245.414 61.5992C245.497 61.8725 245.665 62.0765 245.916 62.213L248.116 63.3729L248.597 64.9408L224.933 72.2047L224.452 70.6367L225.623 68.4422C225.753 68.1885 225.777 67.9258 225.693 67.6525L224.307 63.1344L225.274 61.3101ZM228.91 53.7183L234.935 51.869C235.128 52.3344 235.345 52.7891 235.585 53.2324C236.014 54.057 236.543 54.812 237.169 55.4984L229.096 57.9766C229.23 57.0568 229.243 56.1347 229.136 55.2121C229.078 54.6448 228.991 54.131 228.909 53.7186L228.91 53.7183ZM225.483 49.38L235.336 46.3555C235.401 46.3339 235.467 46.3188 235.534 46.3104C235.602 46.3018 235.671 46.3 235.738 46.3053C235.806 46.3106 235.873 46.3233 235.939 46.3423C236.004 46.3615 236.068 46.3865 236.128 46.4177C236.188 46.4497 236.245 46.4872 236.298 46.5304C236.351 46.5733 236.399 46.6214 236.442 46.6743C236.484 46.7275 236.522 46.7841 236.554 46.8449C236.585 46.9058 236.611 46.9686 236.629 47.0344L236.932 48.0208C236.954 48.0856 236.968 48.1526 236.976 48.22C236.984 48.2882 236.984 48.356 236.979 48.4239C236.973 48.492 236.96 48.5587 236.94 48.6241C236.921 48.6893 236.895 48.7522 236.863 48.8126C236.831 48.8722 236.792 48.9293 236.749 48.981C236.705 49.0337 236.657 49.0816 236.604 49.1241C236.551 49.1665 236.493 49.2034 236.432 49.2344C236.372 49.2659 236.309 49.2905 236.243 49.3081L226.39 52.3326C226.325 52.355 226.258 52.3703 226.191 52.3779C226.123 52.3866 226.055 52.3881 225.988 52.3828C225.919 52.3777 225.852 52.3651 225.787 52.3458C225.721 52.3269 225.658 52.3016 225.597 52.2706C225.537 52.2386 225.481 52.2009 225.428 52.158C225.375 52.1148 225.327 52.0667 225.284 52.0138C225.241 51.9608 225.203 51.9043 225.172 51.8434C225.14 51.7833 225.115 51.7195 225.096 51.6539L224.793 50.6676C224.772 50.6025 224.757 50.5365 224.75 50.4683C224.742 50.4009 224.741 50.3323 224.747 50.2642C224.753 50.1969 224.766 50.1302 224.785 50.0642C224.805 49.9988 224.83 49.9361 224.863 49.8765C224.895 49.8159 224.933 49.7599 224.977 49.7071C225.02 49.6547 225.069 49.6076 225.122 49.564C225.176 49.5216 225.232 49.485 225.293 49.454C225.354 49.4233 225.418 49.3984 225.483 49.38ZM244.427 5.80037C244.941 5.61996 245.471 5.53245 246.015 5.53784C246.56 5.54322 247.088 5.641 247.598 5.83221C248.452 6.19692 249.104 6.86946 249.472 8.0693C250.109 10.1431 251.275 13.9951 250.48 18.2449C249.76 22.0986 247.502 26.3102 241.488 29.9564C242.058 27.2985 242.396 24.6119 242.5 21.8957C242.605 19.1802 242.474 16.475 242.111 13.7822C242.528 13.9337 242.96 14.015 243.404 14.0259C243.849 14.0367 244.283 13.9775 244.708 13.8462C244.837 13.8065 244.963 13.76 245.088 13.7079C245.212 13.6549 245.333 13.5967 245.452 13.5323C245.57 13.4682 245.685 13.3979 245.797 13.3226C245.909 13.2472 246.017 13.1662 246.121 13.0804C246.225 12.9935 246.324 12.9028 246.419 12.8068C246.514 12.7112 246.604 12.6114 246.689 12.5058C246.774 12.4014 246.854 12.2931 246.928 12.1805C247.002 12.0678 247.072 11.9524 247.134 11.8329C247.198 11.714 247.255 11.592 247.306 11.4672C247.357 11.3419 247.402 11.2154 247.441 11.0858C247.48 10.9562 247.512 10.826 247.538 10.6935C247.563 10.561 247.583 10.4275 247.596 10.2937C247.609 10.159 247.615 10.0247 247.615 9.88945C247.615 9.75447 247.608 9.62064 247.594 9.48614C247.581 9.35164 247.561 9.21829 247.534 9.08611C247.508 8.95393 247.475 8.8237 247.436 8.69439C247.416 8.62986 247.39 8.56728 247.358 8.50746C247.325 8.44763 247.288 8.39191 247.244 8.33919C247.201 8.28701 247.153 8.23974 247.101 8.19657C247.048 8.1534 246.992 8.11672 246.932 8.08445C246.872 8.05322 246.809 8.0272 246.745 8.00773C246.68 7.98851 246.614 7.9756 246.545 7.96869C246.478 7.96234 246.411 7.96284 246.343 7.96966C246.276 7.97648 246.209 7.98991 246.145 8.00972C246.079 8.02978 246.018 8.05572 245.958 8.08803C245.898 8.12034 245.842 8.1575 245.789 8.20078C245.737 8.24462 245.69 8.29226 245.647 8.34474C245.604 8.39722 245.567 8.45381 245.535 8.51341C245.504 8.57356 245.477 8.63567 245.458 8.70085C245.439 8.76603 245.426 8.83189 245.419 8.89947C245.413 8.9676 245.413 9.03457 245.42 9.10222C245.427 9.16987 245.44 9.23636 245.46 9.30089C245.501 9.42947 245.529 9.56221 245.544 9.69622C245.559 9.83103 245.56 9.96577 245.548 10.1002C245.537 10.2354 245.511 10.3679 245.474 10.498C245.435 10.6276 245.384 10.7521 245.321 10.8727C245.258 10.9922 245.184 11.1048 245.098 11.2095C245.013 11.3143 244.917 11.4098 244.813 11.4959C244.708 11.5822 244.596 11.6567 244.477 11.7211C244.357 11.7849 244.232 11.8363 244.103 11.8751C243 12.2136 241.863 11.6064 241.45 10.0322C241.039 8.45777 242.206 6.4822 244.427 5.80037ZM209.955 16.3822C209.889 16.4022 209.827 16.4281 209.768 16.4605C209.708 16.4928 209.652 16.5299 209.6 16.573C209.547 16.6162 209.5 16.6639 209.457 16.7172C209.414 16.7694 209.377 16.8254 209.345 16.8856C209.313 16.9452 209.288 17.0079 209.268 17.0722C209.248 17.1377 209.236 17.2035 209.229 17.2717C209.223 17.339 209.224 17.406 209.23 17.4736C209.237 17.5413 209.25 17.607 209.27 17.6723C209.29 17.7368 209.316 17.7994 209.349 17.8584C209.381 17.9182 209.418 17.9748 209.461 18.0269C209.504 18.0791 209.552 18.1264 209.605 18.1693C209.657 18.2117 209.714 18.2494 209.774 18.2814C209.833 18.3129 209.896 18.3381 209.961 18.3584C210.026 18.3776 210.092 18.3905 210.16 18.3966C210.227 18.403 210.294 18.4033 210.362 18.3965C210.429 18.3888 210.495 18.3757 210.56 18.3556L211.547 18.0528C211.612 18.0328 211.674 18.0068 211.734 17.9753C211.794 17.943 211.849 17.9051 211.901 17.862C211.954 17.819 212.002 17.7711 212.044 17.7189C212.087 17.6656 212.125 17.6095 212.156 17.5502C212.188 17.4898 212.213 17.4271 212.233 17.3628C212.252 17.2976 212.266 17.2315 212.272 17.1641C212.278 17.0968 212.278 17.029 212.271 16.9614C212.264 16.8945 212.251 16.828 212.231 16.7635C212.211 16.6982 212.185 16.6364 212.153 16.5766C212.12 16.5167 212.083 16.461 212.04 16.4089C211.997 16.3559 211.949 16.3089 211.896 16.2657C211.844 16.2233 211.788 16.1856 211.728 16.1544C211.668 16.1221 211.605 16.0969 211.54 16.0776C211.476 16.0574 211.409 16.0447 211.342 16.0384C211.274 16.032 211.207 16.0325 211.14 16.0393C211.072 16.0461 211.006 16.0593 210.941 16.0794L209.955 16.3822ZM204.037 18.1987C203.972 18.2193 203.91 18.2455 203.851 18.2776C203.791 18.3107 203.736 18.3486 203.684 18.3925C203.632 18.4355 203.585 18.484 203.542 18.5362C203.5 18.5892 203.463 18.645 203.432 18.7052C203.401 18.7653 203.375 18.828 203.356 18.8932C203.338 18.9573 203.325 19.024 203.319 19.0913C203.313 19.1584 203.314 19.2262 203.32 19.293C203.328 19.3604 203.341 19.4261 203.362 19.4912L204.285 22.4988C204.285 22.4988 205.442 26.0073 208.618 30.3739C210.488 32.9357 212.628 35.249 215.036 37.3133C215.088 37.3559 215.143 37.3939 215.201 37.4256C215.26 37.4573 215.322 37.4836 215.386 37.5033C215.45 37.5238 215.515 37.537 215.581 37.5444C215.648 37.5518 215.715 37.5523 215.781 37.5468C215.848 37.541 215.913 37.5296 215.978 37.5106C216.042 37.4926 216.104 37.4675 216.164 37.437C216.223 37.4066 216.28 37.371 216.332 37.3295C216.385 37.2881 216.433 37.2421 216.476 37.1912C216.52 37.1403 216.558 37.0858 216.591 37.027C216.624 36.969 216.651 36.9083 216.672 36.8444C216.693 36.7811 216.708 36.7156 216.716 36.6494C216.725 36.5831 216.726 36.5165 216.722 36.4497C216.717 36.3831 216.706 36.317 216.689 36.2525C216.671 36.188 216.648 36.1255 216.618 36.0657C216.589 36.0049 216.554 35.9487 216.513 35.8958C216.473 35.8419 216.427 35.7931 216.377 35.7492C214.091 33.7895 212.06 31.5935 210.286 29.1601C207.274 25.0204 206.243 21.8489 206.243 21.8489L205.636 19.8691L206.614 19.5687C206.683 19.5511 206.748 19.5284 206.812 19.4975C206.875 19.4677 206.934 19.4311 206.991 19.3885C207.047 19.3461 207.098 19.299 207.144 19.2464C207.191 19.1929 207.231 19.1361 207.265 19.075C207.301 19.0136 207.328 18.9502 207.35 18.8833C207.372 18.8166 207.386 18.7476 207.394 18.6782C207.402 18.6085 207.402 18.5387 207.396 18.4684C207.389 18.3989 207.375 18.33 207.354 18.2631C207.334 18.1962 207.307 18.1312 207.273 18.07C207.239 18.008 207.2 17.9504 207.154 17.8974C207.109 17.8433 207.058 17.7952 207.003 17.752C206.947 17.709 206.888 17.6712 206.825 17.6401C206.762 17.6096 206.697 17.5844 206.629 17.5669C206.561 17.5495 206.492 17.5383 206.422 17.5345C206.351 17.531 206.282 17.5349 206.212 17.5448C206.143 17.5558 206.075 17.5729 206.009 17.5977L204.037 18.1987ZM198.88 25.7567C198.751 25.7974 198.619 25.8248 198.484 25.8392C198.349 25.8536 198.214 25.8549 198.078 25.8424C197.944 25.8297 197.811 25.8041 197.681 25.7657C197.551 25.7262 197.427 25.6755 197.306 25.6123C197.186 25.5488 197.074 25.4733 196.969 25.3878C196.864 25.3017 196.769 25.2061 196.683 25.101C196.597 24.9966 196.522 24.8844 196.458 24.7645C196.394 24.6446 196.343 24.52 196.304 24.3899C196.282 24.3277 196.254 24.2682 196.221 24.2123C196.187 24.1556 196.149 24.1028 196.105 24.0535C196.061 24.005 196.013 23.9604 195.961 23.9198C195.909 23.8801 195.854 23.8455 195.795 23.8157C195.736 23.7866 195.675 23.7627 195.612 23.7454C195.549 23.7273 195.484 23.7157 195.419 23.7105C195.353 23.7054 195.287 23.7055 195.222 23.7123C195.157 23.7203 195.093 23.733 195.03 23.7523C194.967 23.7716 194.907 23.7971 194.849 23.827C194.79 23.8581 194.736 23.8947 194.685 23.9357C194.634 23.9766 194.587 24.0224 194.544 24.0731C194.502 24.1227 194.464 24.1769 194.432 24.2339C194.4 24.2916 194.374 24.3511 194.353 24.4133C194.332 24.4764 194.318 24.5401 194.309 24.6047C194.301 24.6699 194.299 24.7352 194.302 24.8012C194.306 24.8662 194.317 24.931 194.333 24.9949C194.373 25.124 194.419 25.2501 194.471 25.3752C194.524 25.4996 194.582 25.6212 194.646 25.7392C194.71 25.8581 194.781 25.9734 194.856 26.0854C194.932 26.1971 195.012 26.305 195.099 26.4083C195.185 26.5127 195.276 26.6121 195.372 26.7072C195.467 26.8018 195.567 26.8922 195.672 26.9777C195.777 27.0625 195.886 27.1423 195.998 27.2167C196.11 27.2914 196.226 27.3603 196.346 27.4238C196.465 27.4868 196.587 27.5443 196.712 27.5958C196.836 27.6465 196.964 27.6919 197.092 27.7309C197.222 27.7696 197.353 27.8017 197.485 27.8283C197.617 27.8539 197.751 27.874 197.886 27.8867C198.019 27.8996 198.154 27.9063 198.289 27.9058C198.424 27.9061 198.559 27.8988 198.693 27.8854C198.827 27.8723 198.961 27.8531 199.093 27.8265C199.225 27.7998 199.356 27.7674 199.485 27.7278C199.91 27.5982 200.304 27.4033 200.666 27.1449C201.027 26.8865 201.339 26.5774 201.6 26.2175C202.807 28.6513 204.215 30.9627 205.824 33.1521C207.432 35.3409 209.218 37.3758 211.18 39.2546C204.161 39.6099 199.925 37.396 197.172 34.6101C194.13 31.5371 192.928 27.6953 192.292 25.6223C192.204 25.385 192.144 25.1403 192.112 24.8885C192.08 24.6368 192.077 24.3858 192.104 24.1336C192.13 23.8814 192.185 23.6352 192.269 23.396C192.352 23.1568 192.462 22.9303 192.598 22.7161C192.913 22.2715 193.294 21.8947 193.742 21.5846C194.189 21.2739 194.676 21.0494 195.203 20.9104C197.423 20.2288 199.497 21.2085 200.041 22.7434C200.583 24.2785 199.983 25.4182 198.88 25.7567ZM225.505 7.30318C225.44 7.32378 225.379 7.34972 225.32 7.38179C225.261 7.41386 225.205 7.45181 225.154 7.4946C225.102 7.53844 225.055 7.58583 225.013 7.63807C224.971 7.69031 224.934 7.7461 224.902 7.80545C224.871 7.86481 224.845 7.92747 224.826 7.99186C224.807 8.05624 224.794 8.1221 224.787 8.18864C224.781 8.25597 224.781 8.32294 224.788 8.3898C224.794 8.45665 224.807 8.52259 224.827 8.58712C224.759 8.60423 224.695 8.62851 224.632 8.65917C224.569 8.68982 224.51 8.72692 224.455 8.7691C224.399 8.81152 224.349 8.8591 224.304 8.91231C224.258 8.96553 224.219 9.02206 224.185 9.08318C224.151 9.14327 224.123 9.20746 224.102 9.27338C224.081 9.33985 224.066 9.40803 224.06 9.47721C224.052 9.54662 224.052 9.61568 224.058 9.68517C224.065 9.75465 224.079 9.82273 224.099 9.88886C224.119 9.95579 224.146 10.02 224.18 10.0811C224.213 10.1423 224.253 10.1991 224.298 10.2524C224.342 10.3059 224.393 10.3541 224.447 10.3975C224.502 10.44 224.56 10.4778 224.622 10.5085C224.685 10.5398 224.749 10.5645 224.817 10.583C224.884 10.6015 224.952 10.6121 225.022 10.6167C225.092 10.6207 225.161 10.6187 225.23 10.6087C225.299 10.5988 225.367 10.5825 225.432 10.559C225.454 10.6209 225.482 10.6796 225.516 10.7363C225.549 10.7932 225.588 10.8458 225.632 10.8951C225.675 10.9439 225.723 10.9883 225.775 11.029C225.827 11.0688 225.883 11.1031 225.942 11.1329C226.001 11.162 226.061 11.1862 226.125 11.2032C226.188 11.2213 226.252 11.2329 226.318 11.2382C226.383 11.2434 226.449 11.2431 226.514 11.2355C226.579 11.2286 226.644 11.2156 226.706 11.1966C226.769 11.1773 226.829 11.1518 226.888 11.1208C226.945 11.0908 227 11.0539 227.051 11.0129C227.102 10.972 227.149 10.9262 227.192 10.8758C227.235 10.8259 227.271 10.772 227.303 10.715C227.335 10.6572 227.362 10.5975 227.383 10.5353C227.403 10.4725 227.419 10.4085 227.427 10.3441C227.435 10.2787 227.438 10.2134 227.434 10.1476C227.43 10.0816 227.42 10.0176 227.404 9.95369C227.466 9.93198 227.525 9.90414 227.582 9.87017C227.638 9.83725 227.692 9.79819 227.741 9.75509C227.79 9.71119 227.835 9.66349 227.876 9.61094C227.915 9.55864 227.951 9.50334 227.98 9.44472C228.01 9.38585 228.033 9.32448 228.051 9.26162C228.069 9.19773 228.08 9.13315 228.086 9.06766C228.092 9.0024 228.091 8.93623 228.084 8.87042C228.077 8.8054 228.064 8.74155 228.044 8.67781C228.025 8.61487 228 8.55444 227.969 8.49676C227.938 8.43829 227.902 8.38336 227.861 8.33229C227.819 8.28147 227.773 8.23451 227.722 8.19164C227.673 8.14933 227.619 8.11192 227.561 8.07996C227.504 8.04775 227.444 8.02179 227.381 8.00079C227.318 7.98004 227.255 7.9656 227.189 7.95692C227.124 7.94903 227.058 7.94666 226.993 7.9509C226.927 7.9546 226.862 7.96491 226.798 7.98184C226.778 7.91755 226.752 7.85497 226.719 7.79515C226.686 7.73637 226.648 7.68009 226.605 7.62792C226.561 7.57599 226.514 7.52872 226.461 7.48659C226.408 7.44342 226.352 7.40674 226.291 7.37551C226.232 7.34324 226.169 7.31802 226.104 7.2988C226.039 7.28037 225.973 7.26746 225.905 7.26135C225.838 7.25499 225.771 7.2555 225.703 7.26232C225.636 7.26993 225.569 7.28337 225.505 7.30318ZM239.519 10.9817C240.726 16.2342 242.42 29.7156 233.306 44.8212L226.302 46.9711C210.304 39.5914 204.141 27.5009 202.184 22.4654C201.504 20.7266 200.937 18.9523 200.483 17.1415L222.169 10.4846C222.237 10.4675 222.301 10.4432 222.364 10.4118C222.426 10.3814 222.485 10.3451 222.54 10.3021C222.595 10.2591 222.644 10.2115 222.69 10.1591C222.735 10.1061 222.775 10.0494 222.809 9.98849C222.842 9.9276 222.87 9.86421 222.891 9.79774C222.912 9.73182 222.926 9.66388 222.933 9.59471C222.941 9.52609 222.941 9.45624 222.934 9.38779C222.927 9.3183 222.913 9.25022 222.893 9.18409C222.873 9.11717 222.846 9.0538 222.813 8.99262C222.78 8.93121 222.74 8.87438 222.695 8.82111C222.651 8.76838 222.602 8.72 222.546 8.67677C222.492 8.63329 222.434 8.5963 222.372 8.56477C222.31 8.53403 222.245 8.50874 222.178 8.49081C222.111 8.47232 222.043 8.46094 221.973 8.45691C221.904 8.45208 221.835 8.45492 221.766 8.46382C221.697 8.47376 221.63 8.49007 221.564 8.51276L197.903 15.7759C197.842 15.7982 197.782 15.826 197.725 15.86C197.669 15.8929 197.616 15.9319 197.567 15.9756C197.518 16.0187 197.473 16.0672 197.433 16.1187C197.393 16.1712 197.358 16.2263 197.33 16.2857C197.3 16.3446 197.276 16.4049 197.258 16.4688C197.241 16.5317 197.23 16.5962 197.224 16.6617C197.218 16.727 197.219 16.7929 197.226 16.8579C197.233 16.923 197.246 16.9879 197.265 17.05C197.284 17.1129 197.31 17.1731 197.341 17.2316C197.372 17.2893 197.408 17.3444 197.449 17.3955C197.491 17.4463 197.536 17.4933 197.586 17.5356C197.636 17.5777 197.69 17.6153 197.747 17.6473C197.804 17.6795 197.864 17.7065 197.927 17.7265C197.989 17.7475 198.053 17.7619 198.118 17.7706C198.183 17.7795 198.249 17.7819 198.314 17.7776C198.38 17.7739 198.445 17.7636 198.508 17.7477L198.92 19.0902C198.229 18.8211 197.514 18.6746 196.772 18.6502C196.031 18.6257 195.308 18.7241 194.6 18.9473C194.223 19.05 193.857 19.185 193.503 19.3529C193.15 19.5205 192.814 19.7178 192.495 19.9448C192.176 20.1718 191.88 20.4249 191.606 20.7041C191.332 20.9836 191.084 21.2845 190.864 21.6077C190.652 21.949 190.479 22.3098 190.346 22.6888C190.213 23.0679 190.124 23.4572 190.077 23.8568C190.03 24.2559 190.027 24.6552 190.068 25.0548C190.109 25.4546 190.193 25.8454 190.321 26.2265C190.957 28.3003 192.251 32.575 195.707 36.064C199.105 39.4958 204.636 42.0906 213.278 41.1615C216.475 43.8902 219.954 46.1929 223.714 48.0696C223.497 48.2664 223.31 48.491 223.155 48.7409C223.001 48.9913 222.884 49.2582 222.804 49.5415C222.726 49.8254 222.687 50.1145 222.69 50.4082C222.694 50.7028 222.737 50.9911 222.821 51.2729L223.124 52.2592C223.185 52.4499 223.262 52.6337 223.357 52.8094C223.452 52.9849 223.563 53.1505 223.69 53.3051C223.818 53.4594 223.958 53.6004 224.112 53.7275C224.267 53.8551 224.432 53.9658 224.607 54.062C224.783 54.1571 224.966 54.2351 225.157 54.295C225.347 54.3552 225.542 54.3965 225.741 54.4191C225.94 54.4418 226.139 54.4453 226.338 54.4295C226.537 54.4145 226.733 54.3796 226.926 54.3257C226.982 54.6389 227.037 55.0106 227.081 55.4166C227.224 56.5304 227.122 57.6201 226.773 58.6863L224.257 59.4583C224.126 59.4995 224.008 59.5636 223.903 59.6518C223.798 59.7397 223.714 59.845 223.65 59.9665L222.283 62.5429C222.219 62.6637 222.18 62.7914 222.167 62.9271C222.154 63.0628 222.167 63.1957 222.207 63.3256L223.597 67.8533L222.431 70.0522C222.365 70.1719 222.325 70.3001 222.312 70.4358C222.298 70.5718 222.311 70.7055 222.35 70.8364L223.259 73.7953C223.279 73.8607 223.305 73.9233 223.337 73.9831C223.369 74.0429 223.407 74.0984 223.451 74.1513C223.494 74.2035 223.542 74.2513 223.595 74.2937C223.648 74.3366 223.704 74.3744 223.764 74.4056C223.824 74.4376 223.887 74.4628 223.952 74.4821C224.017 74.5013 224.084 74.515 224.151 74.5203C224.219 74.5267 224.287 74.5267 224.354 74.5191C224.422 74.5123 224.488 74.4988 224.553 74.4782L250.185 66.6101C250.25 66.5903 250.312 66.5641 250.371 66.532C250.431 66.4989 250.487 66.4617 250.539 66.4179C250.591 66.3749 250.638 66.3272 250.68 66.275C250.723 66.2217 250.76 66.1659 250.792 66.1066C250.823 66.0464 250.849 65.9843 250.868 65.9194C250.887 65.855 250.9 65.7883 250.906 65.721C250.912 65.6537 250.913 65.5864 250.906 65.5196C250.899 65.4522 250.885 65.3865 250.865 65.3212L249.956 62.3606C249.874 62.0905 249.707 61.888 249.457 61.7545L247.259 60.5891L245.869 56.0638C245.83 55.9339 245.766 55.8167 245.679 55.7118C245.591 55.6069 245.488 55.5227 245.367 55.4586L242.79 54.0929C242.669 54.0272 242.539 53.9877 242.402 53.975C242.265 53.9612 242.13 53.9748 241.998 54.0143L239.489 54.7847C238.601 54.0973 237.904 53.2529 237.397 52.2516C237.203 51.8937 237.043 51.5522 236.919 51.26C237.108 51.1958 237.29 51.1139 237.462 51.0155C237.636 50.9161 237.799 50.8016 237.949 50.6707C238.101 50.5405 238.239 50.3972 238.362 50.2406C238.486 50.0833 238.593 49.9169 238.685 49.7388C238.776 49.5617 238.85 49.3768 238.907 49.1852C238.963 48.9936 239 48.7983 239.019 48.5998C239.037 48.4006 239.036 48.2021 239.017 48.0032C238.997 47.8044 238.959 47.6095 238.902 47.4178L238.599 46.4315C238.511 46.1499 238.385 45.887 238.222 45.6414C238.059 45.396 237.865 45.1783 237.64 44.9884C237.415 44.7977 237.169 44.6423 236.899 44.5228C236.63 44.4022 236.35 44.3225 236.058 44.2823C238.116 40.6185 239.703 36.7612 240.817 32.7097C248.497 28.633 251.615 23.3791 252.507 18.6305C253.412 13.8011 252.081 9.53785 251.444 7.46402C251.336 7.07707 251.187 6.70682 250.998 6.35272C250.808 5.99942 250.582 5.6703 250.321 5.36615C250.058 5.06145 249.766 4.78926 249.445 4.5496C249.123 4.30937 248.779 4.10713 248.412 3.94255C248.048 3.79887 247.674 3.68869 247.29 3.61123C246.907 3.53377 246.519 3.4905 246.128 3.48166C245.737 3.47258 245.347 3.49805 244.961 3.55735C244.574 3.61689 244.196 3.71039 243.825 3.83728C243.115 4.04991 242.46 4.37379 241.861 4.80971C241.262 5.24563 240.751 5.76936 240.331 6.3788L239.919 5.03635C239.98 5.01409 240.039 4.98625 240.096 4.95228C240.152 4.91935 240.205 4.88029 240.254 4.83664C240.303 4.79274 240.348 4.74504 240.388 4.69274C240.428 4.64123 240.463 4.58513 240.492 4.52651C240.522 4.46765 240.545 4.40652 240.563 4.34342C240.58 4.28056 240.592 4.21599 240.598 4.15049C240.603 4.08524 240.602 4.01931 240.595 3.9543C240.588 3.88848 240.574 3.82463 240.555 3.76169C240.536 3.69955 240.511 3.63832 240.48 3.58064C240.45 3.52296 240.413 3.46779 240.372 3.41672C240.331 3.3659 240.285 3.31894 240.235 3.27662C240.185 3.23376 240.132 3.1969 240.074 3.16494C240.017 3.13194 239.956 3.10598 239.894 3.08498C239.832 3.06478 239.768 3.04954 239.703 3.04166C239.638 3.03273 239.572 3.03035 239.507 3.0346C239.441 3.03829 239.376 3.04861 239.313 3.0645L229.452 6.09139C229.39 6.1139 229.331 6.14174 229.275 6.17546C229.218 6.20863 229.166 6.24744 229.116 6.29134C229.067 6.3342 229.023 6.3827 228.982 6.43445C228.943 6.48675 228.908 6.54181 228.878 6.60147C228.849 6.66009 228.825 6.72067 228.808 6.78432C228.79 6.84742 228.778 6.91199 228.773 6.97725C228.767 7.04274 228.768 7.10867 228.775 7.17369C228.783 7.23846 228.796 7.30335 228.815 7.3655C228.834 7.42844 228.86 7.48862 228.89 7.54734C228.921 7.60502 228.957 7.66019 228.998 7.71101C229.039 7.76208 229.085 7.80905 229.136 7.85111C229.185 7.89342 229.239 7.93084 229.296 7.96304C229.354 7.99501 229.414 8.02201 229.476 8.04221C229.539 8.06296 229.603 8.0774 229.667 8.08633C229.733 8.09501 229.798 8.09763 229.864 8.09314C229.929 8.08969 229.994 8.07938 230.058 8.06324L237.947 5.64163C238.586 7.38784 239.109 9.16767 239.519 10.9817Z" fill="#7E349C"/>
</g>
<mask id="mask1_167_457" style="mask-type:luminance" maskUnits="userSpaceOnUse" x="287" y="148" width="30" height="35">
<path d="M293.506 148L316.271 153.116L309.765 182.067L287 176.952L293.506 148Z" fill="white"/>
</mask>
<g mask="url(#mask1_167_457)">
<path d="M314.346 155.771C313.725 157.33 312.179 160.627 309.91 161.615C310.866 160.071 311.754 157.922 312.548 154.896C312.56 154.899 312.569 154.904 312.581 154.906L314.062 155.239C314.22 155.274 314.297 155.382 314.329 155.442C314.36 155.502 314.405 155.625 314.346 155.771ZM303.519 164.493C302.699 164.637 302.05 165.259 301.866 166.077L301.503 167.695C301.31 168.553 301.852 169.409 302.712 169.602L303.165 169.704C303.538 169.787 303.791 170.122 303.786 170.49L297.107 168.989C297.26 168.654 297.632 168.46 298.005 168.544L298.457 168.646C299.317 168.839 300.173 168.298 300.366 167.439L300.742 165.77C300.919 164.978 300.626 164.152 299.994 163.666C297.582 161.81 295.398 159.231 297.321 150.157L311.65 153.377C309.256 163.489 305.947 164.069 303.519 164.493ZM304.569 177.445L293.424 174.94L294.602 169.694L305.748 172.199L304.569 177.445ZM305.018 179.699L292.054 176.786L292.243 175.943L305.207 178.856L305.018 179.699ZM294.082 151.218C294.092 151.06 294.185 150.969 294.239 150.928C294.294 150.887 294.41 150.823 294.567 150.858L295.861 151.149C295.312 154.151 295.23 156.441 295.463 158.239C293.965 156.335 293.98 152.847 294.082 151.218ZM315.425 154.866C315.201 154.441 314.803 154.137 314.333 154.032L312.852 153.699C312.85 153.698 312.848 153.698 312.846 153.698C312.896 153.483 312.948 153.269 312.998 153.046C313.073 152.712 312.863 152.381 312.529 152.306L296.983 148.813C296.649 148.738 296.318 148.948 296.243 149.281C296.193 149.504 296.148 149.719 296.102 149.935L294.838 149.651C294.369 149.545 293.879 149.65 293.495 149.938C293.112 150.224 292.875 150.663 292.845 151.14C292.675 153.846 292.86 158.55 295.898 160.217C296.603 162.378 297.889 163.608 299.238 164.645C299.49 164.839 299.605 165.174 299.533 165.498L299.157 167.168C299.115 167.357 298.918 167.481 298.729 167.438L298.276 167.337C297.236 167.103 296.2 167.715 295.888 168.715L294.269 168.351C293.935 168.276 293.604 168.485 293.529 168.819L292.214 174.668L291.91 174.6C291.576 174.525 291.244 174.734 291.169 175.068L290.709 177.118C290.634 177.452 290.844 177.783 291.178 177.858L305.351 181.043C305.685 181.118 306.016 180.908 306.091 180.575L306.552 178.525C306.627 178.191 306.417 177.86 306.083 177.785L305.779 177.716L307.093 171.867C307.168 171.533 306.958 171.202 306.624 171.127L305.005 170.763C305.151 169.727 304.477 168.73 303.436 168.496L302.984 168.394C302.791 168.351 302.669 168.159 302.712 167.966L303.075 166.349C303.149 166.019 303.408 165.77 303.733 165.713C305.494 165.405 307.214 164.893 308.791 163.13C312.287 162.972 314.487 158.764 315.498 156.23C315.675 155.786 315.648 155.289 315.425 154.866Z" fill="#7E349C"/>
</g>
<mask id="mask2_167_457" style="mask-type:luminance" maskUnits="userSpaceOnUse" x="307" y="159" width="23" height="27">
<path d="M307 162.141L325.146 159L329.141 182.077L310.994 185.218L307 162.141Z" fill="white"/>
</mask>
<g mask="url(#mask2_167_457)">
<path d="M324.544 161.518C324.561 162.842 324.429 165.713 323.072 167.118C323.303 165.704 323.302 163.868 322.968 161.422C322.977 161.42 322.986 161.421 322.995 161.42L324.176 161.215C324.301 161.193 324.39 161.248 324.432 161.283C324.473 161.317 324.542 161.393 324.544 161.518ZM319.28 171.146C318.725 171.499 318.44 172.148 318.553 172.801L318.776 174.09C318.894 174.774 319.548 175.234 320.234 175.115L320.594 175.053C320.892 175.002 321.177 175.169 321.285 175.439L315.961 176.36C315.972 176.07 316.184 175.816 316.482 175.765L316.842 175.703C317.528 175.584 317.989 174.931 317.87 174.246L317.64 172.916C317.531 172.284 317.068 171.771 316.46 171.607C314.141 170.982 311.77 169.76 310.432 162.562L321.854 160.585C323.161 168.682 320.923 170.104 319.28 171.146ZM323.956 180.274L315.071 181.812L314.347 177.631L323.232 176.093L323.956 180.274ZM324.963 181.783L314.629 183.572L314.513 182.9L324.847 181.111L324.963 181.783ZM308.391 164.314C308.35 164.196 308.391 164.101 308.418 164.055C308.446 164.008 308.511 163.927 308.636 163.905L309.668 163.726C310.174 166.081 310.805 167.776 311.517 169.017C309.85 168.08 308.808 165.532 308.391 164.314ZM325.057 160.531C324.765 160.29 324.383 160.188 324.009 160.253L322.828 160.457C322.826 160.457 322.825 160.458 322.823 160.458C322.795 160.286 322.769 160.115 322.738 159.937C322.692 159.671 322.438 159.493 322.172 159.539L309.781 161.684C309.515 161.73 309.337 161.983 309.383 162.248C309.413 162.426 309.445 162.597 309.477 162.768L308.469 162.943C308.095 163.007 307.77 163.231 307.576 163.557C307.383 163.882 307.343 164.273 307.465 164.63C308.158 166.655 309.713 170.03 312.431 170.328C313.598 171.691 314.907 172.2 316.204 172.55C316.446 172.615 316.632 172.824 316.676 173.082L316.907 174.413C316.933 174.564 316.827 174.714 316.676 174.74L316.315 174.803C315.486 174.946 314.915 175.705 314.99 176.528L313.699 176.752C313.433 176.798 313.254 177.051 313.3 177.317L314.107 181.979L313.864 182.021C313.598 182.067 313.42 182.32 313.466 182.586L313.749 184.22C313.795 184.486 314.048 184.664 314.314 184.618L325.611 182.662C325.878 182.616 326.056 182.363 326.01 182.098L325.727 180.464C325.681 180.197 325.428 180.02 325.162 180.066L324.919 180.108L324.112 175.445C324.066 175.179 323.813 175.001 323.547 175.047L322.257 175.27C322.05 174.47 321.258 173.947 320.428 174.091L320.067 174.153C319.914 174.18 319.766 174.076 319.74 173.923L319.517 172.634C319.471 172.371 319.584 172.111 319.805 171.971C320.996 171.215 322.095 170.322 322.714 168.561C325.215 167.39 325.55 163.658 325.522 161.504C325.517 161.127 325.347 160.772 325.057 160.531Z" fill="#7E349C"/>
</g>
<mask id="mask3_167_457" style="mask-type:luminance" maskUnits="userSpaceOnUse" x="276" y="157" width="23" height="27">
<path d="M276 160.141L294.146 157L298.141 180.077L279.994 183.218L276 160.141Z" fill="white"/>
</mask>
<g mask="url(#mask3_167_457)">
<path d="M294.761 166.332C294.179 167.522 292.766 170.024 290.921 170.666C291.765 169.508 292.592 167.869 293.399 165.536C293.407 165.539 293.415 165.543 293.423 165.546L294.569 165.896C294.691 165.933 294.746 166.022 294.767 166.072C294.788 166.121 294.816 166.22 294.761 166.332ZM285.719 172.55C285.065 172.614 284.517 173.064 284.324 173.698L283.941 174.949C283.738 175.613 284.114 176.319 284.779 176.522L285.129 176.629C285.418 176.717 285.597 176.996 285.572 177.285L280.404 175.705C280.545 175.451 280.849 175.32 281.138 175.409L281.488 175.516C282.153 175.719 282.859 175.344 283.062 174.68L283.457 173.388C283.645 172.776 283.463 172.108 282.994 171.688C281.207 170.084 279.643 167.923 281.697 160.897L292.782 164.286C290.295 172.102 287.656 172.361 285.719 172.55ZM285.773 182.805L277.15 180.169L278.391 176.11L287.013 178.747L285.773 182.805ZM285.991 184.606L275.962 181.54L276.161 180.887L286.19 183.954L285.991 184.606ZM279.085 161.539C279.102 161.415 279.181 161.348 279.226 161.319C279.272 161.29 279.366 161.247 279.488 161.284L280.489 161.59C279.878 163.92 279.677 165.718 279.752 167.147C278.688 165.558 278.907 162.814 279.085 161.539ZM295.664 165.684C295.513 165.336 295.218 165.073 294.855 164.962L293.709 164.612C293.707 164.611 293.706 164.611 293.704 164.61C293.757 164.444 293.81 164.279 293.863 164.106C293.942 163.849 293.796 163.575 293.538 163.497L281.512 159.819C281.254 159.74 280.981 159.885 280.902 160.143C280.849 160.316 280.801 160.482 280.752 160.649L279.774 160.35C279.411 160.239 279.019 160.292 278.699 160.496C278.381 160.699 278.168 161.029 278.116 161.403C277.821 163.523 277.685 167.236 279.977 168.729C280.403 170.472 281.342 171.517 282.341 172.414C282.528 172.581 282.599 172.852 282.522 173.102L282.127 174.394C282.082 174.541 281.92 174.626 281.773 174.581L281.423 174.474C280.618 174.228 279.767 174.648 279.462 175.416L278.209 175.033C277.951 174.954 277.677 175.099 277.598 175.357L276.215 179.883L275.979 179.81C275.721 179.731 275.447 179.876 275.368 180.135L274.884 181.72C274.805 181.979 274.95 182.252 275.208 182.331L286.173 185.684C286.431 185.763 286.704 185.617 286.783 185.359L287.268 183.774C287.347 183.515 287.202 183.242 286.943 183.163L286.708 183.091L288.092 178.566C288.171 178.308 288.025 178.035 287.767 177.956L286.514 177.573C286.691 176.766 286.22 175.941 285.415 175.695L285.065 175.588C284.916 175.542 284.831 175.384 284.877 175.235L285.259 173.984C285.337 173.729 285.556 173.548 285.815 173.522C287.219 173.385 288.603 173.085 289.95 171.792C292.711 171.876 294.693 168.696 295.64 166.762C295.806 166.423 295.815 166.03 295.664 165.684Z" fill="#7E349C"/>
</g>
<path d="M94 168L82 179V191.5L166.5 204.5L274.5 175.5V170.5L260 160.5L240.5 166.5H233.5L224.5 153L219.5 145.5V137.5C219.5 137.5 232 136.5 233.5 133.5C235 130.5 237 129 237 129C237 129 243 132 242 130.5C241 129 242 121.5 242 121.5L251 114.5H265L273 111.5L274.5 107.5L266.5 110H257.5L273 90.0004V73.0004L266.5 62.0004L255 55.0004L224.5 67.5004L216.5 65.0004V73.0004L231 76.0004C231 76.0004 247 68.5004 251 67.5004C255 66.5004 258.5 75.0004 258.5 75.0004L246.5 90.0004H240.5C240.5 90.0004 227.5 80.5004 221.5 79.5004C215.5 78.5004 210.5 80.5004 208 80.5004H187C184.5 80.5004 177.5 83.5004 177.5 83.5004L173 90.0004L150 123L152.5 130.5L160 133.5L152.5 145.5L94 168Z" fill="#DB2770"/>
<mask id="mask4_167_457" style="mask-type:luminance" maskUnits="userSpaceOnUse" x="50" y="151" width="34" height="34">
<path d="M50.5225 156.676L78.0727 151.523L83.2261 179.075L55.6759 184.228L50.5225 156.676Z" fill="white"/>
</mask>
<g mask="url(#mask4_167_457)">
<path d="M66.5689 178.499L71.0056 177.669L71.1717 178.557L66.7349 179.387L66.5689 178.499ZM65.9562 177.695C65.9271 177.701 65.899 177.709 65.8718 177.72C65.8445 177.731 65.8185 177.745 65.794 177.761C65.7692 177.777 65.7464 177.796 65.7253 177.817C65.7043 177.837 65.6855 177.86 65.6689 177.884C65.6523 177.909 65.6382 177.934 65.6265 177.961C65.6149 177.988 65.606 178.016 65.5999 178.045C65.5938 178.074 65.5908 178.104 65.5903 178.133C65.5899 178.162 65.5924 178.192 65.5978 178.221L65.9299 179.996C65.935 180.025 65.9432 180.053 65.954 180.081C65.9651 180.109 65.9785 180.135 65.9943 180.16C66.0104 180.185 66.0289 180.208 66.0492 180.229C66.0699 180.25 66.0924 180.27 66.1168 180.286C66.141 180.303 66.1671 180.318 66.1942 180.329C66.2212 180.341 66.2493 180.35 66.2783 180.356C66.3073 180.362 66.3369 180.366 66.3663 180.366C66.3961 180.366 66.4253 180.364 66.4544 180.358L71.7837 179.362C71.8127 179.356 71.8413 179.348 71.8685 179.337C71.8962 179.326 71.9222 179.312 71.947 179.296C71.9718 179.28 71.9947 179.261 72.0157 179.24C72.0367 179.22 72.0555 179.197 72.072 179.172C72.089 179.148 72.1027 179.122 72.1143 179.095C72.1259 179.067 72.1344 179.039 72.1405 179.01C72.1466 178.981 72.1496 178.952 72.1497 178.922C72.1497 178.893 72.1468 178.863 72.1414 178.834L71.8093 177.059C71.8039 177.03 71.7956 177.002 71.7846 176.974C71.7735 176.947 71.7601 176.921 71.744 176.896C71.7279 176.872 71.7095 176.849 71.6888 176.828C71.6681 176.806 71.6457 176.788 71.6214 176.771C71.5975 176.754 71.5718 176.74 71.5447 176.728C71.5176 176.717 71.4896 176.708 71.4606 176.701C71.4319 176.695 71.4027 176.692 71.3733 176.691C71.3439 176.691 71.3146 176.693 71.2855 176.698L65.9562 177.695ZM64.6436 177.022L72.2664 175.596L73.0125 176.107L73.3931 178.142C73.4161 178.265 73.4788 178.362 73.5813 178.434L74.4814 179.047L74.6134 179.753L63.9577 181.746L63.8256 181.04L64.4435 180.143C64.5128 180.039 64.5362 179.926 64.5132 179.803L64.1326 177.768L64.6436 177.022ZM66.6005 173.898L69.3134 173.39C69.3746 173.603 69.4467 173.811 69.5291 174.016C69.6752 174.396 69.8678 174.75 70.1066 175.08L66.4713 175.76C66.5748 175.366 66.6261 174.966 66.625 174.559C66.6281 174.309 66.6155 174.082 66.6001 173.898L66.6005 173.898ZM65.3235 171.841L69.7602 171.011C69.7895 171.005 69.819 171.002 69.8486 171.001C69.8786 171.001 69.9084 171.003 69.9377 171.009C69.967 171.015 69.9954 171.024 70.0232 171.035C70.0506 171.047 70.077 171.061 70.1016 171.077C70.1263 171.094 70.1492 171.113 70.1699 171.135C70.1909 171.156 70.2094 171.179 70.2256 171.204C70.2415 171.23 70.255 171.256 70.2658 171.284C70.2766 171.312 70.2846 171.341 70.2893 171.37L70.3724 171.815C70.3786 171.844 70.3816 171.874 70.3816 171.903C70.3817 171.933 70.3786 171.963 70.373 171.992C70.367 172.022 70.3582 172.05 70.3462 172.077C70.3346 172.105 70.3202 172.131 70.3033 172.156C70.2863 172.18 70.2668 172.203 70.2454 172.223C70.2237 172.244 70.2004 172.263 70.1751 172.278C70.1499 172.294 70.123 172.307 70.0949 172.318C70.0672 172.329 70.0385 172.336 70.0089 172.341L65.5722 173.171C65.543 173.177 65.5132 173.18 65.4835 173.18C65.4535 173.181 65.424 173.178 65.3947 173.173C65.3651 173.167 65.3367 173.158 65.3093 173.147C65.2815 173.135 65.2555 173.121 65.2305 173.104C65.2058 173.088 65.1833 173.068 65.1622 173.047C65.1415 173.026 65.123 173.002 65.1068 172.977C65.0906 172.952 65.0771 172.926 65.0663 172.898C65.0555 172.87 65.0479 172.841 65.0427 172.811L64.9597 172.367C64.9538 172.338 64.9505 172.308 64.9505 172.278C64.9505 172.249 64.9534 172.219 64.9595 172.189C64.9655 172.16 64.9743 172.132 64.9859 172.104C64.9978 172.077 65.0119 172.051 65.0289 172.026C65.0461 172.002 65.0653 171.979 65.087 171.958C65.1084 171.938 65.1318 171.92 65.1573 171.903C65.1826 171.887 65.2091 171.874 65.2372 171.864C65.265 171.853 65.294 171.846 65.3235 171.841ZM75.7176 153.812C75.9501 153.759 76.1847 153.747 76.4215 153.776C76.6583 153.806 76.8832 153.874 77.0958 153.983C77.4493 154.183 77.6998 154.508 77.8009 155.049C77.9755 155.982 78.2928 157.716 77.7372 159.526C77.2337 161.168 76.0433 162.889 73.2465 164.179C73.6258 163.05 73.9052 161.898 74.0846 160.721C74.2641 159.545 74.3409 158.361 74.3155 157.171C74.4899 157.258 74.6735 157.314 74.8664 157.341C75.0593 157.368 75.2512 157.363 75.4427 157.327C75.5008 157.316 75.5579 157.302 75.6146 157.286C75.6712 157.269 75.727 157.25 75.7819 157.227C75.8365 157.205 75.8901 157.18 75.9426 157.153C75.995 157.126 76.0458 157.096 76.0951 157.064C76.1447 157.031 76.1925 156.996 76.2382 156.959C76.2845 156.922 76.3284 156.883 76.3707 156.842C76.4128 156.8 76.4529 156.757 76.4909 156.712C76.5288 156.667 76.5646 156.62 76.5978 156.571C76.6314 156.522 76.6621 156.472 76.6907 156.42C76.7188 156.368 76.7449 156.315 76.7682 156.261C76.7914 156.206 76.8119 156.151 76.8296 156.095C76.8473 156.039 76.8626 155.982 76.8748 155.924C76.887 155.866 76.8962 155.808 76.903 155.749C76.9094 155.69 76.913 155.632 76.9138 155.572C76.9146 155.513 76.9125 155.454 76.9074 155.395C76.9023 155.337 76.8944 155.278 76.8839 155.22C76.8785 155.191 76.8702 155.162 76.859 155.135C76.8479 155.107 76.8345 155.081 76.8179 155.056C76.8018 155.031 76.7834 155.008 76.7627 154.987C76.742 154.966 76.7192 154.947 76.6948 154.93C76.6702 154.913 76.6441 154.899 76.617 154.887C76.5896 154.876 76.5616 154.867 76.5322 154.86C76.5032 154.854 76.474 154.851 76.4443 154.851C76.4145 154.85 76.3849 154.853 76.3558 154.858C76.3264 154.864 76.2983 154.872 76.2706 154.883C76.243 154.894 76.2169 154.908 76.1917 154.924C76.167 154.941 76.1441 154.959 76.1227 154.98C76.1013 155 76.0825 155.023 76.0656 155.047C76.049 155.072 76.0345 155.098 76.0229 155.125C76.0113 155.153 76.0025 155.181 75.996 155.21C75.99 155.239 75.9869 155.268 75.9866 155.298C75.9862 155.328 75.9887 155.357 75.9942 155.386C76.0058 155.444 76.0113 155.504 76.0112 155.563C76.0111 155.622 76.005 155.681 75.9932 155.739C75.9815 155.797 75.9638 155.853 75.941 155.908C75.9178 155.963 75.8896 156.014 75.8561 156.064C75.8229 156.112 75.785 156.158 75.7426 156.199C75.7002 156.241 75.654 156.277 75.6043 156.31C75.5543 156.342 75.5018 156.369 75.4469 156.391C75.3916 156.413 75.3348 156.429 75.2766 156.44C74.7801 156.533 74.3151 156.212 74.2133 155.507C74.1118 154.801 74.7174 153.999 75.7176 153.812ZM60.1946 156.716C60.1652 156.721 60.137 156.729 60.1094 156.741C60.0818 156.752 60.0557 156.765 60.0309 156.781C60.0057 156.797 59.9827 156.816 59.9614 156.837C59.9404 156.858 59.9212 156.88 59.9047 156.905C59.8877 156.929 59.8736 156.955 59.862 156.982C59.85 157.01 59.8412 157.038 59.8352 157.067C59.8291 157.096 59.826 157.125 59.8256 157.155C59.8252 157.185 59.8277 157.214 59.8332 157.243C59.8387 157.272 59.847 157.301 59.858 157.328C59.8691 157.356 59.8826 157.382 59.8988 157.407C59.9149 157.432 59.9333 157.455 59.9544 157.476C59.975 157.497 59.9975 157.516 60.0222 157.533C60.0465 157.55 60.0725 157.564 60.0997 157.576C60.1271 157.588 60.1551 157.596 60.1844 157.602C60.2134 157.609 60.2427 157.612 60.2724 157.612C60.3021 157.612 60.3314 157.61 60.3608 157.604L60.8049 157.521C60.8344 157.516 60.8625 157.508 60.8902 157.497C60.9178 157.486 60.9439 157.472 60.9687 157.456C60.9935 157.44 61.0168 157.421 61.0378 157.4C61.0591 157.379 61.0783 157.357 61.0949 157.333C61.1118 157.308 61.1259 157.282 61.1376 157.255C61.1491 157.227 61.1584 157.199 61.1645 157.17C61.1705 157.141 61.1736 157.112 61.1739 157.082C61.1744 157.053 61.1718 157.023 61.1664 156.994C61.1609 156.965 61.1526 156.936 61.1415 156.909C61.1304 156.881 61.117 156.855 61.1008 156.83C61.0846 156.805 61.0659 156.782 61.0452 156.761C61.0245 156.74 61.002 156.721 60.9774 156.704C60.953 156.687 60.927 156.673 60.8996 156.661C60.8725 156.649 60.8441 156.641 60.8151 156.635C60.7861 156.628 60.7569 156.625 60.7272 156.625C60.6974 156.625 60.6681 156.627 60.6387 156.633L60.1946 156.716ZM57.5298 157.214C57.5008 157.22 57.4722 157.228 57.445 157.239C57.4174 157.251 57.3914 157.265 57.3666 157.281C57.3418 157.297 57.319 157.316 57.2979 157.337C57.277 157.358 57.2582 157.38 57.2416 157.405C57.2251 157.429 57.211 157.455 57.1994 157.483C57.1881 157.51 57.1793 157.538 57.1732 157.567C57.1675 157.596 57.1645 157.626 57.164 157.655C57.164 157.685 57.1665 157.714 57.1724 157.743L57.4257 159.098C57.4257 159.098 57.7561 160.681 58.9224 162.738C59.6097 163.945 60.4267 165.057 61.3729 166.075C61.3932 166.096 61.4154 166.115 61.4393 166.132C61.4632 166.148 61.4889 166.163 61.5156 166.175C61.5424 166.187 61.5701 166.196 61.5987 166.202C61.6274 166.209 61.6563 166.212 61.6854 166.213C61.7149 166.214 61.7439 166.212 61.7731 166.207C61.8019 166.202 61.8301 166.194 61.8575 166.184C61.8849 166.174 61.9111 166.161 61.9361 166.146C61.9611 166.13 61.9841 166.113 62.0056 166.093C62.0271 166.073 62.0465 166.051 62.0635 166.027C62.0806 166.003 62.0956 165.978 62.1077 165.951C62.1202 165.925 62.1298 165.897 62.1368 165.869C62.1437 165.84 62.1476 165.811 62.1492 165.782C62.1504 165.753 62.1486 165.723 62.1443 165.695C62.14 165.666 62.1329 165.637 62.1229 165.61C62.1132 165.582 62.1005 165.556 62.0855 165.531C62.0707 165.505 62.0533 165.482 62.0336 165.46C61.1353 164.495 60.3601 163.439 59.7082 162.292C58.602 160.342 58.3099 158.911 58.3099 158.911L58.1431 158.02L58.5837 157.937C58.6144 157.933 58.644 157.927 58.6733 157.916C58.7022 157.906 58.7299 157.893 58.7566 157.878C58.783 157.862 58.8075 157.844 58.8304 157.823C58.8532 157.802 58.8735 157.78 58.8915 157.755C58.9098 157.73 58.925 157.704 58.9379 157.676C58.9505 157.648 58.9602 157.618 58.9669 157.588C58.9739 157.559 58.9775 157.528 58.9781 157.497C58.9787 157.467 58.9759 157.436 58.9703 157.406C58.9646 157.376 58.9561 157.346 58.9445 157.318C58.9329 157.289 58.9185 157.262 58.9012 157.237C58.8841 157.211 58.8645 157.188 58.8426 157.166C58.8204 157.145 58.7968 157.125 58.7706 157.109C58.7449 157.092 58.7177 157.078 58.689 157.067C58.6602 157.056 58.6308 157.048 58.6005 157.043C58.5699 157.038 58.5394 157.036 58.5088 157.037C58.4779 157.038 58.4478 157.042 58.4177 157.05L57.5298 157.214ZM54.913 160.249C54.8546 160.26 54.7958 160.265 54.7363 160.265C54.6769 160.264 54.6182 160.258 54.5598 160.246C54.5019 160.234 54.4455 160.216 54.3906 160.193C54.3361 160.17 54.2844 160.141 54.2351 160.108C54.1861 160.074 54.141 160.036 54.0997 159.994C54.0579 159.951 54.0214 159.905 53.989 159.855C53.9567 159.805 53.9298 159.753 53.908 159.697C53.8861 159.642 53.8699 159.585 53.8594 159.527C53.853 159.498 53.8438 159.471 53.8319 159.445C53.8199 159.419 53.806 159.394 53.7893 159.37C53.7727 159.347 53.7541 159.325 53.7333 159.305C53.7125 159.285 53.6902 159.268 53.6661 159.252C53.642 159.236 53.6165 159.223 53.59 159.212C53.5634 159.201 53.5359 159.193 53.5078 159.187C53.4793 159.182 53.4508 159.179 53.4222 159.178C53.3933 159.179 53.3647 159.181 53.3364 159.186C53.3081 159.192 53.2806 159.2 53.2539 159.21C53.2269 159.22 53.2016 159.234 53.1773 159.249C53.1531 159.264 53.1304 159.282 53.1093 159.302C53.0884 159.321 53.0694 159.343 53.0526 159.366C53.0359 159.39 53.0215 159.414 53.0093 159.441C52.9972 159.467 52.9877 159.494 52.9807 159.522C52.974 159.55 52.9697 159.578 52.968 159.607C52.9666 159.635 52.9679 159.664 52.9718 159.693C52.9827 159.751 52.9967 159.808 53.0133 159.865C53.0299 159.922 53.0492 159.977 53.0713 160.032C53.0934 160.087 53.1183 160.14 53.1456 160.193C53.1732 160.245 53.2028 160.296 53.2354 160.345C53.2677 160.395 53.3022 160.443 53.3395 160.489C53.3762 160.535 53.4154 160.579 53.4567 160.622C53.498 160.664 53.5415 160.704 53.5868 160.742C53.6318 160.78 53.679 160.815 53.7279 160.849C53.7765 160.882 53.8269 160.913 53.8786 160.942C53.9303 160.97 53.9835 160.996 54.0376 161.019C54.092 161.043 54.1475 161.063 54.2036 161.081C54.26 161.099 54.3171 161.114 54.375 161.126C54.4326 161.139 54.4909 161.148 54.5496 161.155C54.6085 161.161 54.6674 161.165 54.7266 161.166C54.7854 161.166 54.8445 161.165 54.9033 161.16C54.9622 161.155 55.0209 161.147 55.079 161.136C55.2703 161.101 55.4511 161.035 55.6213 160.941C55.7915 160.846 55.9423 160.727 56.0735 160.583C56.4788 161.702 56.9774 162.777 57.5696 163.809C58.1613 164.841 58.838 165.815 59.5991 166.729C56.527 166.537 54.7932 165.365 53.7327 164.017C52.5608 162.529 52.2273 160.798 52.0527 159.865C52.0263 159.757 52.0121 159.648 52.0107 159.537C52.0092 159.426 52.0203 159.316 52.0442 159.208C52.0681 159.099 52.1043 158.995 52.1524 158.895C52.2005 158.795 52.2596 158.702 52.3292 158.615C52.4883 158.437 52.6727 158.292 52.883 158.179C53.0928 158.066 53.3159 157.993 53.5519 157.958C54.5517 157.771 55.4059 158.3 55.5666 158.995C55.727 159.689 55.4095 160.156 54.913 160.249ZM67.4092 153.532C67.3802 153.538 67.3521 153.546 67.3248 153.557C67.2975 153.569 67.2715 153.582 67.2471 153.598C67.2223 153.615 67.1997 153.633 67.1787 153.654C67.1577 153.674 67.1389 153.697 67.1223 153.721C67.1056 153.745 67.0916 153.772 67.0799 153.799C67.0683 153.826 67.0594 153.854 67.0532 153.882C67.0472 153.911 67.0441 153.94 67.0436 153.97C67.0432 153.999 67.0453 154.029 67.0508 154.058C67.0207 154.062 66.9913 154.069 66.9624 154.079C66.9335 154.09 66.9062 154.103 66.8802 154.118C66.8538 154.134 66.8297 154.152 66.8073 154.173C66.7848 154.194 66.7649 154.217 66.747 154.242C66.7293 154.266 66.7142 154.293 66.7015 154.32C66.6893 154.348 66.6795 154.377 66.6732 154.407C66.6665 154.437 66.6628 154.467 66.6622 154.498C66.6616 154.528 66.6643 154.558 66.6699 154.588C66.6755 154.618 66.684 154.648 66.6956 154.676C66.7072 154.704 66.7214 154.731 66.7385 154.756C66.7551 154.782 66.7747 154.805 66.7962 154.827C66.818 154.848 66.8416 154.867 66.867 154.884C66.8928 154.9 66.9195 154.914 66.948 154.926C66.9765 154.937 67.0055 154.945 67.0358 154.95C67.0657 154.956 67.0959 154.958 67.1266 154.957C67.1572 154.956 67.1873 154.953 67.2168 154.946C67.2236 154.974 67.2327 155.001 67.2447 155.027C67.2563 155.053 67.2706 155.078 67.2873 155.102C67.3035 155.125 67.3224 155.147 67.3429 155.167C67.3637 155.187 67.3863 155.205 67.4105 155.22C67.4345 155.236 67.4597 155.25 67.4866 155.26C67.5131 155.271 67.5407 155.279 67.5688 155.285C67.5969 155.29 67.6257 155.293 67.6543 155.293C67.6829 155.294 67.7118 155.291 67.7398 155.286C67.7681 155.281 67.7956 155.272 67.8226 155.262C67.8493 155.252 67.875 155.238 67.8992 155.223C67.9235 155.208 67.9462 155.19 67.967 155.17C67.9882 155.151 68.0068 155.129 68.0236 155.106C68.0403 155.082 68.055 155.058 68.0673 155.032C68.079 155.005 68.0888 154.978 68.0955 154.951C68.1025 154.922 68.1069 154.894 68.1082 154.865C68.1098 154.836 68.1086 154.808 68.1048 154.779C68.1329 154.773 68.1601 154.764 68.1865 154.752C68.2126 154.74 68.2377 154.726 68.2614 154.71C68.285 154.693 68.3068 154.674 68.327 154.654C68.3469 154.633 68.365 154.61 68.3806 154.586C68.3965 154.562 68.4099 154.537 68.4205 154.51C68.4314 154.483 68.4397 154.456 68.4455 154.428C68.451 154.399 68.4542 154.371 68.4543 154.342C68.4545 154.313 68.4518 154.285 68.4465 154.256C68.4412 154.228 68.4334 154.2 68.4229 154.173C68.4122 154.146 68.3989 154.121 68.3836 154.096C68.3679 154.072 68.3503 154.05 68.3304 154.028C68.3109 154.008 68.2892 153.989 68.2656 153.972C68.2424 153.955 68.2175 153.941 68.1914 153.929C68.165 153.916 68.138 153.907 68.1099 153.9C68.082 153.893 68.0533 153.889 68.0248 153.888C67.9959 153.886 67.9672 153.887 67.9387 153.892C67.9329 153.863 67.9246 153.834 67.9135 153.806C67.9021 153.779 67.8882 153.753 67.8721 153.728C67.8556 153.703 67.8372 153.68 67.8162 153.659C67.7955 153.638 67.7726 153.619 67.748 153.603C67.7237 153.586 67.6976 153.572 67.6702 153.56C67.6429 153.549 67.6149 153.54 67.5855 153.534C67.5565 153.528 67.5274 153.525 67.4976 153.524C67.4679 153.524 67.4383 153.527 67.4092 153.532ZM73.3259 155.825C73.5919 158.17 73.664 164.12 68.9524 170.243L65.7985 170.833C59.2014 166.832 57.116 161.267 56.5132 158.979C56.303 158.189 56.1437 157.389 56.0356 156.579L65.8009 154.752C65.8309 154.748 65.8604 154.741 65.8892 154.73C65.9178 154.72 65.9451 154.707 65.971 154.691C65.997 154.675 66.0211 154.657 66.0436 154.636C66.0657 154.615 66.0859 154.593 66.1036 154.568C66.1212 154.543 66.1364 154.517 66.1486 154.489C66.1612 154.461 66.1707 154.432 66.177 154.403C66.1837 154.373 66.1873 154.343 66.1876 154.313C66.1882 154.282 66.1855 154.252 66.18 154.222C66.1743 154.192 66.166 154.163 66.1544 154.135C66.1431 154.106 66.1289 154.08 66.1118 154.054C66.0953 154.029 66.076 154.006 66.0542 153.984C66.0327 153.963 66.0091 153.944 65.9837 153.927C65.9583 153.91 65.9311 153.896 65.9031 153.885C65.8746 153.874 65.8456 153.865 65.8156 153.86C65.7856 153.855 65.7555 153.852 65.7252 153.853C65.6945 153.854 65.6644 153.858 65.6348 153.864L54.9802 155.857C54.9524 155.864 54.9252 155.873 54.8989 155.885C54.8728 155.897 54.8476 155.911 54.8244 155.927C54.8007 155.944 54.779 155.963 54.759 155.983C54.7388 156.004 54.7211 156.026 54.7056 156.051C54.6897 156.075 54.6765 156.1 54.6656 156.127C54.655 156.153 54.6468 156.181 54.6409 156.209C54.6354 156.237 54.6326 156.266 54.6324 156.295C54.6322 156.323 54.6346 156.352 54.6398 156.38C54.6451 156.408 54.6532 156.436 54.6639 156.463C54.6744 156.489 54.6874 156.515 54.7027 156.54C54.7184 156.564 54.736 156.586 54.7555 156.607C54.7753 156.628 54.7967 156.647 54.8203 156.664C54.8435 156.681 54.8681 156.695 54.8945 156.707C54.9205 156.719 54.9475 156.729 54.9756 156.736C55.0032 156.743 55.0319 156.747 55.0604 156.748C55.0893 156.75 55.118 156.749 55.1462 156.745L55.2593 157.35C54.9719 157.198 54.6678 157.099 54.3463 157.052C54.0252 157.005 53.7054 157.012 53.3865 157.074C53.2173 157.1 53.0515 157.141 52.8892 157.197C52.7273 157.252 52.5713 157.321 52.4213 157.404C52.2712 157.487 52.1298 157.583 51.997 157.691C51.8639 157.799 51.7413 157.918 51.6293 158.047C51.5203 158.186 51.4274 158.334 51.3508 158.492C51.2743 158.651 51.216 158.816 51.1761 158.987C51.1357 159.159 51.1147 159.332 51.1131 159.508C51.1111 159.684 51.1285 159.858 51.1651 160.031C51.3398 160.964 51.6918 162.888 53.0236 164.577C54.3327 166.238 56.6115 167.64 60.4178 167.662C61.6746 169.008 63.0745 170.181 64.6183 171.183C64.5139 171.258 64.4217 171.347 64.3418 171.448C64.2624 171.549 64.1983 171.66 64.1498 171.779C64.1016 171.899 64.0705 172.023 64.0573 172.151C64.0442 172.279 64.0488 172.407 64.0718 172.533L64.1548 172.977C64.1716 173.063 64.1962 173.147 64.2289 173.228C64.2618 173.309 64.302 173.387 64.3495 173.46C64.3974 173.534 64.4514 173.602 64.5122 173.665C64.5734 173.728 64.6396 173.785 64.7111 173.835C64.7828 173.885 64.8588 173.928 64.9389 173.964C65.0187 173.999 65.1015 174.027 65.1869 174.046C65.2722 174.066 65.3586 174.077 65.4461 174.08C65.5336 174.084 65.6206 174.078 65.7071 174.064C65.716 174.203 65.7219 174.368 65.7208 174.547C65.7281 175.038 65.6298 175.508 65.4253 175.954L64.2927 176.166C64.2335 176.177 64.179 176.2 64.1288 176.233C64.0789 176.266 64.0369 176.307 64.0032 176.357L63.2812 177.411C63.2474 177.46 63.2244 177.514 63.2119 177.572C63.1995 177.631 63.1985 177.689 63.2095 177.748L63.5908 179.786L62.9752 180.686C62.9405 180.735 62.9168 180.788 62.9043 180.847C62.8915 180.905 62.8906 180.964 62.9013 181.023L63.1505 182.355C63.156 182.385 63.1643 182.413 63.1754 182.441C63.1865 182.469 63.2003 182.495 63.2165 182.52C63.2327 182.545 63.2515 182.568 63.2721 182.589C63.2932 182.61 63.3157 182.629 63.3403 182.646C63.365 182.663 63.3911 182.677 63.4185 182.689C63.4459 182.7 63.474 182.709 63.5033 182.715C63.5322 182.721 63.5618 182.724 63.5915 182.725C63.6213 182.725 63.6509 182.722 63.6799 182.717L75.2221 180.558C75.2512 180.552 75.2797 180.544 75.307 180.533C75.3345 180.521 75.3606 180.508 75.3854 180.491C75.4102 180.475 75.4331 180.457 75.4542 180.436C75.4755 180.415 75.4943 180.393 75.5109 180.368C75.5275 180.344 75.542 180.318 75.5532 180.291C75.5648 180.264 75.5736 180.235 75.5797 180.206C75.5858 180.177 75.5892 180.148 75.5897 180.119C75.5897 180.089 75.5872 180.06 75.5817 180.03L75.3323 178.697C75.3096 178.576 75.247 178.479 75.1451 178.409L74.2458 177.793L73.8646 175.755C73.8537 175.697 73.8317 175.643 73.7989 175.593C73.7662 175.543 73.7254 175.501 73.676 175.467L72.622 174.746C72.5725 174.711 72.518 174.688 72.4588 174.675C72.4 174.663 72.3405 174.662 72.2812 174.673L71.1511 174.884C70.7988 174.541 70.5373 174.139 70.3661 173.679C70.2992 173.513 70.2465 173.357 70.2067 173.223C70.2923 173.205 70.3753 173.178 70.4554 173.144C70.5358 173.109 70.6123 173.067 70.6844 173.018C70.7569 172.969 70.8237 172.913 70.8852 172.851C70.9467 172.789 71.0017 172.722 71.0505 172.649C71.0989 172.576 71.1402 172.499 71.1742 172.419C71.2081 172.338 71.2338 172.255 71.252 172.169C71.2697 172.084 71.2792 171.997 71.2806 171.91C71.2817 171.822 71.2748 171.736 71.2594 171.649L71.1763 171.205C71.1518 171.078 71.11 170.958 71.0513 170.843C70.9924 170.728 70.9186 170.624 70.8302 170.53C70.7417 170.436 70.6421 170.356 70.5307 170.291C70.4197 170.225 70.3018 170.177 70.1767 170.145C71.2531 168.652 72.1338 167.052 72.8187 165.344C76.3618 163.949 77.9777 161.816 78.6001 159.794C79.2324 157.737 78.8635 155.816 78.6888 154.882C78.6608 154.709 78.6144 154.54 78.5493 154.377C78.4843 154.214 78.4023 154.059 78.3035 153.914C78.2042 153.769 78.0906 153.636 77.9627 153.516C77.8343 153.395 77.6948 153.29 77.5432 153.2C77.3919 153.12 77.2347 153.054 77.0715 153.001C76.9083 152.948 76.7419 152.91 76.5719 152.887C76.4024 152.864 76.2315 152.856 76.0605 152.863C75.8891 152.869 75.7198 152.891 75.5522 152.928C75.2329 152.986 74.932 153.094 74.6497 153.255C74.3674 153.415 74.1194 153.617 73.9063 153.862L73.7932 153.257C73.821 153.251 73.8482 153.241 73.8746 153.229C73.9006 153.218 73.9258 153.204 73.949 153.187C73.9727 153.17 73.9944 153.152 74.0143 153.131C74.0342 153.11 74.0523 153.088 74.0678 153.064C74.0837 153.04 74.0968 153.014 74.1078 152.988C74.1184 152.961 74.1266 152.934 74.1325 152.905C74.138 152.877 74.1408 152.848 74.141 152.82C74.1412 152.791 74.1384 152.762 74.1331 152.734C74.1279 152.706 74.1201 152.678 74.1096 152.652C74.099 152.625 74.086 152.599 74.0707 152.575C74.055 152.551 74.0374 152.528 74.0179 152.507C73.998 152.486 73.9767 152.467 73.9531 152.451C73.9299 152.433 73.9049 152.419 73.8789 152.407C73.8529 152.395 73.8258 152.385 73.7979 152.379C73.7702 152.372 73.7415 152.367 73.713 152.366C73.6841 152.364 73.6554 152.366 73.6272 152.369L69.1869 153.2C69.1588 153.207 69.1315 153.216 69.1056 153.228C69.0791 153.239 69.0543 153.254 69.0307 153.27C69.0074 153.287 68.9857 153.305 68.9654 153.326C68.9455 153.347 68.9278 153.369 68.9119 153.394C68.8964 153.418 68.8829 153.443 68.8723 153.47C68.8613 153.496 68.8531 153.524 68.8476 153.552C68.8417 153.58 68.8389 153.609 68.8387 153.637C68.8389 153.666 68.8413 153.695 68.8465 153.723C68.8518 153.751 68.8599 153.779 68.8702 153.806C68.8807 153.832 68.8937 153.858 68.9094 153.882C68.9247 153.907 68.9423 153.929 68.9622 153.95C68.9817 153.971 69.0034 153.99 69.0266 154.007C69.0502 154.023 69.0748 154.038 69.1008 154.05C69.1272 154.062 69.1542 154.072 69.1819 154.079C69.2099 154.086 69.2382 154.09 69.2671 154.091C69.2956 154.093 69.3243 154.092 69.3529 154.088L72.9053 153.423C73.0972 154.215 73.2372 155.015 73.3259 155.825Z" fill="#7E349C"/>
</g>
<path d="M306.406 184.656C352.641 187.203 375.172 205.219 375.172 205.219C319.703 159 277.969 173.594 252 176.328C244.953 177.078 232.125 180.578 215.922 184.172C201.719 187.313 184.906 190.516 167.078 191.953C160.438 192.5 153.656 192.797 146.828 192.75C138.797 192.703 130.688 192.188 122.625 191.047C114.438 189.906 106.297 188.109 98.3438 185.516L93.5 184.172C88.5 181.5 83.0469 179.453 83.0469 179.453C36.2031 158.5 10 166.5 10 166.5C36.5781 166.5 41.2031 172.859 61.4219 186.156C81.6406 199.438 124.406 232.953 163.234 219.438C202.047 205.922 260.188 182.109 306.406 184.656Z" fill="#15B5DF"/>
<path d="M329.281 221.016C329.281 221.016 270.219 201.219 187.891 224.109C105.562 247 46.5 217.469 46.5 217.469C46.5 217.469 116.312 256.594 194.75 235.187C273.172 213.766 310.828 216.453 329.281 221.016Z" fill="#0E90B2"/>
</g>
<defs>
<filter id="filter0_d_167_457" x="0" y="3.03259" width="375.172" height="248.558" filterUnits="userSpaceOnUse" color-interpolation-filters="sRGB">
<feFlood flood-opacity="0" result="BackgroundImageFix"/>
<feColorMatrix in="SourceAlpha" type="matrix" values="0 0 0 0 0 0 0 0 0 0 0 0 0 0 0 0 0 0 127 0" result="hardAlpha"/>
<feOffset dx="-10" dy="10"/>
<feComposite in2="hardAlpha" operator="out"/>
<feColorMatrix type="matrix" values="0 0 0 0 0 0 0 0 0 0 0 0 0 0 0 0 0 0 0.25 0"/>
<feBlend mode="normal" in2="BackgroundImageFix" result="effect1_dropShadow_167_457"/>
<feBlend mode="normal" in="SourceGraphic" in2="effect1_dropShadow_167_457" result="shape"/>
</filter>
</defs>
</svg>
