<svg width="790" height="581" viewBox="0 0 790 581" fill="none" xmlns="http://www.w3.org/2000/svg">
<g clip-path="url(#clip0_89_756)">
<g clip-path="url(#clip1_89_756)">
<path d="M779 622L819 753L979 569L779 622Z" fill="#0A2C37" stroke="#0A2C37" stroke-width="1.51"/>
<path d="M775 250L948 422L1016 227L775 250Z" fill="#093644" stroke="#093644" stroke-width="1.51"/>
<path d="M845 151L775 250L1016 227L845 151Z" fill="#0B3C4B" stroke="#0B3C4B" stroke-width="1.51"/>
<path d="M788 9L845 151L929 -55L788 9Z" fill="#0B3E50" stroke="#0B3E50" stroke-width="1.51"/>
<path d="M775 250L853 445L948 422L775 250Z" fill="#05303D" stroke="#05303D" stroke-width="1.51"/>
<path d="M853 445L779 622L979 569L853 445Z" fill="#062A36" stroke="#062A36" stroke-width="1.51"/>
<path d="M797 -159L788 9L929 -55L797 -159Z" fill="#083D4F" stroke="#083D4F" stroke-width="1.51"/>
<path d="M775 250L671 389L853 445L775 250Z" fill="#03303E" stroke="#03303E" stroke-width="1.51"/>
<path d="M725 565L779 622L853 445L725 565Z" fill="#042936" stroke="#042936" stroke-width="1.51"/>
<path d="M713 -39L788 9L797 -159L713 -39Z" fill="#053C4F" stroke="#053C4F" stroke-width="1.51"/>
<path d="M788 9L728 149L845 151L788 9Z" fill="#083F51" stroke="#083F51" stroke-width="1.51"/>
<path d="M728 149L775 250L845 151L728 149Z" fill="#083C4D" stroke="#083C4D" stroke-width="1.51"/>
<path d="M671 389L725 565L853 445L671 389Z" fill="#012935" stroke="#012935" stroke-width="1.51"/>
<path d="M640 271L671 389L775 250L640 271Z" fill="#033444" stroke="#033444" stroke-width="1.51"/>
<path d="M713 -39L728 149L788 9L713 -39Z" fill="#063D50" stroke="#063D50" stroke-width="1.51"/>
<path d="M728 149L640 271L775 250L728 149Z" fill="#043A4A" stroke="#043A4A" stroke-width="1.51"/>
<path d="M725 565L684 718L779 622L725 565Z" fill="#062A36" stroke="#062A36" stroke-width="1.51"/>
<path d="M572 718H684L725 565L572 718Z" fill="#092D39" stroke="#092D39" stroke-width="1.51"/>
<path d="M489 581L572 718L725 565L489 581Z" fill="#07303D" stroke="#07303D" stroke-width="1.51"/>
<path d="M671 389L561 459L725 565L671 389Z" fill="#002B39" stroke="#002B39" stroke-width="1.51"/>
<path d="M713 -39L522 124L728 149L713 -39Z" fill="#064154" stroke="#064154" stroke-width="1.51"/>
<path d="M522 124L640 271L728 149L522 124Z" fill="#074053" stroke="#074053" stroke-width="1.51"/>
<path d="M522 124L538 235L640 271L522 124Z" fill="#074154" stroke="#074154" stroke-width="1.51"/>
<path d="M561 459L489 581L725 565L561 459Z" fill="#042F3D" stroke="#042F3D" stroke-width="1.51"/>
<path d="M474 -80L522 124L713 -39L474 -80Z" fill="#074458" stroke="#074458" stroke-width="1.51"/>
<path d="M640 271L561 459L671 389L640 271Z" fill="#023342" stroke="#023342" stroke-width="1.51"/>
<path d="M538 235L561 459L640 271L538 235Z" fill="#043949" stroke="#043949" stroke-width="1.51"/>
<path d="M538 235L402 245L561 459L538 235Z" fill="#063D4F" stroke="#063D4F" stroke-width="1.51"/>
<path d="M402 245L342 449L561 459L402 245Z" fill="#053B4C" stroke="#053B4C" stroke-width="1.51"/>
<path d="M489 581L321 783L572 718L489 581Z" fill="#0D3745" stroke="#0D3745" stroke-width="1.51"/>
<path d="M474 -80H411L522 124L474 -80Z" fill="#09495E" stroke="#09495E" stroke-width="1.51"/>
<path d="M342 449L489 581L561 459L342 449Z" fill="#043444" stroke="#043444" stroke-width="1.51"/>
<path d="M350 578L321 783L489 581L350 578Z" fill="#0D3A49" stroke="#0D3A49" stroke-width="1.51"/>
<path d="M411 -80L353 127L522 124L411 -80Z" fill="#0C4C61" stroke="#0C4C61" stroke-width="1.51"/>
<path d="M522 124L402 245L538 235L522 124Z" fill="#0A4659" stroke="#0A4659" stroke-width="1.51"/>
<path d="M353 127L402 245L522 124L353 127Z" fill="#0C4B60" stroke="#0C4B60" stroke-width="1.51"/>
<path d="M342 449L350 578L489 581L342 449Z" fill="#073848" stroke="#073848" stroke-width="1.51"/>
<path d="M220 269L342 449L402 245L220 269Z" fill="#0A4659" stroke="#0A4659" stroke-width="1.51"/>
<path d="M194 -63L353 127L411 -80L194 -63Z" fill="#0D5167" stroke="#0D5167" stroke-width="1.51"/>
<path d="M225 590L321 783L350 578L225 590Z" fill="#0F3F4E" stroke="#0F3F4E" stroke-width="1.51"/>
<path d="M353 127L220 269L402 245L353 127Z" fill="#0E4D62" stroke="#0E4D62" stroke-width="1.51"/>
<path d="M220 269L170 385L342 449L220 269Z" fill="#0A465A" stroke="#0A465A" stroke-width="1.51"/>
<path d="M342 449L225 590L350 578L342 449Z" fill="#093D4D" stroke="#093D4D" stroke-width="1.51"/>
<path d="M194 -63L216 150L353 127L194 -63Z" fill="#10556C" stroke="#10556C" stroke-width="1.51"/>
<path d="M216 150L220 269L353 127L216 150Z" fill="#105369" stroke="#105369" stroke-width="1.51"/>
<path d="M170 385L225 590L342 449L170 385Z" fill="#063F50" stroke="#063F50" stroke-width="1.51"/>
<path d="M194 -63L117 33L216 150L194 -63Z" fill="#0F556D" stroke="#0F556D" stroke-width="1.51"/>
<path d="M170 385L76 405L225 590L170 385Z" fill="#063F51" stroke="#063F51" stroke-width="1.51"/>
<path d="M117 33L76 78L216 150L117 33Z" fill="#10556C" stroke="#10556C" stroke-width="1.51"/>
<path d="M216 150L130 237L220 269L216 150Z" fill="#0F5166" stroke="#0F5166" stroke-width="1.51"/>
<path d="M130 237L170 385L220 269L130 237Z" fill="#0B4B5F" stroke="#0B4B5F" stroke-width="1.51"/>
<path d="M76 405L31 600L225 590L76 405Z" fill="#083F50" stroke="#083F50" stroke-width="1.51"/>
<path d="M76 78L130 237L216 150L76 78Z" fill="#10556C" stroke="#10556C" stroke-width="1.51"/>
<path d="M130 237L76 405L170 385L130 237Z" fill="#09475B" stroke="#09475B" stroke-width="1.51"/>
<path d="M55 -179L117 33L194 -63L55 -179Z" fill="#0C536B" stroke="#0C536B" stroke-width="1.51"/>
<path d="M55 -179L-63 -79L117 33L55 -179Z" fill="#0A526A" stroke="#0A526A" stroke-width="1.51"/>
<path d="M-52 295L76 405L130 237L-52 295Z" fill="#09485D" stroke="#09485D" stroke-width="1.51"/>
<path d="M-35 177L-52 295L130 237L-35 177Z" fill="#0B4E64" stroke="#0B4E64" stroke-width="1.51"/>
<path d="M76 78L-35 177L130 237L76 78Z" fill="#0F546A" stroke="#0F546A" stroke-width="1.51"/>
<path d="M-79 470L31 600L76 405L-79 470Z" fill="#053D4F" stroke="#053D4F" stroke-width="1.51"/>
<path d="M-63 -79L76 78L117 33L-63 -79Z" fill="#0D536B" stroke="#0D536B" stroke-width="1.51"/>
<path d="M-52 295L-79 470L76 405L-52 295Z" fill="#054256" stroke="#054256" stroke-width="1.51"/>
<path d="M-63 -79L-35 177L76 78L-63 -79Z" fill="#0D536B" stroke="#0D536B" stroke-width="1.51"/>
<path d="M-79 470L-122 551L31 600L-79 470Z" fill="#073D4F" stroke="#073D4F" stroke-width="1.51"/>
<path d="M-122 551L-173 678L31 600L-122 551Z" fill="#0B3E4F" stroke="#0B3E4F" stroke-width="1.51"/>
</g>
<g style="mix-blend-mode:multiply">
<rect y="-13.0164" width="790" height="600.054" fill="#072937" fill-opacity="0.25"/>
</g>
</g>
<defs>
<clipPath id="clip0_89_756">
<rect width="790" height="580.53" rx="40" fill="white"/>
</clipPath>
<clipPath id="clip1_89_756">
<rect width="2347.6" height="1609.7" fill="white" transform="translate(-770 -443)"/>
</clipPath>
</defs>
</svg>
