<svg width="444" height="764" viewBox="0 0 444 764" fill="none" xmlns="http://www.w3.org/2000/svg">
<g clip-path="url(#clip0_89_1102)">
<g clip-path="url(#clip1_89_1102)">
<path d="M438 -95L516 28L590 -164L438 -95Z" fill="#043748" stroke="#043748" stroke-width="1.51"/>
<path d="M494 437L390 576L572 632L494 437Z" fill="#03303E" stroke="#03303E" stroke-width="1.51"/>
<path d="M444 752L498 809L572 632L444 752Z" fill="#042936" stroke="#042936" stroke-width="1.51"/>
<path d="M432 148L507 196L516 28L432 148Z" fill="#053C4F" stroke="#053C4F" stroke-width="1.51"/>
<path d="M390 576L444 752L572 632L390 576Z" fill="#012935" stroke="#012935" stroke-width="1.51"/>
<path d="M359 458L390 576L494 437L359 458Z" fill="#033444" stroke="#033444" stroke-width="1.51"/>
<path d="M432 148L447 336L507 196L432 148Z" fill="#063D50" stroke="#063D50" stroke-width="1.51"/>
<path d="M438 -95L346 17L516 28L438 -95Z" fill="#013A4D" stroke="#013A4D" stroke-width="1.51"/>
<path d="M346 17L432 148L516 28L346 17Z" fill="#023C4E" stroke="#023C4E" stroke-width="1.51"/>
<path d="M447 336L359 458L494 437L447 336Z" fill="#043A4A" stroke="#043A4A" stroke-width="1.51"/>
<path d="M444 752L403 905L498 809L444 752Z" fill="#062A36" stroke="#062A36" stroke-width="1.51"/>
<path d="M291 905H403L444 752L291 905Z" fill="#092D39" stroke="#092D39" stroke-width="1.51"/>
<path d="M208 768L291 905L444 752L208 768Z" fill="#07303D" stroke="#07303D" stroke-width="1.51"/>
<path d="M390 576L280 646L444 752L390 576Z" fill="#002B39" stroke="#002B39" stroke-width="1.51"/>
<path d="M432 148L241 311L447 336L432 148Z" fill="#064154" stroke="#064154" stroke-width="1.51"/>
<path d="M241 311L359 458L447 336L241 311Z" fill="#074053" stroke="#074053" stroke-width="1.51"/>
<path d="M241 311L257 422L359 458L241 311Z" fill="#074154" stroke="#074154" stroke-width="1.51"/>
<path d="M280 646L208 768L444 752L280 646Z" fill="#042F3D" stroke="#042F3D" stroke-width="1.51"/>
<path d="M193 107L241 311L432 148L193 107Z" fill="#074458" stroke="#074458" stroke-width="1.51"/>
<path d="M291 17H346L438 -95L291 17Z" fill="#033E51" stroke="#033E51" stroke-width="1.51"/>
<path d="M196 -102L291 17L438 -95L196 -102Z" fill="#033D51" stroke="#033D51" stroke-width="1.51"/>
<path d="M346 17H291L432 148L346 17Z" fill="#044053" stroke="#044053" stroke-width="1.51"/>
<path d="M291 17L193 107L432 148L291 17Z" fill="#054256" stroke="#054256" stroke-width="1.51"/>
<path d="M359 458L280 646L390 576L359 458Z" fill="#023342" stroke="#023342" stroke-width="1.51"/>
<path d="M257 422L280 646L359 458L257 422Z" fill="#043949" stroke="#043949" stroke-width="1.51"/>
<path d="M257 422L121 432L280 646L257 422Z" fill="#063D4F" stroke="#063D4F" stroke-width="1.51"/>
<path d="M121 432L61 636L280 646L121 432Z" fill="#053B4C" stroke="#053B4C" stroke-width="1.51"/>
<path d="M196 -102L136 38L291 17L196 -102Z" fill="#05455A" stroke="#05455A" stroke-width="1.51"/>
<path d="M136 38L193 107L291 17L136 38Z" fill="#06465C" stroke="#06465C" stroke-width="1.51"/>
<path d="M193 107H130L241 311L193 107Z" fill="#09495E" stroke="#09495E" stroke-width="1.51"/>
<path d="M61 636L208 768L280 646L61 636Z" fill="#043444" stroke="#043444" stroke-width="1.51"/>
<path d="M130 107L72 314L241 311L130 107Z" fill="#0C4C61" stroke="#0C4C61" stroke-width="1.51"/>
<path d="M241 311L121 432L257 422L241 311Z" fill="#0A4659" stroke="#0A4659" stroke-width="1.51"/>
<path d="M72 314L121 432L241 311L72 314Z" fill="#0C4B60" stroke="#0C4B60" stroke-width="1.51"/>
<path d="M61 636L69 765L208 768L61 636Z" fill="#073848" stroke="#073848" stroke-width="1.51"/>
<path d="M136 38L130 107H193L136 38Z" fill="#08495F" stroke="#08495F" stroke-width="1.51"/>
<path d="M74 -146L136 38L196 -102L74 -146Z" fill="#06455A" stroke="#06455A" stroke-width="1.51"/>
<path d="M-61 456L61 636L121 432L-61 456Z" fill="#0A4659" stroke="#0A4659" stroke-width="1.51"/>
<path d="M-87 124L72 314L130 107L-87 124Z" fill="#0D5167" stroke="#0D5167" stroke-width="1.51"/>
<path d="M-76 33L130 107L136 38L-76 33Z" fill="#0A4E64" stroke="#0A4E64" stroke-width="1.51"/>
<path d="M74 -146L-76 33L136 38L74 -146Z" fill="#094C63" stroke="#094C63" stroke-width="1.51"/>
<path d="M-52 -143L-76 33L74 -146L-52 -143Z" fill="#094C62" stroke="#094C62" stroke-width="1.51"/>
<path d="M-76 33L-87 124L130 107L-76 33Z" fill="#0C526A" stroke="#0C526A" stroke-width="1.51"/>
<path d="M72 314L-61 456L121 432L72 314Z" fill="#0E4D62" stroke="#0E4D62" stroke-width="1.51"/>
<path d="M-61 456L-111 572L61 636L-61 456Z" fill="#0A465A" stroke="#0A465A" stroke-width="1.51"/>
<path d="M61 636L-56 777L69 765L61 636Z" fill="#093D4D" stroke="#093D4D" stroke-width="1.51"/>
<path d="M-87 124L-65 337L72 314L-87 124Z" fill="#10556C" stroke="#10556C" stroke-width="1.51"/>
<path d="M-65 337L-61 456L72 314L-65 337Z" fill="#105369" stroke="#105369" stroke-width="1.51"/>
<path d="M-111 572L-56 777L61 636L-111 572Z" fill="#063F50" stroke="#063F50" stroke-width="1.51"/>
</g>
<g style="mix-blend-mode:multiply">
<rect y="-17.13" width="444" height="789.695" fill="#072937" fill-opacity="0.5"/>
</g>
</g>
<defs>
<clipPath id="clip0_89_1102">
<rect width="444" height="764" rx="40" fill="white"/>
</clipPath>
<clipPath id="clip1_89_1102">
<rect width="2347.6" height="1609.7" fill="white" transform="translate(-672 -66)"/>
</clipPath>
</defs>
</svg>
