<svg width="784" height="467" viewBox="0 0 784 467" fill="none" xmlns="http://www.w3.org/2000/svg">
<g clip-path="url(#clip0_89_1453)">
<g clip-path="url(#clip1_89_1453)">
<path d="M851 -39L767 167L890 164L851 -39Z" fill="#0E4051" stroke="#0E4051" stroke-width="1.51"/>
<path d="M697 266L870 438L938 243L697 266Z" fill="#093644" stroke="#093644" stroke-width="1.51"/>
<path d="M890 164L767 167L938 243L890 164Z" fill="#0F3F4F" stroke="#0F3F4F" stroke-width="1.51"/>
<path d="M767 167L697 266L938 243L767 167Z" fill="#0B3C4B" stroke="#0B3C4B" stroke-width="1.51"/>
<path d="M710 25L767 167L851 -39L710 25Z" fill="#0B3E50" stroke="#0B3E50" stroke-width="1.51"/>
<path d="M697 266L775 461L870 438L697 266Z" fill="#05303D" stroke="#05303D" stroke-width="1.51"/>
<path d="M870 438L775 461L901 585L870 438Z" fill="#052A36" stroke="#052A36" stroke-width="1.51"/>
<path d="M775 461L701 638L901 585L775 461Z" fill="#062A36" stroke="#062A36" stroke-width="1.51"/>
<path d="M719 -143L710 25L851 -39L719 -143Z" fill="#083D4F" stroke="#083D4F" stroke-width="1.51"/>
<path d="M697 266L593 405L775 461L697 266Z" fill="#03303E" stroke="#03303E" stroke-width="1.51"/>
<path d="M647 581L701 638L775 461L647 581Z" fill="#042936" stroke="#042936" stroke-width="1.51"/>
<path d="M635 -23L710 25L719 -143L635 -23Z" fill="#053C4F" stroke="#053C4F" stroke-width="1.51"/>
<path d="M710 25L650 165L767 167L710 25Z" fill="#083F51" stroke="#083F51" stroke-width="1.51"/>
<path d="M650 165L697 266L767 167L650 165Z" fill="#083C4D" stroke="#083C4D" stroke-width="1.51"/>
<path d="M593 405L647 581L775 461L593 405Z" fill="#012935" stroke="#012935" stroke-width="1.51"/>
<path d="M562 287L593 405L697 266L562 287Z" fill="#033444" stroke="#033444" stroke-width="1.51"/>
<path d="M635 -23L650 165L710 25L635 -23Z" fill="#063D50" stroke="#063D50" stroke-width="1.51"/>
<path d="M650 165L562 287L697 266L650 165Z" fill="#043A4A" stroke="#043A4A" stroke-width="1.51"/>
<path d="M593 405L483 475L647 581L593 405Z" fill="#002B39" stroke="#002B39" stroke-width="1.51"/>
<path d="M635 -23L444 140L650 165L635 -23Z" fill="#064154" stroke="#064154" stroke-width="1.51"/>
<path d="M444 140L562 287L650 165L444 140Z" fill="#074053" stroke="#074053" stroke-width="1.51"/>
<path d="M444 140L460 251L562 287L444 140Z" fill="#074154" stroke="#074154" stroke-width="1.51"/>
<path d="M396 -64L444 140L635 -23L396 -64Z" fill="#074458" stroke="#074458" stroke-width="1.51"/>
<path d="M562 287L483 475L593 405L562 287Z" fill="#023342" stroke="#023342" stroke-width="1.51"/>
<path d="M460 251L483 475L562 287L460 251Z" fill="#043949" stroke="#043949" stroke-width="1.51"/>
<path d="M460 251L324 261L483 475L460 251Z" fill="#063D4F" stroke="#063D4F" stroke-width="1.51"/>
<path d="M324 261L264 465L483 475L324 261Z" fill="#053B4C" stroke="#053B4C" stroke-width="1.51"/>
<path d="M396 -64H333L444 140L396 -64Z" fill="#09495E" stroke="#09495E" stroke-width="1.51"/>
<path d="M264 465L411 597L483 475L264 465Z" fill="#043444" stroke="#043444" stroke-width="1.51"/>
<path d="M333 -64L275 143L444 140L333 -64Z" fill="#0C4C61" stroke="#0C4C61" stroke-width="1.51"/>
<path d="M444 140L324 261L460 251L444 140Z" fill="#0A4659" stroke="#0A4659" stroke-width="1.51"/>
<path d="M275 143L324 261L444 140L275 143Z" fill="#0C4B60" stroke="#0C4B60" stroke-width="1.51"/>
<path d="M264 465L272 594L411 597L264 465Z" fill="#073848" stroke="#073848" stroke-width="1.51"/>
<path d="M142 285L264 465L324 261L142 285Z" fill="#0A4659" stroke="#0A4659" stroke-width="1.51"/>
<path d="M116 -47L275 143L333 -64L116 -47Z" fill="#0D5167" stroke="#0D5167" stroke-width="1.51"/>
<path d="M275 143L142 285L324 261L275 143Z" fill="#0E4D62" stroke="#0E4D62" stroke-width="1.51"/>
<path d="M142 285L92 401L264 465L142 285Z" fill="#0A465A" stroke="#0A465A" stroke-width="1.51"/>
<path d="M264 465L147 606L272 594L264 465Z" fill="#093D4D" stroke="#093D4D" stroke-width="1.51"/>
<path d="M116 -47L138 166L275 143L116 -47Z" fill="#10556C" stroke="#10556C" stroke-width="1.51"/>
<path d="M138 166L142 285L275 143L138 166Z" fill="#105369" stroke="#105369" stroke-width="1.51"/>
<path d="M92 401L147 606L264 465L92 401Z" fill="#063F50" stroke="#063F50" stroke-width="1.51"/>
<path d="M116 -47L39 49L138 166L116 -47Z" fill="#0F556D" stroke="#0F556D" stroke-width="1.51"/>
<path d="M92 401L-2 421L147 606L92 401Z" fill="#063F51" stroke="#063F51" stroke-width="1.51"/>
<path d="M39 49L-2 94L138 166L39 49Z" fill="#10556C" stroke="#10556C" stroke-width="1.51"/>
<path d="M138 166L52 253L142 285L138 166Z" fill="#0F5166" stroke="#0F5166" stroke-width="1.51"/>
<path d="M52 253L92 401L142 285L52 253Z" fill="#0B4B5F" stroke="#0B4B5F" stroke-width="1.51"/>
<path d="M-2 421L-47 616L147 606L-2 421Z" fill="#083F50" stroke="#083F50" stroke-width="1.51"/>
<path d="M-2 94L52 253L138 166L-2 94Z" fill="#10556C" stroke="#10556C" stroke-width="1.51"/>
<path d="M52 253L-2 421L92 401L52 253Z" fill="#09475B" stroke="#09475B" stroke-width="1.51"/>
<path d="M-23 -163L39 49L116 -47L-23 -163Z" fill="#0C536B" stroke="#0C536B" stroke-width="1.51"/>
<path d="M-23 -163L-141 -63L39 49L-23 -163Z" fill="#0A526A" stroke="#0A526A" stroke-width="1.51"/>
<path d="M-130 311L-2 421L52 253L-130 311Z" fill="#09485D" stroke="#09485D" stroke-width="1.51"/>
<path d="M-113 193L-130 311L52 253L-113 193Z" fill="#0B4E64" stroke="#0B4E64" stroke-width="1.51"/>
<path d="M-2 94L-113 193L52 253L-2 94Z" fill="#0F546A" stroke="#0F546A" stroke-width="1.51"/>
<path d="M-141 -63L-2 94L39 49L-141 -63Z" fill="#0D536B" stroke="#0D536B" stroke-width="1.51"/>
</g>
<g style="mix-blend-mode:multiply">
<rect y="-10.4708" width="784" height="482.706" fill="#072937" fill-opacity="0.5"/>
</g>
</g>
<defs>
<clipPath id="clip0_89_1453">
<rect width="784" height="467" rx="40" fill="white"/>
</clipPath>
<clipPath id="clip1_89_1453">
<rect width="2347.6" height="1609.7" fill="white" transform="translate(-469 -237)"/>
</clipPath>
</defs>
</svg>
