<!-- Generator: Adobe Illustrator 18.1.1, SVG Export Plug-In  -->
<svg version="1.1"
	 xmlns="http://www.w3.org/2000/svg" xmlns:xlink="http://www.w3.org/1999/xlink" xmlns:a="http://ns.adobe.com/AdobeSVGViewerExtensions/3.0/"
	 x="0px" y="0px" width="105.6px" height="105.6px" viewBox="0 0 105.6 105.6" enable-background="new 0 0 105.6 105.6"
	 xml:space="preserve">
<defs>
</defs>
<g>
	<path fill="#CCCCCC" d="M24.9,99.3l70.4-70.4L76.8,10.3L6.3,80.7C6,81,5.7,81.4,5.5,81.9l-5.5,20.8c0,0,0,0.1,0,0.1
		c0,0.1,0,0.2,0,0.2c0,0.1,0,0.1,0,0.2c0,0.1,0,0.1,0,0.2c0,0.1,0,0.2,0,0.2c0,0,0,0.1,0,0.1c0,0,0,0.1,0,0.1c0,0.1,0.1,0.2,0.1,0.2
		c0,0.1,0.1,0.1,0.1,0.2c0,0.1,0.1,0.1,0.1,0.2c0,0.1,0.1,0.1,0.1,0.2c0,0.1,0.1,0.1,0.2,0.2c0.1,0.1,0.1,0.1,0.2,0.2
		c0.1,0,0.1,0.1,0.2,0.1c0.1,0,0.1,0.1,0.2,0.1c0.1,0,0.1,0.1,0.2,0.1c0.1,0,0.2,0.1,0.2,0.1c0,0,0.1,0,0.1,0c0,0,0.1,0,0.1,0
		c0.1,0,0.2,0,0.2,0c0.1,0,0.1,0,0.2,0c0.1,0,0.1,0,0.2,0c0.1,0,0.2,0,0.2,0c0,0,0.1,0,0.1,0l20.8-5.5C24.2,100,24.6,99.7,24.9,99.3
		z M8.5,97.2c-0.5-0.5-1.3-0.7-2-0.6l3.2-12.1l11.5,11.5L9.1,99.1C9.2,98.4,9,97.7,8.5,97.2z"/>
	<path fill="#CCCCCC" d="M98.5,25.7L79.9,7.1L87.1,0c0,0,12.7,4.5,18.6,18.6L98.5,25.7z"/>
</g>
</svg>
